<?xml version="1.0" encoding="UTF-8" standalone="no"?>
<svg
   fill="none"
   viewBox="0 0 128 128"
   version="1.1"
   id="svg1"
   sodipodi:docname="favicon.svg"
   inkscape:version="1.4.3 (0d15f75, 2025-12-25)"
   inkscape:export-filename="favicon.png"
   inkscape:export-xdpi="24"
   inkscape:export-ydpi="24"
   xmlns:inkscape="http://www.inkscape.org/namespaces/inkscape"
   xmlns:sodipodi="http://sodipodi.sourceforge.net/DTD/sodipodi-0.dtd"
   xmlns="http://www.w3.org/2000/svg"
   xmlns:svg="http://www.w3.org/2000/svg">
  <defs
     id="defs1" />
  <sodipodi:namedview
     id="namedview1"
     pagecolor="#505050"
     bordercolor="#eeeeee"
     borderopacity="1"
     inkscape:showpageshadow="0"
     inkscape:pageopacity="0"
     inkscape:pagecheckerboard="0"
     inkscape:deskcolor="#505050"
     inkscape:zoom="3.5714417"
     inkscape:cx="-36.399866"
     inkscape:cy="70.139743"
     inkscape:window-width="3840"
     inkscape:window-height="1511"
     inkscape:window-x="-9"
     inkscape:window-y="-9"
     inkscape:window-maximized="1"
     inkscape:current-layer="svg1" />
  <style
     id="style1">
        path { fill: #000; }
        @media (prefers-color-scheme: dark) {
            path { fill: #FFF; }
        }
    </style>
  <path
     class="cls-1"
     d="m 47.809226,10.878259 c 1.787129,-0.002 3.669627,0.799813 5.251112,1.225285 0.668597,0.179454 1.184927,0.08684 1.83785,0.262424 2.450469,0.664739 5.221271,0.940671 7.701503,1.575406 2.085512,0.53353 4.283137,0.562473 6.301258,1.050177 l 2.275481,0.262423 c 1.696918,0.413894 3.56198,0.429333 5.338516,0.875065 4.884343,1.224705 10.151205,1.566533 14.965502,2.800596 2.598395,0.665705 5.216038,0.797882 7.789061,1.400202 1.183291,0.276894 2.370851,0.0579 3.413231,0.438013 0.79644,0.290404 1.36084,0.898221 2.01284,1.312697 0.64152,0.408107 1.42131,0.695615 1.8379,1.312888 0.38339,0.567296 0.39103,1.276708 0.61265,2.012844 0.53565,1.776566 0.70274,3.837263 1.13772,5.776205 0.0579,0.846123 0.11692,1.691955 0.17487,2.537981 0.58368,4.229646 1.16718,8.459677 1.75032,12.689995 0.29677,1.285585 0.16566,2.649992 0.43773,3.850772 0.17485,1.954281 0.35002,3.908853 0.52503,5.863616 0.41931,1.871213 0.27824,4.077496 0.70015,5.951314 0.0271,0.55379 0.0569,1.108257 0.0878,1.662819 0.20651,0.844193 0.82625,1.264647 1.05022,2.012844 0.0579,0.962862 0.11666,1.925433 0.17487,2.888102 0.37733,1.705752 1.28124,6.067573 0.61264,7.701446 -0.80696,1.972708 -2.56601,4.105572 -3.76324,5.776205 -0.34749,0.485292 -0.55398,1.164021 -1.05022,1.487805 l -0.87516,0.262423 c -0.8962,0.3782 -1.8571,0.728419 -2.80055,1.137682 -2.31047,1.002032 -4.55445,2.189691 -6.738882,3.325637 -1.009941,0.524846 -2.678039,0.680176 -3.325628,1.575312 -0.724654,1.001259 -1.01086,2.250953 -1.662864,3.325732 -0.715005,1.178779 -1.472921,2.414485 -2.1879,3.588154 -0.490038,0.80367 -0.737774,1.651528 -1.225285,2.45057 -0.485876,0.795947 -0.959194,1.651437 -1.487828,2.450477 -0.446488,0.67439 -1.084326,1.29957 -1.31274,2.18785 -0.395741,1.53508 0.276711,3.44035 -0.08781,5.07605 -0.316736,1.42125 0.03471,3.08927 -0.350024,4.55093 -0.279415,1.05809 -2.310453,3.17503 -3.325678,3.50065 -0.788624,0.25277 -1.915733,-0.12639 -2.450519,-0.26243 -1.12984,-0.28943 -2.322706,-0.25179 -3.325678,-0.52484 -4.909717,-1.33729 -9.571747,-2.55988 -14.265303,-4.11328 -1.756523,-0.58178 -3.793891,-0.60011 -5.776198,-1.05028 -0.641487,-0.029 -1.283256,-0.0579 -1.925356,-0.0868 -2.586322,-0.68404 -5.355388,-1.61545 -7.87677,-2.45038 -1.102705,-0.36469 -2.79707,-0.54125 -3.675676,-1.13778 -0.638016,-0.43318 -0.897929,-1.61381 -1.225287,-2.36297 -0.744724,-1.70305 -1.611191,-3.59432 -2.362947,-5.338473 C 40.395476,98.956115 40.284236,98.162189 39.844678,97.521664 39.114814,96.457401 37.537747,95.855276 36.431537,95.1586 34.034405,93.649858 31.197158,92.456124 28.729944,90.957803 27.749786,90.362525 26.661057,90.045111 25.754411,89.382492 25.166275,88.953159 24.965793,88.043457 24.616684,87.369551 24.064435,86.30365 23.315275,85.128244 22.953806,83.95641 22.656458,82.991618 22.805624,82.036281 22.51608,81.155812 c -0.79817,-2.427703 -1.854473,-4.66901 -2.97554,-6.826382 -1.297916,-2.497746 -2.662304,-5.054058 -4.113319,-7.438925 -0.960065,-1.577048 -1.379306,-3.505956 -2.450505,-4.98855 -0.291461,-0.262423 -0.583215,-0.524846 -0.875161,-0.787269 -0.806953,-1.170101 -2.6316524,-4.751307 -2.012912,-6.913889 0.310664,-1.085294 1.339025,-2.009371 1.925416,-2.888102 0.760545,-1.139417 1.451015,-2.253559 2.275449,-3.325635 0.356202,-0.463101 1.069461,-0.642552 1.487776,-1.050176 0.911053,-0.887607 1.767844,-1.956885 2.538,-2.97561 0.569708,-0.753501 1.44845,-1.331989 2.01291,-2.100447 0.868119,-1.181484 1.517551,-2.4689 2.362949,-3.675758 1.348662,-1.924468 2.747243,-3.837651 4.11332,-5.776108 1.165766,-1.654134 2.542408,-3.19018 3.763284,-4.81344 0.44641,-0.593346 1.140334,-1.057508 1.57531,-1.662819 1.157877,-1.611201 2.068021,-3.32853 3.23814,-4.901042 0.304488,-0.409072 0.830493,-0.727454 1.137721,-1.137683 0.974119,-1.298512 2.004149,-2.476039 2.975599,-3.763266 l 0.787559,-0.700436 c 0.688763,-0.9098 1.520211,-1.619789 2.275508,-2.450475 0.200384,-0.219965 0.366043,-0.537388 0.612655,-0.700437 1.185795,-0.784376 3.458621,-0.605891 4.638341,-1.400299 z m 4.901012,14.177801 c -0.646695,0.397495 -2.204568,-0.0579 -3.06311,0.175597 l -3.675778,1.487709 c -0.672069,0.419683 -1.031817,1.277767 -1.487803,1.925433 -0.971395,1.38023 -2.060997,2.7183 -3.063097,4.113292 -2.347212,3.267071 -4.940366,6.395793 -7.351449,9.62688 -0.803381,1.076612 -2.006756,1.903534 -2.800547,2.975706 -0.874294,1.179746 -1.059813,3.000115 -0.700148,4.725934 1.98139,0.876995 5.459318,-0.0579 7.438965,0.787268 1.182361,0.505551 2.145048,1.426541 3.15068,2.100448 0.729092,0.409072 1.4583,0.817178 2.187894,1.225188 0.535577,0.375305 1.05982,1.029239 1.75032,1.225285 2.479414,-0.02894 4.959059,-0.0579 7.439011,-0.08684 0.695808,-0.149536 2.190579,-0.229614 2.888099,0 0.758808,0.379164 1.517233,0.758326 2.275455,1.137779 1.675117,0.687895 3.467403,0.831649 5.251035,1.400299 0.560925,0.179453 2.153822,0.882782 2.975605,0.612642 0.394771,-0.129292 0.794699,-0.574051 1.137702,-0.787271 1.150875,-0.71684 2.296491,-1.404541 3.413185,-2.100447 0.686083,-0.426438 1.659341,-0.739993 2.100419,-1.400202 0.268694,-0.402318 0.408505,-1.170966 0.525136,-1.662817 0.183028,-0.775691 -0.253735,-1.914051 0.08781,-2.538075 0.282403,-0.517129 1.099209,-0.875068 1.575283,-1.225285 0.750028,-0.550895 1.365299,-1.369619 2.100445,-1.925339 1.75208,-1.324946 3.164605,-3.072667 4.900961,-4.375908 0.950413,-0.71298 3.442973,-1.874589 4.025826,-2.712993 0.453075,-0.652198 0.634544,-1.415156 1.050172,-2.10035 0.519827,-0.856735 1.111487,-1.829243 1.575307,-2.71309 0.138866,-0.265317 0.282403,-0.816213 0.08781,-1.137682 C 88.287682,33.178248 87.78945,32.996867 87.367595,32.583937 86.835516,32.061986 86.235151,31.230528 85.529744,30.92112 85.131373,30.745521 84.790234,30.86322 84.304536,30.745521 82.866613,30.39916 81.289569,30.414597 79.753548,30.045082 75.43983,29.007836 70.738386,28.822596 66.450935,27.769525 65.03836,27.4222 63.743974,27.514819 62.337551,27.156882 60.176787,26.607916 57.829549,26.531698 55.598689,25.931694 54.525773,25.643221 54.111856,25.084609 52.710641,25.056629 Z m 43.146137,20.129018 c -0.995978,0.771836 -2.825967,1.495716 -4.025827,2.012942 -0.429514,0.185248 -0.860303,0.188132 -1.225208,0.438017 -0.974127,0.662809 -0.909418,2.427799 -1.575385,3.413237 -0.436763,0.64641 -1.335459,0.802705 -2.012913,1.225188 -0.715005,0.444768 -1.372243,1.116745 -2.100394,1.57531 -1.138596,0.71684 -2.398828,1.306619 -3.588221,1.92534 -0.545226,0.283647 -1.182349,0.352148 -1.400297,0.962862 -0.483936,0.721661 -0.271196,2.169524 -0.61254,2.975609 -0.810322,1.914049 -2.814608,3.881353 -3.325704,5.863711 0.02705,2.595673 0.05692,5.192024 0.08781,7.789049 -0.02705,1.895623 -0.05692,3.791726 -0.08781,5.688602 0.368556,1.518388 1.286497,2.512605 1.750396,3.938181 0.427012,1.313662 0.611672,2.697365 0.962665,3.938375 0.186602,0.657023 0.09878,1.407342 0.437733,1.925338 0.380886,0.581768 1.317973,0.767008 1.925332,1.137779 1.002972,0.610713 2.085614,1.240045 3.063161,1.925336 0.497645,0.349255 0.827986,0.845159 1.575308,0.962862 0.927642,-0.928129 1.313658,-1.926206 2.100419,-2.975512 0.596918,-0.795952 1.973526,-1.500926 2.62553,-2.362967 1.327596,-1.753894 2.677988,-3.509525 3.85079,-5.426082 0.505455,-0.839369 0.944439,-1.717426 1.312714,-2.625584 0.236378,-0.582733 0.224891,-1.090407 0.525137,-1.575311 1.396722,-2.256165 3.977629,-4.49834 4.550859,-7.438926 0.11385,-0.584663 -0.22489,-1.600685 -0.35002,-2.100448 C 99.908315,66.734369 99.909388,65.02611 99.53223,63.476944 99.161095,61.953345 99.291257,60.539925 98.919587,59.013626 97.84052,54.585235 97.58058,49.74555 96.556599,45.36096 c -0.08781,-0.02894 -0.174858,-0.0579 -0.26244,-0.08684 -0.112829,-0.0772 -0.216468,-0.0772 -0.437707,-0.08684 z M 40.720369,59.975523 c -0.474099,0.289438 -1.220923,0.117704 -1.837918,0.262423 -1.622576,0.379162 -3.578585,0.336711 -5.25104,0.70044 -1.432667,0.31259 -3.159354,-0.575017 -3.850782,0.438013 -0.410614,0.520988 -0.155815,3.440253 0,4.113389 0.28606,1.235704 -0.0022,2.386602 0.350028,3.500649 0.679116,2.144152 2.141507,4.042476 3.150631,5.951217 1.806341,3.41845 3.531291,6.882338 5.25105,10.327031 0.528609,1.058086 1.223481,3.435042 2.10041,4.025879 0.399807,0.270143 0.925042,0.242173 1.400268,0.438017 1.366997,0.560542 2.828531,0.945493 4.288357,1.487708 3.784266,1.407341 7.629798,2.597604 11.464786,4.02588 2.536238,0.944532 5.242305,1.857126 7.789035,2.800501 0.482302,0.178484 2.352495,0.761219 2.888099,0.438014 0.88828,-0.272073 1.772196,-1.12813 2.362962,-1.750324 0.01023,-1.136041 -0.372232,-2.661472 0,-3.588252 0.151628,-0.377233 0.65808,-0.559578 0.875262,-0.875066 0.633574,-0.919447 1.360857,-1.656739 1.662737,-2.888102 0.456265,-1.860599 -0.429029,-3.718693 -0.787655,-4.813441 -0.665993,-2.033103 -0.99419,-4.264666 -1.487751,-6.388751 -0.483936,-0.31838 -2.482044,-1.32244 -2.713061,-1.662816 C 67.979662,75.932301 67.931902,75.117633 67.675638,74.417484 67.115581,72.88935 66.525734,71.252872 65.925344,69.779056 65.604932,68.993717 65.514823,68.142384 65.050185,67.503597 64.47961,66.718256 63.430256,66.760707 62.337123,66.453324 61.70074,66.27484 61.202024,65.865766 60.674309,65.666056 59.558458,65.244439 58.498612,65.377583 57.261125,65.053413 54.251391,64.264212 51.400919,63.069416 48.771866,61.990295 47.425022,61.437472 46.138474,61.268632 44.658559,60.852615 43.344901,60.4831 42.37352,59.999738 40.720341,59.977548 Z m 63.625141,29.405874 h 0.61264 c 0.0549,0.152446 0.0153,0.08684 0.0878,0.175598 -0.36235,1.43889 -2.06189,2.991433 -2.88802,4.113389 -2.187978,2.972038 -4.501035,5.852231 -6.651385,8.839316 -0.70362,0.97667 -1.413391,1.93316 -2.100394,2.88801 -0.335166,0.46502 -0.441383,1.02393 -1.137727,1.13768 -0.03089,-0.0868 -0.05794,-0.1756 -0.08781,-0.26242 -0.09854,-0.15148 -0.152139,-0.67729 -0.08781,-0.96287 0.234847,-1.03888 -0.1866,-2.5345 0.08781,-3.67575 0.301956,-1.2576 1.063292,-2.173964 1.662814,-3.150623 0.825179,-1.345113 1.471158,-2.792782 2.275456,-4.113387 0.492616,-0.808496 0.724654,-2.2771 1.487751,-2.800501 0.530345,-0.36276 1.300538,-0.237347 2.012939,-0.438014 1.156106,-0.325133 2.305226,-0.794024 3.325656,-1.225284 0.48028,-0.203577 1.02396,-0.225759 1.40025,-0.524849 z m -75.352508,6.213738 c 1.025679,0.02894 1.824742,0.493009 2.625498,0.787269 1.356495,0.500728 3.019363,1.129868 4.113319,1.925338 1.182373,0.860592 1.762616,2.476818 2.537999,3.763358 0.553983,0.91849 1.383667,2.14936 1.400318,3.50065 -0.211669,0.11385 -0.247559,0.15822 -0.612643,0.1756 -0.288569,-0.21902 -0.665996,-0.2084 -1.050232,-0.35022 -1.051103,-0.38688 -2.221171,-0.8085 -3.23814,-1.22519 -0.255191,-0.10424 -0.478729,-0.0386 -0.700148,-0.1756 -1.878102,-1.10892 -2.825046,-3.35979 -3.850762,-5.338668 -0.389582,-0.752538 -1.641805,-2.211495 -1.225236,-3.063019 z"
     id="path1-70"
     style="fill:#ffffff;fill-opacity:1;fill-rule:evenodd;stroke:none;stroke-width:0.0871392;stroke-dasharray:none"
     sodipodi:nodetypes="ccccccssccccccccccccccccccccccsccccccccccccccccccccccccccccccccccccccccccccccccccccccccccccccccccccscccccccssccscsccccccccccccccccccccccccccccsssccccccccccccccccscccccccccccsscccccccccccccccccccccccccccc" />
</svg>
