<?xml version="1.0" encoding="UTF-8" standalone="no"?>
<svg
   id="Layer_1"
   data-name="Layer 1"
   viewBox="0 0 869.79999 347.49999"
   version="1.1"
   sodipodi:docname="gnista-transparent.svg"
   width="869.79999"
   height="347.5"
   inkscape:version="1.4.3 (0d15f75, 2025-12-25)"
   xmlns:inkscape="http://www.inkscape.org/namespaces/inkscape"
   xmlns:sodipodi="http://sodipodi.sourceforge.net/DTD/sodipodi-0.dtd"
   xmlns="http://www.w3.org/2000/svg"
   xmlns:svg="http://www.w3.org/2000/svg">
  <sodipodi:namedview
     id="namedview2"
     pagecolor="#505050"
     bordercolor="#eeeeee"
     borderopacity="1"
     inkscape:showpageshadow="0"
     inkscape:pageopacity="0"
     inkscape:pagecheckerboard="0"
     inkscape:deskcolor="#505050"
     inkscape:zoom="1.5764447"
     inkscape:cx="299.4079"
     inkscape:cy="143.67773"
     inkscape:window-width="3840"
     inkscape:window-height="1511"
     inkscape:window-x="-9"
     inkscape:window-y="-9"
     inkscape:window-maximized="1"
     inkscape:current-layer="Layer_1" />
  <defs
     id="defs2">
    <style
       id="style1">
      .cls-1 {
        fill: url(#linear-gradient);
      }
    </style>
    <linearGradient
       id="linear-gradient"
       x1="1117.73"
       y1="471.76001"
       x2="1909.3101"
       y2="359.67001"
       gradientTransform="rotate(9.31,2473.6144,-5529.5803)"
       gradientUnits="userSpaceOnUse">
      <stop
         offset="0"
         stop-color="#f08224"
         id="stop1" />
      <stop
         offset=".79"
         stop-color="#fbea26"
         id="stop2" />
    </linearGradient>
  </defs>
  <path
     class="cls-1"
     d="m 173.71,32.1 0.98,1.08 c -0.92,10.18 -2.02,20.34 -3.3,30.5 -1.25,6.58 -2.56,13.15 -3.97,19.7 0.49,-5.52 0.92,-11.05 1.31,-16.57 1.89,-11.54 3.55,-23.11 4.98,-34.71 z m 2.77,-22.03 0.59,-10.07 -0.9,9.77 z m -1.59,12.05 0.65,1.19 0.64,-8.7 -0.44,-0.51 -0.86,8.02 z m -0.29,38.26 -1.88,10.57 0.85,2.15 z M 50.25,285.2 c -4.4,0.63 -8.77,1.56 -13.09,2.68 -6.47,2.12 -12.75,4.78 -18.73,7.95 l -0.24,0.93 c 6.91,-3.41 14.17,-6.13 21.6,-8.17 3.42,-1.28 6.91,-2.41 10.46,-3.39 z M 0,307.77 c 1.76,-1.25 3.5,-2.51 5.32,-3.68 l 0.03,-0.28 c -1.83,1.26 -3.59,2.61 -5.34,3.96 z m 7.74,-5.22 c 1.5,-0.94 3.03,-1.84 4.58,-2.7 l 0.38,-0.81 c -1.64,1 -3.28,2 -4.87,3.08 z m 34.59,-18.58 -4.08,1.41 -4.01,1.55 c 2.32,-0.67 4.64,-1.31 6.99,-1.85 l 1.1,-1.1 z m 15.47,-2.54 c -2.64,0.09 -5.28,0.27 -7.92,0.51 -1.55,0.42 -3.12,0.78 -4.65,1.25 l -1.61,1.41 c 2.73,-0.62 5.49,-1.14 8.25,-1.56 1.95,-0.6 3.93,-1.12 5.92,-1.61 z m 124.22,34.74 c 2.31,5.52 4.71,11 7.21,16.44 l -0.72,-0.21 c -2.34,-4.68 -4.6,-9.4 -6.8,-14.15 -0.7,-1.8 -1.37,-3.61 -2.05,-5.42 l -1.45,0.05 0.33,0.82 -1,-0.8 -40.1,1.28 38.77,-3.67 -0.53,-1.09 -0.46,-1.51 -93.71,1.81 -15.78,-19.03 14.41,21.81 37.07,-0.43 -38.49,3.3 -15.17,-19.61 -6.18,-8.91 c -1.52,0.48 -3.02,0.96 -4.51,1.51 -13.14,1.83 -26,5.95 -37.86,12.06 7.68,-4.35 15.89,-7.83 24.38,-10.41 4.02,-1.24 8.11,-2.27 12.24,-3.11 1.82,-0.2 3.65,-0.34 5.47,-0.45 l -0.71,-1.02 0.34,-0.74 c 3.72,-0.92 7.45,-1.82 11.19,-2.69 13.24,-4.38 26.59,-8.48 39.99,-12.43 -16.78,3.98 -33.51,8.17 -50.12,12.87 -0.01,0 -0.02,0 -0.04,0.01 l 0.41,-0.91 -1.07,-1.3 21.59,-43.64 c 3.13,-7.13 6.38,-14.21 9.74,-21.24 l 4.28,-10.32 c -4.97,8.23 -9.62,16.6 -13.84,25.16 11.79,-32.41 24.36,-64.48 37.42,-96.33 -6.22,19.13 -12.51,38.22 -19.1,57.18 l 2.62,-3.05 2.47,-5.88 c 6.79,-15.85 13.68,-31.66 20.63,-47.45 l 5.22,-11.83 2.72,-6.14 c 0.3,-0.66 0.58,-1.34 0.91,-1.97 l 0.48,-0.96 0.24,-0.48 c 0.12,-0.13 0.28,-0.22 0.42,-0.33 l 3.23,-2.34 21.04,-15.05 4.41,-3.03 0.05,-7.07 c 4.12,-20.04 7.53,-40.23 10.23,-60.53 -1.28,13.49 -2.88,26.96 -4.78,40.39 -0.85,6.37 -1.77,12.74 -2.75,19.09 l -1.89,7.53 7.21,-4.96 v -0.22 c 0,0 2.29,-12.28 2.29,-12.28 l 1.05,3 -0.76,7.06 -0.22,0.81 2.11,-1.45 8.49,-5.81 4.96,-3.42 0.33,-0.23 c 0.12,-0.03 0.27,-0.01 0.4,-0.02 h 0.8 c 0,0 1.6,-0.02 1.6,-0.02 l 2.95,-0.03 c -0.98,0.24 -2.5,0.49 -3.7,0.73 -0.61,0.16 -1.28,0.15 -1.82,0.45 l -1.42,1.4 c -1.92,1.89 -3.28,3.37 -4.87,5.01 l -2.15,2.23 8.9,-6.22 c 0,0 -0.01,-0.02 -0.01,-0.03 0,0.01 0,0.02 0.01,0.03 l 0.05,-0.03 -0.05,0.04 -10.72,8.1 -5.33,5.53 14.1,-8.74 1.56,-0.96 1.26,-0.75 c -0.11,-0.46 -0.22,-0.92 -0.35,-1.37 -0.03,-0.18 -0.06,-0.35 -0.09,-0.51 0.05,0.22 0.09,0.45 0.15,0.73 0.1,0.36 0.2,0.76 0.3,1.15 l 0.04,-0.03 c 0.23,-0.1 0.41,-0.32 0.67,-0.31 l 0.78,0.05 1.52,0.11 32.69,-1.78 -24.3,-1.53 21.76,-4.21 47.69,-0.18 -5.02,-0.31 -10.18,-0.61 10.19,-0.73 5.16,-0.36 7.3,-0.35 3.84,-0.17 h 0.24 c 0.06,0.02 0.24,-0.1 0.12,0.12 l -0.3,0.89 -0.62,1.8 -0.32,0.91 c -0.1,0.22 0.05,0.09 0.07,0.14 l 0.15,0.03 0.6,0.11 1.55,0.29 c 1.03,-0.29 2.07,-0.6 3.1,-0.88 l 3.69,0.08 c 0.66,-0.41 1.41,-0.88 2.37,-1.47 v 0 c 0,0 -0.02,0.17 -0.02,0.17 l -0.07,0.66 -0.06,0.69 23.39,0.51 c -7.87,0.76 -15.75,1.55 -23.62,2.35 -0.11,1.48 -0.21,2.96 -0.28,4.46 l -4.24,9.81 -1.1,2.54 -0.63,1.58 -1.26,3.14 -10.79,20.52 -5.4,10.26 -3,5.75 -4.09,7.99 -9.87,-0.71 -6.69,-0.54 -5.91,-0.49 -7.6,1.24 -16.39,-0.63 -2.9,-0.11 1.58,0.21 14.05,1.83 14.04,1.83 7.02,0.92 0.88,0.11 0.44,0.06 0.62,0.07 3.48,0.32 7.09,0.64 -58.42,-3.12 -25.39,16.74 -39.81,71.06 c 0.07,0 0.25,-0.02 0.22,0 l -0.12,0.04 c 0,0 -0.15,-0.06 0.03,0.22 l 1.4,2.4 2.79,4.8 1.39,2.4 0.35,0.6 c 0.06,0.13 -0.04,0.1 -0.05,0.15 l -0.2,0.21 -0.19,0.21 c 0,0 0.11,-0.06 0.16,-0.09 l 0.38,-0.23 0.13,0.02 4.32,0.38 2.29,0.21 0.14,0.02 27.52,-57.28 -14.45,32.25 -7.23,16.12 -3.61,8.06 c -0.83,1.82 -0.65,1.53 -0.8,1.92 l -0.31,0.9 -0.97,0.04 h -0.52 c 0,0 -2.26,-0.12 -2.26,-0.12 l -4.42,-0.26 h -1.21 c 0,0 -0.55,-0.35 -0.55,-0.35 -0.08,-0.07 -0.21,-0.11 -0.25,-0.22 v -0.45 c 0,0 0.02,-0.46 0.02,-0.46 -0.01,-0.09 0.03,-0.12 -0.03,-0.27 l -0.33,-0.61 -1.33,-2.42 -2.64,-4.85 -1.31,-2.43 c -0.16,-0.26 -0.09,-0.25 -0.1,-0.34 v -0.2 c -0.02,-0.13 -0.2,-0.24 -0.3,-0.36 0.09,-0.16 0.2,-0.32 0.27,-0.49 l 0.08,-0.26 0.04,-0.13 c 0,0 0.13,-0.24 0.18,-0.36 l 1.68,-3.23 3.35,-6.46 6.67,-12.93 13.2,-25.93 -6.32,9.02 -8.36,15.98 -6.81,12.96 -3.41,6.48 -1.7,3.24 -0.2,0.39 -0.11,0.25 -0.23,0.5 4.68,13.01 0.11,0.24 c 0.04,0.1 0.06,0.18 0.07,0.26 l 1.47,4.09 14.19,1.29 37.94,-78.66 61.58,-2.75 -36.72,78.23 c -13.81,2.51 -27.61,5.11 -41.38,7.83 13.53,-2.18 27.07,-4.25 40.62,-6.23 l -1.04,2.19 c -24.73,3.42 -49.43,7.17 -74.08,11.33 -18.29,5.02 -36.51,10.26 -54.59,15.87 37.28,-8.3 74.87,-15.22 112.55,-21.47 4.97,-1.1 9.96,-2.17 14.94,-3.25 l -28.05,59.02 -3.27,0.1 c 2.96,7.56 6.09,15.06 9.4,22.48 -3.07,-6.23 -6,-12.52 -8.82,-18.87 -0.54,-1.19 -1.06,-2.39 -1.59,-3.58 l -1.29,0.04 1.75,3.36 z m 13.15,-126.19 5.22,-7.69 -1.47,0.03 z m 86.61,-101.23 3.1,-5.58 c 0.79,-1.6 1.56,-3.22 2.3,-4.85 l 0.29,-0.66 c -0.34,0.04 -0.69,0.07 -1.03,0.11 l -0.55,1.27 c -0.62,1.42 -1.22,2.86 -1.8,4.31 l -2.31,5.41 z m -18.15,-11.68 12.42,-0.61 2.69,-0.12 c 0.97,-0.27 1.94,-0.55 2.9,-0.83 -0.25,-0.02 -0.49,-0.03 -0.74,-0.05 l -0.61,-0.05 c -0.09,-0.03 -0.24,0.02 -0.27,-0.07 l -0.07,-0.35 -0.13,-0.73 -0.06,-0.37 c -0.03,-0.11 -0.22,-0.04 -0.32,-0.07 l -2.96,-0.16 -0.49,-0.03 c -4.12,1.13 -8.25,2.29 -12.37,3.45 z m -81.03,230.69 -1.93,0.04 c 0.28,0.74 0.57,1.47 0.85,2.21 l 2.42,-0.23 10.36,-25.85 z m -3.89,2.51 c -0.2,-0.55 -0.42,-1.1 -0.62,-1.65 l 0.85,1.63 1.45,-0.14 c -0.34,-0.77 -0.68,-1.53 -1.02,-2.29 l -3.12,0.06 1,2.53 z m 15.23,32.68 2.43,4.55 -2.22,-4.51 -0.21,-0.05 z m -3.13,-6.02 2.05,3.97 0.33,0.1 -1.77,-3.73 -0.6,-0.34 z m -12.59,-22.18 3,5.8 -2.05,-5.1 z m 250.81,-254.23 -4.51,8.1 0.15,0.38 z m -6.32,12.3 -0.19,-0.6 -3.71,6.66 0.13,1.27 z m -22.36,50.46 4.97,-10.92 -5.05,8.75 z m 19.89,213.46 0.49,4.09 -0.34,-3.99 z m -0.64,-5.38 0.42,3.54 0.21,0.17 -0.28,-3.28 -0.35,-0.42 z m -3.75,-19.93 0.86,5.11 -0.3,-4.35 -0.55,-0.76 z m 112.44,-205.31 -18.16,16.05 -7.86,8.37 10.65,-8.88 15.38,-14.54 v -1.01 z m 16.72,-14.78 -5.08,4.49 v 0.3 z m -7.34,6.49 -4.18,3.69 -0.22,0.91 4.38,-4.14 z m -27.69,29.81 6.08,-6.32 -5.61,4.8 z m 221.57,-9.27 16.87,-19.63 -26.59,28.69 -3.3,5.41 5.1,-5.09 7.91,-9.37 z m 28.89,-30.5 -4.15,4.64 0.04,0.27 z m -5.96,7.12 -0.03,-0.42 -3.41,3.82 -0.1,0.85 3.55,-4.24 z M 188.85,78.68 c 0,0 0,0 0,-0.01 0,0 0,0 0,0 0,0 0,0.01 0,0.02 z m -0.77,-1.53 c 0.09,0.03 0.17,0.09 0.22,0.16 -0.05,-0.07 -0.11,-0.12 -0.22,-0.16 z m 0.5,0.84 c -0.13,-0.28 -0.18,-0.48 -0.25,-0.61 0.04,0.07 0.07,0.14 0.06,0.22 0.06,0.12 0.12,0.26 0.18,0.39 z m 0.06,0.14 c 0.08,0.18 0.15,0.36 0.2,0.54 -0.05,-0.16 -0.11,-0.31 -0.18,-0.48 -0.01,-0.02 -0.01,-0.04 -0.03,-0.06 z m 236.5,142.92 0.12,-0.24 c -2.22,0.21 -4.44,0.4 -6.66,0.61 2.19,-0.14 4.36,-0.25 6.55,-0.37 z m 121.41,4.36 c 0.36,-0.02 0.71,-0.05 1.07,-0.07 l 0.86,-2.16 c -0.36,0.01 -0.73,0.03 -1.09,0.04 l -0.84,2.2 z m -90,-63.88 0.57,-1.28 0.54,-1.15 c 0.2,-0.42 0.38,-0.86 0.63,-1.23 0.24,-0.39 0.48,-0.77 0.74,-1.14 0.28,-0.35 0.68,-0.6 1.02,-0.91 l 1.39,-1.12 2.17,-1.77 4.36,-3.53 -4.63,4.67 -1.16,1.17 -0.58,0.58 -0.29,0.29 -0.52,0.47 c -0.33,0.36 -0.78,0.61 -1,1.05 -0.24,0.42 -0.47,0.85 -0.69,1.28 -0.37,0.87 -0.82,1.99 -0.91,2.33 l -4.19,12.47 1.07,-0.81 4.72,-10.54 0.93,-0.8 0.31,-0.63 c 0.28,-0.6 0.6,-1.14 0.95,-1.68 l 9.21,-7.08 3.94,-2.99 19.02,-16.35 -11.43,10.58 6.38,-4.84 0.99,-0.71 3.77,-4.15 0.87,-0.04 3.49,-4.46 32.41,-27.65 -20.74,19.09 -9.75,9.13 -4.91,3.87 0.78,-0.03 0.46,-0.33 1.15,-0.84 0.57,-0.42 c 0.19,-0.13 0.36,-0.33 0.62,-0.27 h 2.84 c 0,0 2.18,0 2.18,0 l 4.69,-4.09 -0.72,2.07 -2,2.04 h 0.33 c 0,0 -0.47,0.14 -0.47,0.14 l -1.28,1.3 -0.06,0.05 8.47,-0.36 5.95,-1.53 12.83,0.06 14.73,-2.07 10.18,-1.33 12.24,19.5 v 0 c 0,0 -5.14,-10.62 -5.14,-10.62 l -2.54,-5.26 -3.12,-6.3 -7.27,0.21 -6.09,0.11 6.03,-0.91 1.74,-0.25 2.12,-0.28 4.36,-0.56 2.36,3.75 c 0.78,1.25 1.71,2.75 2.18,3.44 l 3.46,5.26 3.46,5.26 0.86,1.31 0.43,0.66 0.61,0.98 2.73,4.43 -1.99,6.23 -6.74,16.59 -3.37,8.3 -4.39,11.05 c -2.51,0.05 -4.99,0.08 -7.46,0.06 l -5.19,-0.06 -9.61,-0.14 -19.56,-0.22 -7.28,0.14 -7.07,0.04 16.86,-25.74 -14.36,2.05 -14.39,22.61 0.07,0.03 -0.08,0.12 6.64,3.11 c 0.03,-0.08 0.07,-0.16 0.1,-0.24 l 4.8,2.16 h -0.81 c 0,0 15.04,7.05 15.04,7.05 l 14.16,6.65 7.08,3.33 0.44,0.21 0.24,0.12 0.43,0.23 1.74,0.9 3.47,1.81 c 0.41,0.24 0.79,0.49 1.19,0.73 -0.69,0.02 -1.37,0.04 -2.06,0.06 -0.04,-0.02 -0.07,-0.04 -0.11,-0.06 l -3.24,-1.65 -1.61,-0.82 -0.4,-0.2 -0.24,-0.11 -0.45,-0.2 -7.11,-3.27 -14.18,-6.62 -14.12,-6.74 -2.95,-1.43 -2.21,-0.02 c 0.12,-0.29 0.24,-0.58 0.36,-0.88 l -2.23,-1.08 -3.51,-1.72 -0.88,-0.43 c -0.13,-0.08 -0.18,-0.13 -0.27,-0.2 -0.13,-0.15 -0.44,-0.2 -0.67,-0.3 0.12,-0.18 0.41,-0.37 0.35,-0.56 l 0.02,-0.28 c 0.03,-0.13 0.25,-0.46 0.37,-0.68 l 1.69,-2.97 3.34,-5.95 3.3,-5.97 0.82,-1.49 0.2,-0.37 c 0.06,-0.12 0.04,-0.15 0.06,-0.22 l 0.07,-0.4 c 0.02,-0.61 0.4,-0.9 0.63,-1.33 -0.22,0.15 -0.45,0.32 -0.69,0.52 -0.22,0.22 -0.33,0.58 -0.52,0.89 -0.05,0.09 -0.07,0.14 -0.16,0.27 l -0.31,0.43 -0.61,0.86 -1.2,1.74 -6.5,12.17 c -0.39,0.73 -0.84,1.54 -1.17,2.21 l -0.22,0.69 -0.42,0.69 c 0.35,0.18 0.74,0.34 1.04,0.56 l 0.49,0.32 0.86,0.46 3.45,1.83 6.89,3.66 13.77,7.33 13.77,7.35 6.88,3.68 0.89,0.48 c -12.42,0.38 -24.84,0.8 -37.26,1.31 -13.37,0.47 -26.73,1.17 -40.1,1.75 -6.12,0.34 -12.23,0.64 -18.34,0.96 l -1.07,-0.67 c 21.32,-1.91 42.62,-3.63 63.97,-5.18 -22.19,0.99 -44.33,2.21 -66.51,3.59 l -1.62,-1.01 8.31,-19.09 c 0.01,-0.06 0.03,-0.11 0.04,-0.17 0.11,-0.25 0.24,-0.48 0.35,-0.73 l 0.31,-0.71 -0.08,0.23 c 1.9,-4.11 3.95,-8.15 6.16,-12.11 l 1.38,-3.11 0.35,-1.01 c -2.55,3.23 -4.91,6.54 -6.98,10 2.54,-7.08 5.3,-14.06 8.22,-20.95 l 2.22,-5.16 1.13,-2.57 z m -11.73,38.09 c -1.26,2.03 -2.45,4.1 -3.54,6.22 0.68,-2.11 1.26,-4.26 1.78,-6.44 l -4.91,14.4 2.65,-4.67 c 0.5,-1.04 1.01,-2.08 1.46,-3.14 0.92,-2.09 1.77,-4.22 2.56,-6.38 z m 55.65,-66.18 1.53,-0.07 0.03,-0.04 0.61,-0.53 -2.18,0.64 z m -13.5,59.58 31.7,20.46 -6.69,-4.36 -13.11,-8.48 -6.57,-4.22 -3.29,-2.11 -2.05,-1.28 z m 92.18,30.45 c 1.35,-0.08 2.69,-0.16 4.04,-0.24 l -3.72,-0.45 -0.32,0.68 z m 47.4,-1.54 c 0.84,0.05 1.67,0.1 2.51,0.14 l 0.54,-1.21 -2.5,0.05 -0.54,1.01 z m 93.63,-4.83 -0.21,0.53 c 0,0 0.02,0 0.03,0 l 0.27,-0.54 c 0,0 -0.06,0 -0.09,0 z m 51.59,-27.26 c -0.31,0.94 -0.67,2.09 -0.9,2.92 l -0.76,2.64 -1.56,5.26 c -1.81,3.84 -2.77,5.36 -4.56,9.21 -14.6,0.4 -27.8,1.29 -41.29,0.92 l 0.1,-0.25 1.11,-2.3 2.28,-5.61 -0.74,1.42 1.12,-2.43 0.14,-0.3 0.06,-0.13 v -0.02 c 0,0 0.01,0 0.01,0 0,-0.07 0,-0.28 0,-0.43 l 0.02,-1.34 0.07,-5.35 0.08,-10.69 0.02,-5.35 v -1.34 c 0,0 0,-0.61 0,-0.61 v -0.02 c 0,0 -0.02,0 -0.02,0 0,0 0.05,0 -0.26,0 l -1.34,0.02 -2.67,0.05 -1.12,0.27 v 0 c 0,0 -0.45,0.5 -0.45,0.5 l -0.71,0.78 -3.32,5.02 0.41,-2 -1.61,1.7 -0.53,2.44 -5.29,3.71 -5.09,5.38 -0.16,0.47 8.96,-7.13 -7.28,10.17 -1.62,1.52 1.68,-0.05 -9.19,9.69 3.63,-6.03 -2.88,2.69 -1.44,1.34 -0.72,0.67 -0.35,0.27 -0.15,0.24 -0.08,0.13 -0.14,0.29 -0.56,1.17 -0.81,1.67 c -14.4,0.3 -28.79,0.67 -43.18,1.13 l 7.78,-17.41 68.2,-69.67 0.81,-0.83 h 1.1 c 0,0 3.35,-4.53 3.35,-4.53 l 14.84,-16.59 0.12,0.92 -12.47,14.91 -5.01,5.28 3.07,-0.02 0.17,-0.94 4.6,-4.98 -4.49,5.92 13.94,-0.07 9.21,-0.04 5.19,-0.03 h 1.46 c 0.46,0.01 0.88,0.07 1.32,0.11 l 2.6,0.27 c 0.21,1.37 0.49,2.59 0.64,4.08 l 0.36,4.02 0.7,6.99 1.34,13.98 c -0.97,-4.63 -1.84,-9.26 -2.59,-13.9 -0.38,-2.32 -0.73,-4.64 -1.05,-6.97 l -0.9,-6.84 -13.9,0.95 12.75,0.11 c 0,1.11 -0.08,2.23 0.05,3.24 v 0 c 0.03,0.55 0.11,0.95 0.11,1.6 v 1.99 c 0,0 -0.04,7.96 -0.04,7.96 -0.02,2.04 -0.08,4.09 -0.12,6.14 l -0.12,46.44 c 0.99,-2 2.11,-4.29 2.97,-5.87 l 0.13,-2.52 v -2.63 c 0,0 0.15,-6.05 0.15,-6.05 0.09,-4.03 0.14,-8.06 0.15,-12.08 0.64,3.98 1.35,7.96 2.13,11.94 l 1.22,5.96 c 0.45,2.16 0.9,4.47 1.27,6.84 z m -44.47,-3.01 0.14,-1.59 v -2.64 c 0,0 0.04,-5.36 0.04,-5.36 v -1.28 c 0,0 0,-0.41 0,-0.41 -0.04,-0.1 -0.25,-0.02 -0.36,-0.04 l -2.11,0.03 -1.74,0.42 0.71,-0.02 2.99,-0.1 c 0.06,0 0.14,-0.01 0.19,0 v 0.2 c 0,0 0.03,1.48 0.03,1.48 l 0.03,3.11 0.06,6.22 z m 32.98,-56.69 -0.26,0.02 h 0.25 c 0,0 0,-0.01 0,-0.02 z m -134.32,90.81 -12.13,0.25 c 3.91,0.21 7.81,0.45 11.72,0.68 z m -58.82,-31.52 11.4,-0.92 18.93,-0.67 -8.7,18.77 0.95,-2.37 3.36,-8.44 2.59,-6.76 -2.62,0.26 2.31,-0.06 -12.12,25.61 c 15.48,-0.73 30.97,-1.36 46.46,-1.94 l 11.11,-23.09 0.37,-0.75 0.21,-0.4 0.41,-0.76 0.85,0.08 0.41,0.04 0.2,0.02 0.45,0.02 4.12,0.2 8.23,0.4 1.51,-0.08 0.75,-0.04 1.17,-0.03 h 0.12 c 0,0 -0.06,0.06 -0.06,0.06 0.06,-0.01 0.13,-0.01 0.2,0 l 0.06,-0.06 4.51,-0.12 1.72,-4.24 0.7,-1.76 0.5,-1.32 1.99,-5.3 3.97,-10.6 -10.76,20.22 -2.15,-0.16 2.01,-0.06 1.66,-4.15 21.58,-46.97 c 0.9,-0.16 1.8,-0.3 2.71,-0.46 l -2.39,-0.24 0.26,-0.57 h 0.28 c 0,0 -0.27,-0.01 -0.27,-0.01 l 0.26,-0.56 -3.37,0.07 0.53,-1.37 -0.67,1.37 -11.31,0.22 c 0.56,-0.31 1.12,-0.61 1.69,-0.93 -7.11,-0.11 -14.21,-0.18 -21.31,-0.2 -1.56,0.53 -3.12,1.01 -4.67,1.51 h -4.59 c 0,0 -2.36,0.24 -2.36,0.24 l -3.5,0.07 c 1.27,-0.44 2.54,-0.88 3.81,-1.35 l -16.07,0.02 -15.81,0.51 -7.91,0.28 -3.95,0.14 -2.68,0.09 -2.66,0.17 -0.02,0.05 -2.02,0.03 -1.66,4 0.33,-1.08 c 0.49,-1.84 1.21,-3.44 1.9,-5.16 1.46,-0.22 2.86,-0.53 4.49,-0.67 l 2.29,-0.27 1.33,-0.24 5.32,-1 -5.33,0.41 -1.33,0.1 -2.47,0.14 c -1.78,0.05 -3.35,0.31 -5.02,0.47 l -1.51,3.06 c -0.49,1.05 -0.87,2.25 -1.31,3.38 l -1.46,3.91 -2.61,6.93 -5.21,13.87 1.55,-2.01 -5.76,13.88 -5.89,16.6 z m 79.65,22.85 c 0.31,-0.01 0.61,-0.02 0.92,-0.03 l 8.01,-19.36 3.11,-3.35 c 0,-0.09 0,-0.18 0.02,-0.27 l -3.37,3.45 -8.69,19.55 z m -93.38,-17.82 -2.98,-0.07 c -0.6,0 -0.73,-0.03 -1,-0.05 l -0.75,-0.05 -6.03,-0.42 -12.06,-0.8 -12.05,-0.73 -0.75,-0.04 -1.22,-0.03 -2.41,-0.06 -4.7,-0.12 -4.67,-0.21 7.04,3.02 6.79,-0.09 12.03,-0.02 12.03,-0.02 h 6.02 c 0,0 4.78,-0.06 4.78,-0.06 2.02,0 4.01,-0.11 6,-0.18 -2.05,0 -4.05,0.02 -6.06,-0.04 z m 79.78,18.32 7.99,-17.94 -9.73,18 c 0.58,-0.02 1.16,-0.04 1.74,-0.06 z m 10.12,10.12 0.86,-2.07 c -0.39,0 -0.78,-0.01 -1.16,-0.02 l -0.9,2.02 c 0.4,0.02 0.8,0.04 1.21,0.07 z m -190.22,4.58 c -0.34,0.02 -0.69,0.04 -1.03,0.06 l 6.81,4.27 c 27.8,-2.34 55.63,-4.35 83.49,-6.13 l 0.93,-2.33 c -2.94,0.1 -5.87,0.2 -8.81,0.31 0.05,0.04 0.11,0.09 0.17,0.13 l -0.2,-0.13 c -27.13,1.02 -54.26,2.29 -81.36,3.82 z m 92.42,0.66 -2.16,5.79 -3.46,9.4 -6.93,18.81 13.69,-34.36 c -0.34,0.01 -0.67,0.02 -1.01,0.04 l -0.12,0.32 z m -123.59,1.24 -3.34,6.12 2.72,-6.07 c -15.51,1.09 -31,2.38 -46.47,3.88 l -1.33,3.23 -5.31,12.12 -0.24,0.38 c 0.02,-0.06 0.04,-0.13 0.07,-0.19 l 5.78,-15.44 c -0.09,0 -0.19,0.02 -0.28,0.03 l -0.86,1.46 c 0.17,-0.5 0.32,-0.96 0.48,-1.43 -0.22,0.02 -0.43,0.04 -0.65,0.06 -1.76,5.11 -3.49,10.2 -5.4,15.4 l -13.23,28.8 -14.39,32.56 45.58,-0.44 21.18,-46.84 3.17,-7.06 2.55,-3.98 -25.32,60.29 -7.68,0.22 -5.06,0.19 12.91,-0.15 37.51,-83.3 c -0.8,0.06 -1.61,0.12 -2.41,0.17 z m 119.52,-1.42 -20.8,51.94 -32.22,28.34 -55.39,0.53 -13.55,0.07 1.46,21.57 -1.75,-16.57 -0.57,-4.99 h -1.06 c 0,0 0.82,4.57 0.82,4.57 l 1.22,14.27 -0.48,-0.35 -1.48,-12.42 -0.34,-6.07 h -1.11 c 0,0 0.15,1.86 0.15,1.86 l -0.73,-1.07 -0.12,-0.78 h -2.58 c 0,0 -11.79,-20.08 -11.79,-20.08 l 19.7,-44.38 4.03,-0.03 -3.89,0.23 -2.45,6.43 -2.01,5.42 -4.02,10.83 -7.87,21.28 3.98,5.88 -3.36,-5.92 18.36,-39.96 18.4,0.16 9.28,0.08 6.15,0.12 -2.72,6.66 -0.27,6.17 1.97,-4.94 4.1,-10.07 -19.79,-0.33 22.06,-1.27 -4.05,12.53 -2.8,9.17 1.45,-0.1 12.39,-0.04 10.79,-21.27 -21.63,-13.57 c 27.49,-1.55 55,-2.84 82.52,-3.88 z m -115.79,23.69 9.75,-0.33 -3.31,0.09 -4.8,0.14 -1.65,0.1 z m -7.59,48.28 -5.96,-9.31 2.27,3.68 2.72,4.41 0.29,0.47 0.08,0.11 0.16,0.22 0.3,0.43 h 0.14 z m 24.84,-0.05 -4.14,-0.48 -20.7,0.53 0.71,0.02 h 3.11 c 0,0 7.01,-0.03 7.01,-0.03 z m -79.58,-65.43 -25.74,63.51 27.8,-63.72 c -0.69,0.07 -1.37,0.14 -2.06,0.21 z m 383.19,-15.01 c -2.85,-0.21 -5.71,-0.42 -8.57,-0.62 2.8,0.38 5.63,0.65 8.57,0.62 z m -4.29,38.22 -0.57,1.6 3,-4.28 -8.64,26.6 3.36,-15.85 -10.25,28.92 v 0 c 0,0 -1.62,4.66 -1.62,4.66 h -0.7 c 0,0 -5.64,18.85 -5.64,18.85 l 4.88,-18.87 -1.29,-0.02 -4.04,14.42 -0.49,-0.74 3.35,-13.7 -3.8,-0.05 3.26,0.25 -13.31,0.98 5.39,-1.57 4.54,0.34 1.62,-0.38 h -0.56 c 0,0 -2.95,-0.03 -2.95,-0.03 l -3.29,-0.02 -2.72,0.56 -2.04,-0.03 -4.35,1.24 -13.41,-1.56 1.46,-0.26 -0.35,-0.02 c -2.14,0 -4.27,-0.02 -6.4,-0.04 l -0.53,1.07 7.58,0.55 7.11,0.61 -7.12,0.39 -0.89,0.05 -1.22,0.05 -2.97,0.09 -6.23,0.17 1.03,-3 c -0.27,0 -0.53,0 -0.8,0 0.27,0 0.54,-0.02 0.81,-0.02 l 1.97,-5.76 1.5,-3.55 -1.56,1.4 7.41,-18.9 c 0.22,-0.31 -0.21,1.06 -0.4,1.84 l -0.72,2.65 -1.43,5.3 3.14,-7.35 0.78,-1.84 0.38,-0.78 0.82,-1.73 -2.1,-0.16 -0.56,0.08 -1.01,0.08 -2.2,0.17 -4.39,0.34 -8.79,0.68 -6.41,-0.52 8.44,0.83 5.5,0.53 2.75,0.26 1.96,0.23 -1.97,0.13 -2.76,0.1 -5.52,0.2 -5.52,0.2 -1.38,0.05 c -0.39,0.02 -0.47,0.05 -0.71,0.07 l -1.11,0.16 -0.26,0.92 -0.11,0.42 c -0.05,0.17 -0.02,0.16 -0.19,0.59 l -1.54,4.03 -5.84,11.56 -2.92,5.78 -3.78,7.63 -5.66,0.06 h -3.67 c 0,0 -7.28,-0.01 -7.28,-0.01 h -14.55 c 0,0 -14.24,0.41 -14.24,0.41 l 4.25,-9.59 -5.16,10.2 14.37,0.32 19.19,0.92 4.8,0.23 2.5,0.11 4.79,0.04 -50.21,1.44 36.95,-83.09 c 0.44,0 0.88,-0.02 1.32,-0.02 l -19.6,47.36 3.34,-5.26 4.13,-9.32 14.67,-32.83 c 9.71,-0.15 19.41,-0.26 29.12,-0.35 -9.38,-0.63 -18.76,-1.24 -28.14,-1.83 l 0.98,-2.19 c 13.27,0.19 26.54,0.47 39.8,0.81 l 1.5,-0.22 -0.11,0.26 c 1.04,0.03 2.08,0.05 3.11,0.07 l -0.19,0.79 -1.93,3.14 27.27,1.36 2.2,-5.41 c 3.72,-0.26 7.43,-0.53 11.15,-0.76 6.71,-0.45 13.42,-0.86 20.13,-1.23 -1.07,-0.08 -2.14,-0.15 -3.21,-0.23 0.27,0 0.54,0 0.81,0 4.44,-0.21 8.2,-0.26 12.65,-0.44 -6.56,14.08 -11.34,24.53 -17.75,38.67 z m -74.63,12.97 -0.47,0.05 -1.24,3.07 z m 18.87,28.03 c -0.24,0 -0.47,0 -0.71,0 l -0.46,1.02 0.75,0.05 z m 0.52,-1.31 c 0.06,-0.58 0.14,-1.21 0.26,-1.94 l -1.43,3.14 c 0.24,0 0.47,-0.01 0.71,-0.02 z m 9.08,-17.7 -2.91,5.91 -1.05,2.65 3.97,-8.56 z m 7.84,17.32 -5.18,0.48 -2.29,0.72 1.48,-0.27 2.66,0.1 3.33,-1.04 z m 15.88,0.13 -2.09,-0.14 -8.23,-0.51 -4.83,0.45 6.67,0.62 8.47,-0.42 z m 2.52,-1.83 -6.17,0.57 1.55,-0.12 4.46,-0.35 h 0.13 c 0,0 0.02,-0.07 0.04,-0.1 z m 1.73,2.11 -0.32,-0.02 -0.4,0.89 -0.04,0.09 c 0.2,-0.04 0.37,-0.09 0.56,-0.13 l 0.2,-0.82 z m 2.17,0.17 v -0.09 c 0,0 -0.02,0.06 -0.02,0.06 l -0.93,-0.06 -0.11,0.4 c 0.38,-0.1 0.76,-0.21 1.06,-0.31 z m -6.12,-79.91 c 5.96,0.38 11.91,0.77 17.87,1.19 -5.83,-0.79 -11.51,-2.02 -17.64,-1.73 l -0.22,0.55 z m -375.24,18.79 c -21.55,2.31 -43.07,4.93 -64.55,7.8 l 0.4,1.57 7.22,27.54 -14.34,38.82 53.21,-2.89 32.63,-74.43 c -4.85,0.51 -9.71,1.03 -14.56,1.58 z m 372.7,87.49 0.21,0.35 1.32,-4.71 -0.27,-0.77 -1.26,5.14 z m -92.97,-98.33 -3.76,6.97 3.09,-6.96 c -15.43,0.3 -30.87,0.69 -46.3,1.15 l -6.29,13.29 -31.09,66.55 48.5,-2 17.06,-38.14 3.86,-8.7 3.12,-4.9 -10.66,25.75 -5.33,12.87 -2.67,6.44 -1.33,3.22 -2.47,5.78 -7.03,0.42 -4.23,0.29 -8.46,0.59 -16.92,1.17 37.23,-1.59 36.62,-82.23 c -0.98,0.02 -1.96,0.03 -2.94,0.05 z m 90.86,106.95 1.6,-5.73 -0.15,-0.21 z m -280.16,-127.63 -7.41,13.58 c 0.44,-0.03 0.89,-0.06 1.33,-0.08 z m -31.23,-39.97 6.21,-13.89 c 0.27,-1.44 0.54,-2.88 0.78,-4.33 l 3.63,-8.08 c 0.35,-0.73 0.65,-1.53 1.03,-2.2 l 1.13,-2 1.11,-1.99 0.28,-0.5 c 0.16,-0.06 0.39,-0.03 0.57,-0.05 l 1.18,-0.04 c 1.55,-0.07 3.15,-0.07 4.75,-0.02 l 4.31,0.12 8.23,0.23 c -2.72,1.35 -5.44,2.57 -8.15,3.7 l -2.04,0.83 -0.92,0.37 7.68,0.03 1.51,-0.02 c 2.44,-1.07 4.88,-2.23 7.33,-3.5 5.27,0.61 10.54,1.36 15.81,2.27 l 0.06,-0.13 -0.05,0.13 c 0.61,0.11 1.23,0.19 1.84,0.3 -0.68,0.1 -1.37,0.17 -2.05,0.26 l -0.14,0.38 2.72,-0.03 -0.2,0.46 h 0.21 c 0,0 -0.21,0 -0.21,0 l -17.62,39.29 -1.89,4.86 9.25,-17.72 -7.99,21.91 -16.04,33 c -1.76,0.11 -3.52,0.22 -5.28,0.33 -13.94,0.98 -27.85,2.15 -41.74,3.48 l 6.98,-16.99 2.11,-5.51 1.88,-4.2 4.12,-10.02 c 3.29,-7.59 6.61,-15.18 10,-22.73 -0.11,0.67 -0.25,1.33 -0.37,2 z m 50.99,-28.09 2.99,-0.04 0.18,-0.37 c -1.06,0.14 -2.11,0.28 -3.17,0.41 z m -128.68,92.93 c -16,2.22 -31.97,4.61 -47.92,7.13 l -0.99,-3.88 -1.87,4.33 c -16.56,2.63 -33.09,5.42 -49.6,8.36 l 9.68,-21.64 c 0.46,-1.21 0.93,-2.41 1.39,-3.62 -0.24,0.72 -0.49,1.44 -0.73,2.16 l 18.43,-41.21 -5.04,14.27 1.46,-3.48 9.76,-22.12 c -0.3,1.31 -0.63,2.6 -0.95,3.9 l 4.2,-11.92 3.09,-6.74 c 0.07,-0.32 0.16,-0.64 0.23,-0.96 l 3.35,-7.42 c 0.94,-2.04 1.79,-4.07 2.89,-5.71 l 0.58,-1.26 0.47,-0.03 c 0.19,-0.2 0.34,-0.43 0.55,-0.61 1.41,-0.33 3.02,-0.38 4.49,-0.49 l 4,-0.28 7.99,-0.57 c -0.67,0.4 -1.35,0.74 -2.03,1.1 l 24.14,-1.36 1.35,-3.13 -1.05,3.12 5.76,-0.32 -5.84,0.55 -0.91,2.69 c 0.43,0.09 0.86,0.15 1.29,0.24 -0.49,0.11 -0.98,0.2 -1.47,0.3 l -4.96,14.75 -3.59,10.67 c -1.22,3.63 -2.25,6.77 -3.94,11.53 l 1.87,3.84 1.57,3.12 3.07,6.1 12.65,25.86 3.07,-8.95 -3.11,6.4 -4.73,-13.37 -2.03,-5.9 -2.59,-7.2 3.51,6.8 0.44,0.85 c 0.15,0.29 0.21,0.37 0.32,0.56 l 0.56,0.97 1.06,1.78 c 1.35,2.23 2.46,3.88 3.32,4.95 0.81,-3.06 1.39,-5.52 1.73,-7.39 l 0.61,-1.17 0.34,-0.68 0.86,-1.98 3.42,-7.91 6.85,-15.81 6.85,-15.81 3.42,-7.91 4.39,-10.35 h 0.3 c 0,0 0.02,-0.06 0.02,-0.06 l 36.52,-1.15 0.14,-0.41 -1.62,-0.02 -2.53,-0.09 -10.11,-0.36 -10.11,-0.36 -2.53,-0.09 -1.26,-0.05 -0.74,-0.02 h -1.08 c 0,0 -8.89,-0.03 -8.89,-0.03 l -2.52,5.6 -1.29,2.88 -0.33,0.73 -0.22,0.46 -0.39,0.8 -3.12,6.37 -6.24,12.75 12.61,-31.68 42.53,-1.73 27.95,-48.2 -18.09,34.07 -7.28,14.02 2.97,-0.12 5.32,-12.06 16.13,-28.97 0.47,1.29 -13.24,25.75 -8.32,13.97 3.06,-0.12 2.3,-4.07 v 2.99 c 0,0 -0.46,1 -0.46,1 l 13.99,-0.57 -41.02,94.01 c -0.21,0.68 -0.4,1.28 -0.58,1.85 -0.88,0.09 -1.77,0.18 -2.65,0.27 l 23.94,-59.06 -4.95,7.91 -6.1,14.02 -16.43,37.48 c -8.43,0.87 -16.86,1.78 -25.28,2.75 l 14.63,0.2 c -9.07,0.92 -18.14,1.89 -27.2,2.92 z m 60.29,-96.12 6.49,-0.2 0.02,-0.03 -6.25,-0.09 h -0.05 c 0,0 -0.21,0.33 -0.21,0.33 z m -90.82,6 -5.47,0.51 4.44,0.07 c 0.34,-0.2 0.69,-0.38 1.03,-0.59 z m 5.83,-0.55 c 3.67,0.26 7.35,0.71 11.05,1.42 v 0 c 0,0 1.11,-2.56 1.11,-2.56 z m -33.42,106.21 c 1.42,-0.29 2.85,-0.57 4.27,-0.86 l 1.44,-3.33 c -1.46,0.18 -2.93,0.37 -4.39,0.55 z M 426.5,220.98 c 0.52,-0.03 1.05,-0.06 1.57,-0.09 l 0.16,-0.34 c -0.52,0.05 -1.05,0.1 -1.57,0.14 z m -161.58,33.45 -5.34,14.89 -10.68,29.79 23.23,-53.76 c -1.37,0.19 -2.74,0.38 -4.11,0.57 l -3.09,8.5 z m -61.28,50.52 -1.99,4.62 37.57,-0.38 v 0 c 0,0 28.11,-63.17 28.11,-63.17 -2.75,0.38 -5.49,0.75 -8.24,1.14 2.83,-0.58 5.66,-1.13 8.49,-1.71 l 1.66,-3.73 c -14.73,1.86 -29.44,3.83 -44.14,5.92 l -1.01,2.27 c 6.62,-0.89 13.25,-1.79 19.87,-2.63 -6.88,1.4 -13.75,2.84 -20.62,4.3 l -22.21,49.68 -5.04,12.9 22.64,-1.24 20.1,-1.21 -38.1,-0.63 2.9,-6.13 z m 75.69,-64.49 0.64,2.5 c 11.18,-2.22 22.37,-4.39 33.58,-6.46 -11.41,1.25 -22.82,2.57 -34.22,3.96 z M 189.02,79.33 c -0.04,-0.22 -0.1,-0.43 -0.16,-0.64 0.06,0.21 0.11,0.42 0.16,0.64 z m 680.78,136.39 -8.36,-5.04 c 0.17,-0.04 0.33,-0.08 0.5,-0.12 -0.57,-0.2 -1.1,-0.38 -1.62,-0.55 l -5.23,-3.15 -3.6,0.89 c -5.01,0.3 -9.92,0.8 -14.8,1.43 -6,-0.48 -12.08,-0.79 -18.01,-0.95 3.11,-0.79 6.24,-1.55 9.45,-2.26 -6.25,0.04 -12.24,0.3 -18.38,0.44 l 1.67,1.58 -3.04,-0.1 -16.9,2.81 15.57,1.76 -2.17,1.06 c -2.09,0.08 -4.13,0.17 -6.11,0.25 l 0.49,-0.21 -11.67,-2.04 -4.54,2.94 c -1.18,0.05 -2.26,0.11 -3.27,0.15 l 4.06,-2.68 -11.39,2.33 4.96,0.46 c -3.12,0.15 -4.93,0.24 -4.93,0.24 l 9.87,-0.06 -0.9,0.58 12.76,0.21 2.09,-0.89 6,-0.04 -1.32,0.64 9.62,0.2 c 6.1,-0.08 12.19,-0.25 18.24,-0.23 l 5.45,1.75 c -3.69,0.76 -7.35,1.56 -11.02,2.44 6.39,-0.15 12.75,-0.12 19.04,0.14 l 8.13,2.61 19.33,-6.6 z"
     id="path2"
     style="fill:url(#linear-gradient)" />
</svg>
