<?xml version="1.0" encoding="UTF-8" standalone="no"?>
<!-- Created with Inkscape (http://www.inkscape.org/) -->

<svg
   width="10.467021mm"
   height="10.467021mm"
   viewBox="0 0 10.467021 10.467021"
   version="1.1"
   id="svg1"
   inkscape:version="1.4.3 (0d15f75, 2025-12-25)"
   sodipodi:docname="icon-bluesky.svg"
   xmlns:inkscape="http://www.inkscape.org/namespaces/inkscape"
   xmlns:sodipodi="http://sodipodi.sourceforge.net/DTD/sodipodi-0.dtd"
   xmlns="http://www.w3.org/2000/svg"
   xmlns:svg="http://www.w3.org/2000/svg">
  <sodipodi:namedview
     id="namedview1"
     pagecolor="#505050"
     bordercolor="#eeeeee"
     borderopacity="1"
     inkscape:showpageshadow="0"
     inkscape:pageopacity="0"
     inkscape:pagecheckerboard="0"
     inkscape:deskcolor="#505050"
     inkscape:document-units="mm"
     inkscape:zoom="9.2149832"
     inkscape:cx="19.858962"
     inkscape:cy="19.09933"
     inkscape:window-width="1866"
     inkscape:window-height="1224"
     inkscape:window-x="94"
     inkscape:window-y="41"
     inkscape:window-maximized="0"
     inkscape:current-layer="layer1" />
  <defs
     id="defs1" />
  <g
     inkscape:label="Layer 1"
     inkscape:groupmode="layer"
     id="layer1"
     transform="translate(-99.747926,-143.40417)">
    <g
       style="fill:#000000;fill-opacity:1"
       id="g27"
       transform="matrix(0.40330882,0,0,0.40330882,101.75497,145.39346)">
      <path
         d="M 3.468,1.948 C 5.303,3.325 7.276,6.118 8,7.616 8.725,6.118 10.698,3.326 12.532,1.948 13.855,0.955 16,0.186 16,2.632 c 0,0.489 -0.28,4.105 -0.444,4.692 -0.572,2.04 -2.653,2.561 -4.504,2.246 3.236,0.551 4.06,2.375 2.281,4.2 C 9.957,17.234 8.481,12.9 8.103,11.79 8.033,11.586 8,11.49 8,11.572 8,11.491 7.967,11.586 7.898,11.79 7.519,12.9 6.043,17.234 2.667,13.77 0.889,11.945 1.712,10.12 4.947,9.57 3.097,9.885 1.015,9.365 0.444,7.324 0.28,6.737 0,3.12 0,2.632 0,0.186 2.145,0.955 3.468,1.948"
         id="path1-0"
         style="fill:#ffffff;fill-opacity:1" />
    </g>
  </g>
</svg>
