<?xml version="1.0" encoding="UTF-8" standalone="no"?>
<!-- Created with Inkscape (http://www.inkscape.org/) -->

<svg
   width="14mm"
   height="14mm"
   viewBox="0 0 14 14"
   version="1.1"
   id="svg1"
   inkscape:version="1.4.3 (0d15f75, 2025-12-25)"
   sodipodi:docname="icon-mysticore.svg"
   xmlns:inkscape="http://www.inkscape.org/namespaces/inkscape"
   xmlns:sodipodi="http://sodipodi.sourceforge.net/DTD/sodipodi-0.dtd"
   xmlns="http://www.w3.org/2000/svg"
   xmlns:svg="http://www.w3.org/2000/svg">
  <sodipodi:namedview
     id="namedview1"
     pagecolor="#505050"
     bordercolor="#eeeeee"
     borderopacity="1"
     inkscape:showpageshadow="0"
     inkscape:pageopacity="0"
     inkscape:pagecheckerboard="0"
     inkscape:deskcolor="#505050"
     inkscape:document-units="mm"
     inkscape:zoom="9.2149832"
     inkscape:cx="44.05868"
     inkscape:cy="35.702724"
     inkscape:window-width="1744"
     inkscape:window-height="1224"
     inkscape:window-x="147"
     inkscape:window-y="36"
     inkscape:window-maximized="0"
     inkscape:current-layer="layer1" />
  <defs
     id="defs1" />
  <g
     inkscape:label="Layer 1"
     inkscape:groupmode="layer"
     id="layer1"
     transform="translate(-39.687478,-109.00833)">
    <path
       class="cls-1"
       d="m 44.958217,110.5023 c 0.185234,-2.1e-4 0.380354,0.0829 0.544273,0.127 0.0693,0.0186 0.122817,0.009 0.190493,0.0272 0.253988,0.0689 0.54118,0.0975 0.798256,0.16329 0.216163,0.0553 0.443943,0.0583 0.653122,0.10885 l 0.23585,0.0272 c 0.175887,0.0429 0.369197,0.0445 0.553336,0.0907 0.506259,0.12694 1.052164,0.16237 1.551165,0.29028 0.26932,0.069 0.540639,0.0827 0.80733,0.14513 0.122648,0.0287 0.245737,0.006 0.353779,0.0454 0.08255,0.0301 0.141051,0.0931 0.208631,0.13606 0.06649,0.0423 0.147316,0.0721 0.190495,0.13608 0.03974,0.0588 0.04053,0.13233 0.0635,0.20863 0.05552,0.18414 0.07284,0.39773 0.117925,0.5987 0.006,0.0877 0.01212,0.17537 0.01812,0.26306 0.0605,0.4384 0.120977,0.87684 0.181419,1.31531 0.03076,0.13325 0.01716,0.27467 0.04537,0.39913 0.01813,0.20256 0.03628,0.40515 0.05442,0.60776 0.04346,0.19395 0.02884,0.42263 0.07257,0.61685 0.0028,0.0574 0.0059,0.11487 0.0091,0.17235 0.02141,0.0875 0.08564,0.13108 0.108855,0.20863 0.006,0.0998 0.0121,0.19957 0.01812,0.29935 0.03911,0.1768 0.132801,0.6289 0.0635,0.79825 -0.08364,0.20447 -0.265963,0.42554 -0.390055,0.5987 -0.03602,0.0503 -0.05742,0.12065 -0.108857,0.15421 l -0.09071,0.0272 c -0.09289,0.0392 -0.192486,0.0755 -0.290274,0.11792 -0.239479,0.10386 -0.472065,0.22696 -0.69848,0.3447 -0.10468,0.0544 -0.277577,0.0705 -0.3447,0.16328 -0.07511,0.10378 -0.104776,0.23331 -0.172355,0.34471 -0.07411,0.12218 -0.152666,0.25026 -0.226775,0.37191 -0.05079,0.0833 -0.07647,0.17118 -0.126999,0.254 -0.05036,0.0825 -0.09942,0.17117 -0.154212,0.25399 -0.04628,0.0699 -0.112389,0.1347 -0.136064,0.22677 -0.04102,0.15911 0.02868,0.35659 -0.0091,0.52613 -0.03283,0.14731 0.0036,0.3202 -0.03628,0.4717 -0.02896,0.10967 -0.239478,0.32909 -0.344705,0.36284 -0.08174,0.0262 -0.198564,-0.0131 -0.253993,-0.0272 -0.117107,-0.03 -0.240747,-0.0261 -0.344705,-0.0544 -0.50889,-0.13861 -0.992107,-0.26533 -1.478591,-0.42634 -0.182062,-0.0603 -0.393233,-0.0622 -0.598698,-0.10886 -0.06649,-0.003 -0.13301,-0.006 -0.199562,-0.009 -0.26807,-0.0709 -0.555082,-0.16744 -0.816423,-0.25398 -0.114295,-0.0378 -0.289913,-0.0561 -0.380981,-0.11793 -0.06613,-0.0449 -0.09307,-0.16727 -0.127,-0.24492 -0.07719,-0.17652 -0.166999,-0.37255 -0.244918,-0.55333 -0.03363,-0.0781 -0.04516,-0.16039 -0.09072,-0.22678 -0.07565,-0.11031 -0.239112,-0.17272 -0.35377,-0.24493 -0.248461,-0.15638 -0.54254,-0.28011 -0.798265,-0.43541 -0.101593,-0.0617 -0.214439,-0.0946 -0.308412,-0.16328 -0.06096,-0.0445 -0.08174,-0.13879 -0.117925,-0.20864 -0.05724,-0.11048 -0.13489,-0.23231 -0.172356,-0.35377 -0.03082,-0.1 -0.01536,-0.19902 -0.04537,-0.29028 -0.08273,-0.25163 -0.192215,-0.48394 -0.308413,-0.70755 -0.134528,-0.25889 -0.275946,-0.52385 -0.426343,-0.77104 -0.09951,-0.16346 -0.142964,-0.36339 -0.253993,-0.51706 -0.03021,-0.0272 -0.06045,-0.0544 -0.09071,-0.0816 -0.08364,-0.12128 -0.272769,-0.49247 -0.208637,-0.71662 0.0322,-0.11249 0.138789,-0.20827 0.199568,-0.29935 0.07883,-0.1181 0.150397,-0.23358 0.235849,-0.3447 0.03692,-0.048 0.110849,-0.0666 0.154207,-0.10885 0.09443,-0.092 0.183236,-0.20283 0.263062,-0.30842 0.05905,-0.0781 0.150131,-0.13806 0.208637,-0.21771 0.08998,-0.12246 0.157293,-0.2559 0.244918,-0.38099 0.139788,-0.19947 0.28475,-0.39777 0.426343,-0.59869 0.120831,-0.17145 0.263519,-0.33066 0.390062,-0.49891 0.04627,-0.0615 0.118195,-0.10961 0.16328,-0.17235 0.120013,-0.167 0.214349,-0.345 0.335631,-0.50799 0.03156,-0.0424 0.08608,-0.0754 0.117924,-0.11792 0.100967,-0.13459 0.207729,-0.25664 0.308419,-0.39006 l 0.08163,-0.0726 c 0.07139,-0.0943 0.157569,-0.16789 0.235855,-0.25399 0.02077,-0.0228 0.03794,-0.0557 0.0635,-0.0726 0.122908,-0.0813 0.358486,-0.0628 0.480762,-0.14514 z m 0.507986,1.46952 c -0.06703,0.0412 -0.228503,-0.006 -0.317488,0.0182 l -0.380992,0.1542 c -0.06966,0.0435 -0.106948,0.13244 -0.154212,0.19957 -0.100684,0.14306 -0.21362,0.28175 -0.317487,0.42634 -0.243287,0.33863 -0.512066,0.66292 -0.761973,0.99782 -0.08327,0.11159 -0.207999,0.1973 -0.290275,0.30843 -0.09062,0.12228 -0.109849,0.31096 -0.07257,0.48984 0.20537,0.0909 0.565855,-0.006 0.771044,0.0816 0.122551,0.0524 0.222333,0.14786 0.326566,0.21771 0.07557,0.0424 0.151152,0.0847 0.226775,0.12699 0.05551,0.0389 0.109849,0.10668 0.181419,0.127 0.256988,-0.003 0.514004,-0.006 0.771048,-0.009 0.07212,-0.0155 0.227052,-0.0238 0.299349,0 0.07865,0.0393 0.157261,0.0786 0.23585,0.11793 0.173625,0.0713 0.359394,0.0862 0.544267,0.14514 0.05814,0.0186 0.223241,0.0915 0.308418,0.0635 0.04092,-0.0134 0.08237,-0.0595 0.117924,-0.0816 0.119287,-0.0743 0.238029,-0.14558 0.353775,-0.21771 0.07111,-0.0442 0.171988,-0.0767 0.217706,-0.14513 0.02785,-0.0417 0.04234,-0.12137 0.05443,-0.17235 0.01896,-0.0804 -0.0263,-0.19839 0.0091,-0.26307 0.02927,-0.0536 0.11393,-0.0907 0.163277,-0.127 0.07774,-0.0571 0.141512,-0.14196 0.21771,-0.19956 0.181601,-0.13733 0.328007,-0.31848 0.507981,-0.45356 0.09851,-0.0739 0.356861,-0.1943 0.417274,-0.2812 0.04696,-0.0676 0.06577,-0.14668 0.108849,-0.2177 0.05388,-0.0888 0.115206,-0.1896 0.163281,-0.28121 0.01439,-0.0275 0.02927,-0.0846 0.0091,-0.11792 -0.02258,-0.0654 -0.07421,-0.0842 -0.117935,-0.127 -0.05515,-0.0541 -0.117376,-0.14028 -0.190492,-0.17235 -0.04129,-0.0182 -0.07665,-0.006 -0.126993,-0.0182 -0.149038,-0.0359 -0.312498,-0.0343 -0.471705,-0.0726 -0.447115,-0.10751 -0.934418,-0.12671 -1.378809,-0.23586 -0.146412,-0.036 -0.280573,-0.0264 -0.426348,-0.0635 -0.223964,-0.0569 -0.467252,-0.0648 -0.698479,-0.12699 -0.111209,-0.0299 -0.154111,-0.0878 -0.299344,-0.0907 z m 4.47207,2.08636 c -0.103234,0.08 -0.29291,0.15503 -0.417274,0.20864 -0.04452,0.0192 -0.08917,0.0195 -0.126994,0.0454 -0.100966,0.0687 -0.09426,0.25164 -0.163286,0.35378 -0.04527,0.067 -0.138421,0.0832 -0.208637,0.12699 -0.07411,0.0461 -0.142232,0.11575 -0.217706,0.16328 -0.118015,0.0743 -0.248637,0.13543 -0.371917,0.19956 -0.05651,0.0294 -0.122548,0.0365 -0.145138,0.0998 -0.05016,0.0748 -0.02811,0.22487 -0.06349,0.30842 -0.08399,0.19839 -0.291731,0.4023 -0.344706,0.60777 0.0028,0.26904 0.0059,0.53815 0.0091,0.80733 -0.0028,0.19648 -0.0059,0.39301 -0.0091,0.58962 0.0382,0.15738 0.133344,0.26043 0.181426,0.40819 0.04426,0.13616 0.0634,0.27958 0.09978,0.40821 0.01933,0.0681 0.01025,0.14587 0.04537,0.19956 0.03948,0.0603 0.136609,0.0795 0.199561,0.11793 0.103957,0.0633 0.216171,0.12853 0.317493,0.19956 0.05158,0.0362 0.08582,0.0876 0.163281,0.0998 0.09615,-0.0962 0.136158,-0.19965 0.217706,-0.30841 0.06187,-0.0825 0.204556,-0.15557 0.272136,-0.24492 0.137603,-0.18179 0.277572,-0.36376 0.399131,-0.56241 0.05239,-0.087 0.09789,-0.17801 0.136062,-0.27214 0.02449,-0.0604 0.02332,-0.11302 0.05443,-0.16328 0.14477,-0.23385 0.41228,-0.46625 0.471693,-0.77104 0.01179,-0.0606 -0.02332,-0.16591 -0.03628,-0.21771 -0.04266,-0.17036 -0.04255,-0.34742 -0.08164,-0.50799 -0.03847,-0.15792 -0.02497,-0.30442 -0.0635,-0.46262 -0.111847,-0.459 -0.138788,-0.96063 -0.244924,-1.41509 -0.0091,-0.003 -0.01812,-0.006 -0.0272,-0.009 -0.01169,-0.008 -0.02243,-0.008 -0.04537,-0.009 z m -5.714812,1.53302 c -0.04914,0.03 -0.126548,0.0122 -0.190499,0.0272 -0.168179,0.0393 -0.370918,0.0349 -0.544267,0.0726 -0.148495,0.0324 -0.327465,-0.0596 -0.399131,0.0454 -0.04256,0.054 -0.01615,0.35658 0,0.42635 0.02965,0.12808 -2.28e-4,0.24737 0.03628,0.36284 0.07039,0.22224 0.221966,0.419 0.326561,0.61684 0.187226,0.35432 0.366016,0.71335 0.544268,1.07039 0.05479,0.10967 0.126813,0.35604 0.217706,0.41728 0.04144,0.028 0.09588,0.0251 0.145137,0.0454 0.141689,0.0581 0.293176,0.098 0.444486,0.1542 0.392235,0.14587 0.790822,0.26924 1.188317,0.41728 0.26288,0.0979 0.543362,0.19249 0.807329,0.29027 0.04999,0.0185 0.243834,0.0789 0.299348,0.0454 0.09207,-0.0282 0.183688,-0.11693 0.24492,-0.18142 0.0011,-0.11775 -0.03858,-0.27586 0,-0.37192 0.01573,-0.0391 0.06821,-0.058 0.09072,-0.0907 0.06567,-0.0953 0.141052,-0.17172 0.172344,-0.29935 0.04729,-0.19285 -0.04447,-0.38544 -0.08164,-0.49891 -0.06903,-0.21073 -0.103049,-0.44203 -0.154206,-0.66219 -0.05016,-0.033 -0.257261,-0.13707 -0.281206,-0.17235 -0.04106,-0.0607 -0.04601,-0.14514 -0.07257,-0.21771 -0.05805,-0.15839 -0.119188,-0.32801 -0.181418,-0.48077 -0.03321,-0.0814 -0.04255,-0.16964 -0.09071,-0.23585 -0.05914,-0.0814 -0.167904,-0.077 -0.281206,-0.10886 -0.06596,-0.0185 -0.117653,-0.0609 -0.17235,-0.0816 -0.115656,-0.0437 -0.22551,-0.0299 -0.353774,-0.0635 -0.311958,-0.0818 -0.607408,-0.20564 -0.879906,-0.31749 -0.139601,-0.0573 -0.272949,-0.0748 -0.426342,-0.11792 -0.136159,-0.0383 -0.236843,-0.0884 -0.408194,-0.0907 z m 6.594705,3.0479 h 0.0635 c 0.0057,0.0158 0.0016,0.009 0.0091,0.0182 -0.03756,0.14914 -0.213715,0.31006 -0.299343,0.42635 -0.226781,0.30805 -0.46653,0.60658 -0.689411,0.91619 -0.07293,0.10123 -0.146497,0.20037 -0.217705,0.29934 -0.03474,0.0482 -0.04575,0.10613 -0.117925,0.11792 -0.0032,-0.009 -0.006,-0.0182 -0.0091,-0.0272 -0.0102,-0.0157 -0.01578,-0.0702 -0.0091,-0.0998 0.02433,-0.10768 -0.01933,-0.2627 0.0091,-0.38099 0.0313,-0.13035 0.110211,-0.22533 0.172351,-0.32656 0.08553,-0.13942 0.152484,-0.28947 0.235849,-0.42635 0.05106,-0.0838 0.07511,-0.23602 0.154206,-0.29027 0.05497,-0.0376 0.134798,-0.0246 0.208638,-0.0454 0.119831,-0.0337 0.238935,-0.0823 0.344703,-0.127 0.04978,-0.0211 0.106131,-0.0234 0.145133,-0.0544 z m -7.810239,0.64405 c 0.106311,0.003 0.189133,0.0511 0.272131,0.0816 0.1406,0.0519 0.312955,0.11711 0.426343,0.19956 0.122552,0.0892 0.182694,0.25672 0.263062,0.39007 0.05742,0.0952 0.143416,0.22278 0.145142,0.36284 -0.02194,0.0118 -0.02566,0.0164 -0.0635,0.0182 -0.02991,-0.0227 -0.06903,-0.0216 -0.108856,-0.0363 -0.108946,-0.0401 -0.230223,-0.0838 -0.335631,-0.12699 -0.02645,-0.0108 -0.04962,-0.004 -0.07257,-0.0182 -0.194664,-0.11494 -0.292814,-0.34824 -0.399129,-0.55335 -0.04038,-0.078 -0.170172,-0.22922 -0.126995,-0.31748 z"
       id="path1-70"
       style="fill:#ffffff;fill-opacity:1;fill-rule:evenodd;stroke:none;stroke-width:0.00903193;stroke-dasharray:none"
       sodipodi:nodetypes="ccccccssccccccccccccccccccccccsccccccccccccccccccccccccccccccccccccccccccccccccccccccccccccccccccccscccccccssccscsccccccccccccccccccccccccccccsssccccccccccccccccscccccccccccsscccccccccccccccccccccccccccc" />
  </g>
</svg>
