<?xml version="1.0" encoding="UTF-8" standalone="no"?>
<!-- Created with Inkscape (http://www.inkscape.org/) -->

<svg
   width="10.467021mm"
   height="10.467021mm"
   viewBox="0 0 10.467021 10.467021"
   version="1.1"
   id="svg1"
   inkscape:version="1.4.3 (0d15f75, 2025-12-25)"
   sodipodi:docname="icon-discord.svg"
   xmlns:inkscape="http://www.inkscape.org/namespaces/inkscape"
   xmlns:sodipodi="http://sodipodi.sourceforge.net/DTD/sodipodi-0.dtd"
   xmlns="http://www.w3.org/2000/svg"
   xmlns:svg="http://www.w3.org/2000/svg">
  <sodipodi:namedview
     id="namedview1"
     pagecolor="#505050"
     bordercolor="#eeeeee"
     borderopacity="1"
     inkscape:showpageshadow="0"
     inkscape:pageopacity="0"
     inkscape:pagecheckerboard="0"
     inkscape:deskcolor="#505050"
     inkscape:document-units="mm"
     inkscape:zoom="9.2149832"
     inkscape:cx="4.5577945"
     inkscape:cy="3.906681"
     inkscape:window-width="1738"
     inkscape:window-height="1224"
     inkscape:window-x="453"
     inkscape:window-y="58"
     inkscape:window-maximized="0"
     inkscape:current-layer="layer1" />
  <defs
     id="defs1" />
  <g
     inkscape:label="Layer 1"
     inkscape:groupmode="layer"
     id="layer1"
     transform="translate(-99.747926,-143.40417)">
    <g
       style="fill:#ffffff;fill-opacity:1"
       id="g28"
       transform="matrix(0.41910283,0,0,0.41910283,101.62866,145.28766)">
      <path
         d="M 13.545,2.907 A 13.2,13.2 0 0 0 10.288,1.896 0.05,0.05 0 0 0 10.236,1.921 C 10.095,2.171 9.939,2.498 9.83,2.754 a 12.2,12.2 0 0 0 -3.658,0 A 8,8 0 0 0 5.76,1.921 0.05,0.05 0 0 0 5.708,1.896 C 4.583,2.09 3.488,2.43 2.451,2.907 A 0.04,0.04 0 0 0 2.43,2.925 C 0.356,6.024 -0.213,9.047 0.066,12.032 q 0.003,0.022 0.021,0.037 a 13.3,13.3 0 0 0 3.995,2.02 0.05,0.05 0 0 0 0.056,-0.019 Q 4.601,13.44 4.956,12.741 A 0.05,0.05 0 0 0 4.946,12.682 L 4.928,12.671 A 9,9 0 0 1 3.68,12.076 0.05,0.05 0 0 1 3.66,12.01 l 0.015,-0.019 q 0.127,-0.095 0.248,-0.195 a 0.05,0.05 0 0 1 0.051,-0.007 c 2.619,1.196 5.454,1.196 8.041,0 a 0.05,0.05 0 0 1 0.053,0.007 q 0.121,0.1 0.248,0.195 a 0.05,0.05 0 0 1 -0.004,0.085 8,8 0 0 1 -1.249,0.594 0.05,0.05 0 0 0 -0.03,0.03 0.05,0.05 0 0 0 0.003,0.041 c 0.24,0.465 0.515,0.909 0.817,1.329 a 0.05,0.05 0 0 0 0.056,0.019 13.2,13.2 0 0 0 4.001,-2.02 0.05,0.05 0 0 0 0.021,-0.037 C 16.265,8.581 15.372,5.583 13.565,2.926 a 0.03,0.03 0 0 0 -0.02,-0.019 m -8.198,7.307 c -0.789,0 -1.438,-0.724 -1.438,-1.612 0,-0.888 0.637,-1.613 1.438,-1.613 0.807,0 1.45,0.73 1.438,1.613 0,0.888 -0.637,1.612 -1.438,1.612 m 5.316,0 c -0.788,0 -1.438,-0.724 -1.438,-1.612 0,-0.888 0.637,-1.613 1.438,-1.613 0.807,0 1.451,0.73 1.438,1.613 0,0.888 -0.631,1.612 -1.438,1.612"
         id="path1-3"
         style="fill:#ffffff;fill-opacity:1" />
    </g>
  </g>
</svg>
