<?xml version="1.0" encoding="UTF-8" standalone="no"?>
<!-- Created with Inkscape (http://www.inkscape.org/) -->

<svg
   width="12.531025mm"
   height="12.79221mm"
   viewBox="0 0 12.531025 12.79221"
   version="1.1"
   id="svg1"
   inkscape:version="1.4.3 (0d15f75, 2025-12-25)"
   sodipodi:docname="mysticore-icon.svg"
   xmlns:inkscape="http://www.inkscape.org/namespaces/inkscape"
   xmlns:sodipodi="http://sodipodi.sourceforge.net/DTD/sodipodi-0.dtd"
   xmlns="http://www.w3.org/2000/svg"
   xmlns:svg="http://www.w3.org/2000/svg">
  <sodipodi:namedview
     id="namedview1"
     pagecolor="#505050"
     bordercolor="#eeeeee"
     borderopacity="1"
     inkscape:showpageshadow="0"
     inkscape:pageopacity="0"
     inkscape:pagecheckerboard="0"
     inkscape:deskcolor="#505050"
     inkscape:document-units="mm"
     inkscape:zoom="9.2149832"
     inkscape:cx="44.384237"
     inkscape:cy="35.756983"
     inkscape:window-width="3840"
     inkscape:window-height="1511"
     inkscape:window-x="-9"
     inkscape:window-y="-9"
     inkscape:window-maximized="1"
     inkscape:current-layer="layer1" />
  <defs
     id="defs1" />
  <g
     inkscape:label="Layer 1"
     inkscape:groupmode="layer"
     id="layer1"
     transform="translate(-39.687478,-109.00833)">
    <path
       class="cls-1"
       d="m 44.244375,109.00833 c 0.215178,-2.4e-4 0.441841,0.0963 0.632258,0.14753 0.0805,0.0216 0.142672,0.0103 0.221288,0.0316 0.295046,0.08 0.628665,0.1133 0.927298,0.18968 0.251108,0.0642 0.51571,0.0677 0.758704,0.12645 l 0.273976,0.0316 c 0.20432,0.0498 0.42888,0.0517 0.642786,0.10537 0.588099,0.14746 1.222252,0.18862 1.80192,0.3372 0.312857,0.0802 0.628036,0.0961 0.93784,0.1686 0.142474,0.0333 0.285461,0.007 0.410969,0.0527 0.09589,0.035 0.163853,0.10818 0.242358,0.15806 0.07724,0.0491 0.17113,0.0837 0.221289,0.15807 0.04616,0.0683 0.04708,0.15373 0.07376,0.24236 0.06449,0.21391 0.08461,0.46202 0.136988,0.69548 0.007,0.10186 0.01408,0.20372 0.02105,0.30559 0.07028,0.50927 0.140534,1.01859 0.210747,1.52794 0.03573,0.15479 0.01994,0.31907 0.05271,0.46365 0.02106,0.2353 0.04214,0.47064 0.06322,0.70601 0.05049,0.2253 0.0335,0.49095 0.0843,0.71656 0.0032,0.0667 0.0068,0.13344 0.01056,0.20021 0.02487,0.10169 0.09948,0.15227 0.126452,0.24236 0.007,0.11591 0.01405,0.23183 0.02105,0.34774 0.04543,0.20538 0.154269,0.73057 0.07376,0.9273 -0.09716,0.23752 -0.308957,0.49432 -0.45311,0.69548 -0.04184,0.0584 -0.0667,0.14015 -0.126454,0.17914 l -0.105375,0.0316 c -0.107902,0.0455 -0.223603,0.0877 -0.337199,0.13699 -0.278192,0.12065 -0.548377,0.26365 -0.811393,0.40042 -0.121602,0.0632 -0.322449,0.0819 -0.400423,0.18968 -0.08725,0.12055 -0.121713,0.27102 -0.200217,0.40043 -0.08609,0.14193 -0.177345,0.29072 -0.263435,0.43203 -0.059,0.0968 -0.08883,0.19885 -0.147529,0.29506 -0.0585,0.0959 -0.115491,0.19884 -0.179141,0.29505 -0.05376,0.0812 -0.130557,0.15648 -0.158059,0.26343 -0.04765,0.18483 0.03332,0.41423 -0.01056,0.61118 -0.03814,0.17113 0.0042,0.37197 -0.04215,0.54795 -0.03364,0.1274 -0.278191,0.3823 -0.400428,0.4215 -0.09495,0.0304 -0.230663,-0.0152 -0.295053,-0.0316 -0.136038,-0.0348 -0.279665,-0.0303 -0.400428,-0.0632 -0.591155,-0.16102 -1.152487,-0.30823 -1.717614,-0.49526 -0.211494,-0.07 -0.456802,-0.0722 -0.695481,-0.12646 -0.07724,-0.004 -0.154512,-0.007 -0.231823,-0.0105 -0.311404,-0.0823 -0.644814,-0.19451 -0.948402,-0.29504 -0.132772,-0.0439 -0.336779,-0.0652 -0.442569,-0.13699 -0.07682,-0.0521 -0.108117,-0.19431 -0.14753,-0.28452 -0.08967,-0.20505 -0.193996,-0.43277 -0.284511,-0.64278 -0.03907,-0.0907 -0.05246,-0.18631 -0.105382,-0.26344 -0.08788,-0.12814 -0.277765,-0.20064 -0.410958,-0.28452 -0.288627,-0.18166 -0.630245,-0.32539 -0.92731,-0.5058 -0.118016,-0.0717 -0.249104,-0.1099 -0.358269,-0.18967 -0.07081,-0.0517 -0.09495,-0.16123 -0.136988,-0.24237 -0.06649,-0.12834 -0.156695,-0.26986 -0.200218,-0.41096 -0.0358,-0.11612 -0.01784,-0.23119 -0.05271,-0.3372 -0.0961,-0.29231 -0.223288,-0.56218 -0.35827,-0.82193 -0.156275,-0.30074 -0.320554,-0.60854 -0.495264,-0.89569 -0.115596,-0.18988 -0.166075,-0.42213 -0.295052,-0.60064 -0.0351,-0.0316 -0.07022,-0.0632 -0.105376,-0.0948 -0.09716,-0.14089 -0.316864,-0.57209 -0.242365,-0.83247 0.0374,-0.13067 0.161225,-0.24194 0.23183,-0.34774 0.09157,-0.1372 0.174709,-0.27134 0.273975,-0.40042 0.04289,-0.0558 0.128768,-0.0774 0.179135,-0.12645 0.109697,-0.10686 0.212857,-0.23562 0.305588,-0.35828 0.0686,-0.0907 0.174401,-0.16038 0.242364,-0.2529 0.104531,-0.14226 0.182721,-0.29727 0.284511,-0.44258 0.162385,-0.23172 0.330781,-0.46207 0.495264,-0.69548 0.140364,-0.19916 0.306118,-0.38411 0.453117,-0.57956 0.05375,-0.0714 0.137302,-0.12732 0.189676,-0.20021 0.139413,-0.194 0.248999,-0.40077 0.389887,-0.59011 0.03666,-0.0493 0.100001,-0.0876 0.136988,-0.13698 0.117288,-0.15635 0.241309,-0.29813 0.358276,-0.45312 l 0.09483,-0.0843 c 0.08293,-0.10959 0.183041,-0.19503 0.273982,-0.29505 0.02413,-0.0265 0.04407,-0.0647 0.07376,-0.0843 0.142777,-0.0944 0.416438,-0.0729 0.558481,-0.1686 z m 0.590105,1.70708 c -0.07787,0.0479 -0.265441,-0.007 -0.368811,0.0211 l -0.442582,0.17913 c -0.08092,0.0505 -0.124237,0.15385 -0.179141,0.23183 -0.11696,0.16619 -0.248153,0.3273 -0.368811,0.49526 -0.282616,0.39337 -0.594844,0.77009 -0.885151,1.15913 -0.09673,0.12962 -0.241623,0.22919 -0.337199,0.35828 -0.105271,0.14205 -0.127607,0.36123 -0.0843,0.56903 0.238569,0.10558 0.657328,-0.007 0.895687,0.0948 0.142363,0.0609 0.258275,0.17177 0.379358,0.25291 0.08778,0.0492 0.175586,0.0984 0.263434,0.14752 0.06449,0.0452 0.127607,0.12392 0.210747,0.14753 0.298531,-0.004 0.597095,-0.007 0.895692,-0.0105 0.08378,-0.018 0.263756,-0.0276 0.347741,0 0.09136,0.0456 0.182683,0.0913 0.273976,0.13699 0.201693,0.0828 0.417493,0.1001 0.632251,0.1686 0.06754,0.0216 0.25933,0.10632 0.358276,0.0738 0.04753,-0.0156 0.09568,-0.0691 0.136987,-0.0948 0.13857,-0.0863 0.276508,-0.16912 0.410965,-0.2529 0.08261,-0.0514 0.199791,-0.0891 0.252899,-0.1686 0.03235,-0.0484 0.04919,-0.14099 0.06323,-0.20021 0.02203,-0.0934 -0.03055,-0.23046 0.01056,-0.30559 0.034,-0.0623 0.132347,-0.10538 0.189671,-0.14753 0.09031,-0.0663 0.164389,-0.16491 0.252905,-0.23182 0.210957,-0.15954 0.381031,-0.36997 0.590099,-0.52688 0.114436,-0.0859 0.414549,-0.22571 0.484728,-0.32666 0.05455,-0.0785 0.0764,-0.17039 0.126446,-0.2529 0.06259,-0.10316 0.133829,-0.22024 0.189676,-0.32667 0.01672,-0.0319 0.034,-0.0983 0.01056,-0.13698 -0.02623,-0.076 -0.08621,-0.0978 -0.136999,-0.14753 -0.06407,-0.0628 -0.136351,-0.16295 -0.221286,-0.20021 -0.04796,-0.0211 -0.08904,-0.007 -0.147523,-0.0211 -0.17313,-0.0417 -0.363015,-0.0398 -0.547958,-0.0843 -0.519394,-0.12488 -1.085473,-0.14719 -1.601702,-0.27398 -0.170081,-0.0418 -0.32593,-0.0307 -0.49527,-0.0738 -0.260169,-0.0661 -0.542786,-0.0753 -0.811392,-0.14752 -0.129187,-0.0348 -0.179024,-0.10201 -0.347735,-0.10538 z m 5.195007,2.42363 c -0.119923,0.0929 -0.340261,0.18009 -0.484729,0.24237 -0.05172,0.0223 -0.103586,0.0227 -0.147523,0.0527 -0.117288,0.0798 -0.109493,0.29232 -0.189682,0.41097 -0.05259,0.0778 -0.160798,0.0967 -0.242365,0.14752 -0.08609,0.0536 -0.165224,0.13446 -0.252899,0.18968 -0.137093,0.0863 -0.288831,0.15732 -0.43204,0.23182 -0.06565,0.0341 -0.142358,0.0424 -0.1686,0.11592 -0.05827,0.0869 -0.03265,0.26122 -0.07376,0.35827 -0.09757,0.23046 -0.338891,0.46734 -0.400429,0.70602 0.0032,0.31254 0.0068,0.62515 0.01056,0.93784 -0.0032,0.22824 -0.0068,0.45655 -0.01056,0.68494 0.04437,0.18282 0.154899,0.30253 0.210754,0.47418 0.05141,0.15817 0.07365,0.32477 0.11591,0.47419 0.02246,0.0791 0.01191,0.16945 0.05271,0.23183 0.04586,0.0701 0.158693,0.0924 0.231822,0.13699 0.120762,0.0735 0.251116,0.14931 0.368817,0.23182 0.05992,0.0421 0.09969,0.10179 0.189676,0.11591 0.111696,-0.1118 0.158169,-0.23193 0.2529,-0.35827 0.07187,-0.0958 0.237624,-0.18072 0.316128,-0.28451 0.159848,-0.21118 0.322443,-0.42256 0.463653,-0.65333 0.06086,-0.10108 0.113714,-0.20678 0.158057,-0.31613 0.02845,-0.0702 0.02709,-0.13129 0.06323,-0.18967 0.168174,-0.27166 0.478928,-0.54163 0.547946,-0.89569 0.0137,-0.0704 -0.02709,-0.19273 -0.04215,-0.2529 -0.04956,-0.1979 -0.04943,-0.40359 -0.09484,-0.59011 -0.04469,-0.18345 -0.02901,-0.35363 -0.07377,-0.53741 -0.129928,-0.5332 -0.161224,-1.11592 -0.284517,-1.64385 -0.01056,-0.003 -0.02105,-0.007 -0.0316,-0.0105 -0.01358,-0.009 -0.02605,-0.009 -0.05271,-0.0105 z m -6.638645,1.78084 c -0.05709,0.0349 -0.147005,0.0142 -0.221294,0.0316 -0.195367,0.0456 -0.43088,0.0405 -0.632252,0.0843 -0.1725,0.0376 -0.380401,-0.0692 -0.463652,0.0527 -0.04944,0.0627 -0.01876,0.41423 0,0.49527 0.03444,0.14879 -2.65e-4,0.28736 0.04215,0.4215 0.08177,0.25817 0.257849,0.48673 0.379352,0.71655 0.217492,0.4116 0.425184,0.82867 0.632252,1.24343 0.06365,0.1274 0.147313,0.4136 0.252899,0.48473 0.04814,0.0325 0.111381,0.0292 0.1686,0.0527 0.164594,0.0675 0.340569,0.1138 0.51634,0.17913 0.455641,0.16945 0.918663,0.31276 1.380415,0.48473 0.305376,0.1137 0.6312,0.22361 0.937838,0.3372 0.05807,0.0215 0.283252,0.0917 0.34774,0.0527 0.106957,-0.0328 0.213382,-0.13583 0.284512,-0.21075 0.0013,-0.13678 -0.04481,-0.32045 0,-0.43204 0.01827,-0.0454 0.07924,-0.0674 0.105382,-0.10538 0.07629,-0.11075 0.163854,-0.19947 0.200205,-0.34774 0.05493,-0.22402 -0.05166,-0.44774 -0.09484,-0.57956 -0.08019,-0.24479 -0.119707,-0.51349 -0.179134,-0.76924 -0.05827,-0.0383 -0.298849,-0.15922 -0.326665,-0.20021 -0.0477,-0.0705 -0.05345,-0.1686 -0.0843,-0.2529 -0.06744,-0.18399 -0.138456,-0.38104 -0.210746,-0.55849 -0.03858,-0.0945 -0.04943,-0.19706 -0.105375,-0.27398 -0.0687,-0.0945 -0.195047,-0.0895 -0.326665,-0.12645 -0.07662,-0.0215 -0.136673,-0.0708 -0.200212,-0.0948 -0.134352,-0.0508 -0.261965,-0.0347 -0.410963,-0.0738 -0.362388,-0.095 -0.705599,-0.23888 -1.022148,-0.36881 -0.162168,-0.0666 -0.317073,-0.0869 -0.495263,-0.13698 -0.15817,-0.0445 -0.27513,-0.10264 -0.474181,-0.10538 z m 7.660778,3.54061 h 0.07376 c 0.0066,0.0184 0.0019,0.0102 0.01056,0.0211 -0.04363,0.17324 -0.248264,0.36018 -0.347734,0.49527 -0.263441,0.35785 -0.541947,0.70464 -0.800858,1.06429 -0.08472,0.1176 -0.170179,0.23277 -0.252898,0.34774 -0.04036,0.056 -0.05314,0.12328 -0.136989,0.13698 -0.0037,-0.0105 -0.007,-0.0211 -0.01056,-0.0316 -0.01185,-0.0182 -0.01833,-0.0815 -0.01056,-0.11591 0.02826,-0.12509 -0.02246,-0.30517 0.01056,-0.44258 0.03636,-0.15142 0.128027,-0.26175 0.200212,-0.37935 0.09936,-0.16196 0.177134,-0.33626 0.273976,-0.49527 0.05931,-0.0974 0.08725,-0.27418 0.179134,-0.3372 0.06386,-0.0437 0.156589,-0.0286 0.242365,-0.0527 0.139203,-0.0391 0.277561,-0.0956 0.400427,-0.14753 0.05783,-0.0245 0.123287,-0.0272 0.168594,-0.0632 z m -9.072811,0.74817 c 0.123497,0.003 0.219708,0.0593 0.316123,0.0948 0.163329,0.0603 0.363546,0.13604 0.495264,0.23182 0.142363,0.10359 0.212227,0.29822 0.305587,0.45312 0.0667,0.11064 0.1666,0.2588 0.168606,0.4215 -0.02549,0.0137 -0.02981,0.019 -0.07376,0.0211 -0.03475,-0.0264 -0.08019,-0.0251 -0.126453,-0.0422 -0.126558,-0.0466 -0.26744,-0.0973 -0.389888,-0.14752 -0.03073,-0.0126 -0.05764,-0.005 -0.0843,-0.0211 -0.226132,-0.13352 -0.340149,-0.40454 -0.463651,-0.6428 -0.04691,-0.0906 -0.197681,-0.26628 -0.147524,-0.36881 z"
       id="path1-70"
       style="fill:#ffffff;fill-opacity:1;fill-rule:evenodd;stroke:none;stroke-width:0.010492;stroke-dasharray:none"
       sodipodi:nodetypes="ccccccssccccccccccccccccccccccsccccccccccccccccccccccccccccccccccccccccccccccccccccccccccccccccccccscccccccssccscsccccccccccccccccccccccccccccsssccccccccccccccccscccccccccccsscccccccccccccccccccccccccccc" />
  </g>
</svg>
