<?xml version="1.0" encoding="UTF-8" standalone="no"?>
<!-- Created with Inkscape (http://www.inkscape.org/) -->

<svg
   width="10.467mm"
   height="10.467mm"
   viewBox="0 0 10.467 10.467"
   version="1.1"
   id="svg1"
   inkscape:version="1.4.3 (0d15f75, 2025-12-25)"
   sodipodi:docname="icon-steam.svg"
   xmlns:inkscape="http://www.inkscape.org/namespaces/inkscape"
   xmlns:sodipodi="http://sodipodi.sourceforge.net/DTD/sodipodi-0.dtd"
   xmlns="http://www.w3.org/2000/svg"
   xmlns:svg="http://www.w3.org/2000/svg">
  <sodipodi:namedview
     id="namedview1"
     pagecolor="#505050"
     bordercolor="#eeeeee"
     borderopacity="1"
     inkscape:showpageshadow="0"
     inkscape:pageopacity="0"
     inkscape:pagecheckerboard="0"
     inkscape:deskcolor="#505050"
     inkscape:document-units="mm"
     inkscape:zoom="9.214983"
     inkscape:cx="22.897492"
     inkscape:cy="26.858433"
     inkscape:window-width="3840"
     inkscape:window-height="1511"
     inkscape:window-x="-9"
     inkscape:window-y="-9"
     inkscape:window-maximized="1"
     inkscape:current-layer="g24-1-9-4" />
  <defs
     id="defs1" />
  <g
     inkscape:label="Layer 1"
     inkscape:groupmode="layer"
     id="layer1"
     transform="translate(-133.08542,-74.083324)">
    <g
       style="display:inline;fill:#ffffff;fill-opacity:1"
       id="g24-1-9-4"
       transform="matrix(0.46624195,0,0,0.46624195,120.90496,75.708705)">
      <path
         id="path2-9-4-8-9"
         style="display:inline;fill:#e1fea5;fill-opacity:1"
         d="m 34.217551,12.421728 a 1.715,1.715 0 0 0 1.318,-3.1649996 1.7,1.7 0 0 0 -1.263,-0.02 l 1.023,0.424 a 1.2619231,1.2619231 0 1 1 -0.97,2.3299996 l -0.99,-0.41 a 1.7,1.7 0 0 0 0.882,0.84 z m 3.726,-6.687 a 2.03,2.03 0 0 0 2.027,2.029 2.03,2.03 0 0 0 2.027,-2.029 2.03,2.03 0 0 0 -2.027,-2.027 2.03,2.03 0 0 0 -2.027,2.027 m 2.03,-1.527 a 1.5240003,1.5240003 0 1 1 -0.002,3.048 1.5240003,1.5240003 0 0 1 0.002,-3.048 m -10.295,5.864 a 8.01,8.01 0 0 0 7.661,5.667 c 4.424,0 8.01,-3.582 8.01,-8 0,-4.418 -3.586,-7.99999998 -8.009,-7.99999998 a 8.006,8.006 0 0 0 -7.991,7.46799998 l 0.003,0.006 4.304,1.7690004 a 2.2,2.2 0 0 1 1.313,-0.363 l 1.96,-2.8440004 -10e-4,-0.04 a 3.046,3.046 0 0 1 3.042,-3.043 3.046,3.046 0 0 1 3.042,3.043 3.047,3.047 0 0 1 -3.111,3.0440004 l -2.804,1.9999996 a 2.223,2.223 0 0 1 -3.075,2.11 2.22,2.22 0 0 1 -1.312,-1.568 l -3.031,-1.249 z M 47.096517,7.7387374 a 9.7469031,9.7469031 0 0 1 -9.746903,9.7468926 9.7469031,9.7469031 0 0 1 -9.746903,-9.7468926 9.7469031,9.7469031 0 0 1 9.746903,-9.7469136 9.7469031,9.7469031 0 0 1 9.746903,9.7469136 z" />
    </g>
  </g>
</svg>
