<?xml version="1.0" encoding="UTF-8" standalone="no"?>
<!-- Created with Inkscape (http://www.inkscape.org/) -->

<svg
   width="126.83461mm"
   height="37.044662mm"
   viewBox="0 0 126.83461 37.044663"
   version="1.1"
   id="svg1"
   inkscape:version="1.4.3 (0d15f75, 2025-12-25)"
   sodipodi:docname="mysticore-logo.svg"
   xmlns:inkscape="http://www.inkscape.org/namespaces/inkscape"
   xmlns:sodipodi="http://sodipodi.sourceforge.net/DTD/sodipodi-0.dtd"
   xmlns="http://www.w3.org/2000/svg"
   xmlns:svg="http://www.w3.org/2000/svg">
  <sodipodi:namedview
     id="namedview1"
     pagecolor="#505050"
     bordercolor="#eeeeee"
     borderopacity="1"
     inkscape:showpageshadow="0"
     inkscape:pageopacity="0"
     inkscape:pagecheckerboard="0"
     inkscape:deskcolor="#505050"
     inkscape:document-units="mm"
     inkscape:zoom="2.3037458"
     inkscape:cx="191.42737"
     inkscape:cy="101.79074"
     inkscape:window-width="3840"
     inkscape:window-height="1511"
     inkscape:window-x="-9"
     inkscape:window-y="-9"
     inkscape:window-maximized="1"
     inkscape:current-layer="layer1" />
  <defs
     id="defs1" />
  <g
     inkscape:label="Layer 1"
     inkscape:groupmode="layer"
     id="layer1"
     transform="translate(-76.199997,-97.366666)">
    <path
       class="cls-1"
       d="m 95.67428,97.377995 c 0.29435,-0.0026 0.80435,-0.06199 0.92198,0.11952 0.0432,0.0667 0.0133,0.142532 0.0341,0.239031 0.0632,0.291367 0.0278,0.673787 0.0854,0.939064 0.18508,0.122553 0.56173,0.08602 0.83662,0.05122 0.0266,-0.0408 0.0499,-0.04992 0.0683,-0.102445 0.0584,-0.08513 0.034,-0.28899 0.0341,-0.426847 4.3e-4,-0.244001 0.0198,-0.540299 0.0683,-0.734173 0.20079,-0.120441 1.00104,-0.11646 1.29762,-0.05122 0.15024,0.03302 0.24125,-0.02796 0.29025,0.102441 0.0874,0.116106 0,0.778263 0,0.990284 -2e-4,0.649318 0,1.244018 0,1.91227 0,0.30704 0.0546,0.69748 -0.0171,0.97321 -0.061,0.23453 -0.25594,0.18042 -0.49514,0.23903 -0.28992,0.071 -0.63379,0.0944 -0.92199,0.17074 -0.14411,0.0382 -0.31211,0.0239 -0.37563,0.13659 -0.0541,0.0961 -0.023,0.22039 -0.0512,0.34148 -0.0483,0.20792 -0.055,0.47018 -0.10244,0.68295 q -0.008,0.17074 -0.0171,0.34148 c -0.054,0.24735 -0.0104,0.53465 -0.0683,0.80247 -0.13864,0.64169 -0.0901,1.32853 0.0512,1.92935 q 0.0341,0.29879 0.0683,0.59758 c 0.0606,0.25746 0.0543,0.54199 0.11952,0.81954 0.0478,0.20318 0.0914,0.44819 0.0683,0.66588 -0.27489,0.17348 -0.59605,0.36095 -0.90492,0.49515 -0.098,0.0425 -0.18934,0.0427 -0.29025,0.0854 -0.21991,0.0929 -0.44512,0.24484 -0.66588,0.34148 -0.24109,0.10551 -0.58171,0.19447 -0.78539,0.34147 -0.17552,0.12669 -0.28753,0.52229 -0.39271,0.73418 -0.29981,0.60373 -0.59519,1.21139 -0.93906,1.77568 -0.18627,0.30562 -0.47567,0.49258 -0.68295,0.76832 -0.48251,0.64215 -1.00582,1.23563 -1.48542,1.87812 -0.13233,0.17723 -0.31211,0.33448 -0.44393,0.51222 -0.42172,0.56873 -0.89091,1.08846 -1.31468,1.65616 -0.13232,0.17723 -0.31211,0.33448 -0.44392,0.51222 -0.19294,0.2602 -0.38877,0.66861 -0.7854,0.7171 -0.5426,-0.48114 -0.93906,-1.09153 -1.34883,-1.70739 -0.35604,-0.53509 -0.73626,-1.07018 -1.09273,-1.60494 -0.17806,-0.2672 -0.32752,-0.54004 -0.51221,-0.80247 -0.064,-0.091 -0.17322,-0.15212 -0.23904,-0.23903 -0.27635,-0.36504 -0.63514,-0.68347 -0.95613,-1.00736 -0.1902,-0.19191 -0.36575,-0.41506 -0.52929,-0.63173 -0.0965,-0.12788 -0.24481,-0.23033 -0.34148,-0.35855 -0.1161,-0.15401 -0.25694,-0.42189 -0.49514,-0.44392 -0.14987,0.27352 -0.16037,0.6331 -0.25611,0.97321 -0.1748,0.62097 -0.21566,1.33944 -0.37562,1.98056 -0.0312,0.12516 -0.007,0.30699 -0.0341,0.42685 v 0.42684 c -0.001,0.19362 0.007,0.49771 -0.0341,0.68296 -0.0381,0.17057 0.0163,0.39679 -0.0171,0.54636 v 0.44392 c -10e-4,0.19362 0.007,0.49771 -0.0341,0.68295 -0.0381,0.17058 0.0163,0.3968 -0.0171,0.54637 -0.0444,0.19839 0.0603,0.48626 -0.0341,0.63173 -0.0427,0.12566 -0.17042,0.1552 -0.27318,0.22196 -0.3011,0.19567 -0.48772,0.31638 -0.99029,0.18781 q -0.56343,-0.1196 -1.12687,-0.23904 c -0.53738,-0.1762 -1.01805,-0.3915 -1.58787,-0.52928 -0.0968,-0.16904 -0.047,-0.72325 0,-0.93907 v -0.23903 q 0.12806,-1.75843 0.25611,-3.51721 0.0341,-0.64027 0.0683,-1.28054 c -0.0474,-0.21393 -0.18134,-0.59417 -0.11952,-0.87077 0.0931,-0.41626 0.0933,-0.89825 0.18781,-1.31468 q 0.0171,-0.20489 0.0341,-0.40977 c 0.0767,-0.33499 0.0564,-0.70276 0.13659,-1.05858 0.22879,-1.01538 0.27342,-2.95229 0.0341,-3.99528 -0.0522,-0.22744 -0.0382,-0.45826 -0.0854,-0.66588 -0.10244,-0.45062 -0.0878,-0.95119 -0.18781,-1.38298 -0.36046,-0.22572 -1.11905,-0.0655 -1.60494,-0.17074 -0.24052,-0.0521 -0.48603,0.0526 -0.56344,-0.15367 -0.10449,-0.12122 -0.0683,-0.76528 -0.0683,-1.00735 q -0.009,-1.01581 -0.0171,-2.031789 c 0,-0.320322 -0.0435,-0.751248 0.0512,-0.990284 0.22632,-0.128055 1.08692,-0.223378 1.40006,-0.204886 0.19191,0.267326 0.0454,0.718551 0.11951,1.07565 0.22007,0.12647 1.16444,0.05887 1.41714,0 0.16861,-0.274356 0.0292,-0.777044 0.15366,-1.092724 0.0486,-0.03073 0.0952,-0.08382 0.15366,-0.102441 l 1.60494,-0.102445 c 0.13916,-0.0017 0.51299,-0.06271 0.61466,0 0.05,0.01616 0.06,0.03012 0.0854,0.06829 0.0623,0.08366 0.007,0.230889 0.0341,0.358551 0.0463,0.216071 0.01,0.553191 0.0512,0.751249 0.1746,0.09959 1.12659,0.138297 1.40006,0.08537 0.15137,-0.274396 0.0888,-0.839657 0.17073,-1.16102 0.14042,-0.08465 0.32441,-0.05293 0.52929,-0.05123 0.35231,0.003 0.72564,0.03099 1.04151,0.102445 0.17219,0.03898 0.40996,-0.01992 0.47807,0.119516 0.0363,0.04214 0.0538,0.18269 0.0341,0.273181 -0.0554,0.255 -0.0248,0.53303 -0.0512,0.819548 -0.0567,0.616365 -0.0338,1.288529 -0.0683,1.912269 -0.0246,0.44475 0.0345,0.94224 -0.0512,1.31468 -0.37734,0.23245 -1.18413,0.0999 -1.67324,0.20489 -0.16449,0.25975 -0.10245,0.83445 -0.10245,1.24639 0,0.16562 -0.0127,0.37477 0.0171,0.51222 0.0311,0.14377 -0.01,0.33847 0.0171,0.46099 v 0.29026 c 0.002,0.24245 -0.0174,0.61933 0.0341,0.85369 q 0.009,0.11098 0.0171,0.22196 c 0.22633,0.55714 0.6855,0.96546 1.02443,1.41713 0.64951,0.86547 1.40957,1.64865 2.16838,2.40741 0.37563,0.37562 0.76833,0.73417 1.14395,1.1098 0.12918,0.12925 0.26294,0.37904 0.49514,0.3927 0.0345,-0.0333 0.079,-0.0389 0.11952,-0.0683 0.075,-0.0543 0.13113,-0.14701 0.18781,-0.22196 q 0.0853,-0.0768 0.17074,-0.15367 a 4.0365467,4.0365467 0 0 0 0.35855,-0.40977 c 0.17091,-0.22623 0.44375,-0.38877 0.61466,-0.61466 0.1564,-0.20659 0.37562,-0.36042 0.52929,-0.56344 0.20403,-0.26976 0.42787,-0.51324 0.63173,-0.78539 0.20659,-0.27574 0.45604,-0.52229 0.66588,-0.80247 0.0685,-0.0914 0.18525,-0.16835 0.23903,-0.27318 0.11781,-0.22963 0.0977,-0.54133 0.17074,-0.80248 0.12703,-0.45366 0.20796,-0.9592 0.32441,-1.41712 0.0463,-0.18199 0.008,-0.35251 0.0512,-0.54636 0.15793,-0.70831 0.1243,-1.49781 0.29025,-2.18546 0.0471,-0.19526 0.13437,-0.62234 0,-0.7171 -0.1091,-0.0778 -0.28769,-0.0327 -0.44392,-0.0683 -0.20557,-0.0469 -0.42343,-0.0734 -0.61466,-0.11952 -0.15127,-0.0364 -0.29179,-0.003 -0.34147,-0.13659 -0.10074,-0.13728 -0.0396,-0.56491 -0.0854,-0.76833 -0.0406,-0.18021 -0.0232,-0.38458 -0.0683,-0.5805 -0.10484,-0.455074 -0.14957,-0.97663 -0.15367,-1.502503 -0.002,-0.193481 -0.0861,-0.671242 0,-0.802469 0.062,-0.09449 0.19396,-0.07081 0.32441,-0.102445 0.15639,-0.0379 0.35547,-0.06613 0.51221,-0.102441 0.16254,-0.03768 0.34711,-0.0013 0.49514,-0.03414 0.1745,-0.03885 0.41643,-0.0039 0.47807,0.08537 0.0789,0.109274 0.0154,0.281259 0.0512,0.443917 0.0446,0.2019 0.0306,0.770169 0.15367,0.870769 0.0987,0.07776 0.74424,-0.03501 0.88784,-0.0683 0.18422,-0.298791 0.0423,-1.050843 0.13659,-1.41713 0.22383,-0.101555 0.63241,-0.109269 0.93906,-0.119516 0.1412,-0.0048 0.42736,0.04694 0.52929,-0.01707 z m 66.70751,5.873405 c 0.34865,-3.9e-4 0.71591,0.15605 1.02444,0.23903 0.13044,0.0351 0.23117,0.0167 0.35855,0.0512 0.47806,0.12955 1.01862,0.18358 1.50249,0.30733 0.40687,0.10403 0.8356,0.1097 1.22932,0.20488 l 0.44392,0.0512 c 0.33106,0.0807 0.69491,0.0838 1.0415,0.17074 0.95289,0.23893 1.9804,0.30562 2.91963,0.54636 0.50692,0.12994 1.0176,0.15578 1.51957,0.27318 0.23085,0.054 0.46253,0.011 0.66589,0.0854 0.15537,0.0568 0.26549,0.17528 0.39269,0.25611 0.12515,0.0796 0.27728,0.13569 0.35855,0.25611 0.0748,0.11072 0.0763,0.24909 0.11952,0.3927 0.10449,0.34659 0.1371,0.7486 0.22196,1.12687 q 0.0172,0.24757 0.0341,0.49514 0.17082,1.23777 0.34147,2.47571 c 0.0579,0.25081 0.0323,0.51699 0.0854,0.75125 q 0.0512,0.57189 0.10244,1.14395 c 0.0818,0.36503 0.0543,0.79546 0.1366,1.16102 q 0.008,0.16211 0.0171,0.3244 c 0.0403,0.16476 0.16118,0.24672 0.20489,0.3927 q 0.0171,0.28171 0.0341,0.56344 c 0.0736,0.33276 0.24996,1.18372 0.11951,1.50249 -0.15742,0.38485 -0.5006,0.80094 -0.73417,1.12688 -0.0678,0.0946 -0.10808,0.22708 -0.20489,0.29025 l -0.17074,0.0512 c -0.17483,0.0738 -0.3623,0.14206 -0.54636,0.22196 -0.45075,0.1955 -0.88853,0.42719 -1.31469,0.64881 -0.19703,0.10244 -0.52246,0.13266 -0.6488,0.30733 -0.14138,0.19532 -0.19721,0.43914 -0.32441,0.64881 -0.13949,0.22998 -0.28735,0.47106 -0.42684,0.70002 -0.0956,0.15691 -0.14393,0.32218 -0.23904,0.47807 -0.0948,0.15537 -0.18713,0.32218 -0.29026,0.47807 -0.0871,0.13164 -0.21154,0.25354 -0.2561,0.42684 -0.0772,0.29948 0.054,0.67118 -0.0171,0.99028 -0.0618,0.27729 0.007,0.60271 -0.0683,0.88785 -0.0545,0.20642 -0.45075,0.61943 -0.64881,0.68295 -0.15384,0.0493 -0.37374,-0.0246 -0.47807,-0.0512 -0.22042,-0.0563 -0.45314,-0.0492 -0.64881,-0.10244 -0.95784,-0.26089 -1.86736,-0.49941 -2.78303,-0.80247 -0.34268,-0.11337 -0.74015,-0.11696 -1.12688,-0.20489 q -0.18772,-0.008 -0.37562,-0.0171 c -0.50453,-0.13335 -1.04475,-0.31518 -1.53665,-0.47807 -0.21513,-0.0712 -0.54568,-0.10569 -0.71709,-0.22196 -0.12447,-0.0844 -0.17518,-0.31484 -0.23904,-0.46099 -0.1453,-0.33226 -0.31433,-0.70123 -0.46099,-1.04151 -0.0633,-0.147 -0.085,-0.30186 -0.17075,-0.42684 -0.14239,-0.20762 -0.45006,-0.32509 -0.66587,-0.461 -0.46766,-0.29435 -1.02118,-0.52724 -1.50251,-0.81954 -0.19122,-0.1161 -0.40362,-0.17808 -0.5805,-0.30733 -0.11474,-0.0838 -0.15384,-0.26123 -0.22196,-0.3927 -0.10774,-0.20796 -0.25389,-0.43726 -0.32441,-0.66588 -0.058,-0.18815 -0.0289,-0.3746 -0.0854,-0.54636 -0.15571,-0.47363 -0.36179,-0.91089 -0.5805,-1.33176 -0.25321,-0.48729 -0.51939,-0.98601 -0.80247,-1.45128 -0.1873,-0.30767 -0.26909,-0.68398 -0.47807,-0.97321 q -0.0853,-0.0768 -0.17074,-0.15366 c -0.15742,-0.22828 -0.51341,-0.92694 -0.3927,-1.34884 0.0606,-0.21171 0.26123,-0.39201 0.37563,-0.56343 0.14837,-0.22231 0.28308,-0.43966 0.44392,-0.64881 0.0695,-0.0903 0.20864,-0.12549 0.29025,-0.20488 0.17774,-0.17313 0.34489,-0.38177 0.49514,-0.58051 0.11115,-0.14701 0.28258,-0.25987 0.3927,-0.40978 0.16937,-0.23049 0.29606,-0.48165 0.46099,-0.7171 0.26311,-0.37545 0.53596,-0.74868 0.80247,-1.12687 0.22743,-0.3227 0.496,-0.62238 0.73418,-0.93906 0.0871,-0.11569 0.22247,-0.20631 0.30733,-0.3244 0.22589,-0.31434 0.40345,-0.64936 0.63173,-0.95614 0.0594,-0.0799 0.16203,-0.14202 0.22196,-0.22196 0.19004,-0.25333 0.39099,-0.48305 0.58051,-0.73418 l 0.15366,-0.13659 c 0.13438,-0.17757 0.29658,-0.316 0.44393,-0.47806 0.0391,-0.0429 0.0714,-0.10477 0.11952,-0.1366 0.23134,-0.15301 0.67475,-0.11803 0.9049,-0.27318 z m 16.90311,0.68295 c 0.48148,-0.007 0.96928,0.009 1.38298,0.10244 h 0.22195 c 0.25202,0.057 0.55422,0.0293 0.80248,0.0854 l 1.12688,0.0512 2.27081,1.12687 c 0.34711,0.18111 0.69986,0.3319 1.02443,0.52929 0.1593,0.0968 0.34319,0.13425 0.49515,0.23904 0.13454,0.0927 0.32986,0.37293 0.42684,0.51221 0.0929,0.13328 0.13625,0.28792 0.20489,0.44393 0.0599,0.13631 0.16271,0.26625 0.22196,0.40977 0.10175,0.24671 0.13727,0.55848 0.20488,0.81954 0.083,0.32065 0.0581,0.63037 0.13659,0.95613 0.15947,0.66076 0.16664,1.36574 0.27318,2.08301 0.0307,0.2066 0.11627,0.58393 0.0342,0.80248 -0.11542,0.30681 -0.32919,0.61773 -0.49515,0.88784 -0.19344,0.31484 -0.33072,0.64948 -0.54636,0.93905 -0.0908,0.12208 -0.25321,0.21496 -0.37562,0.30734 -0.12481,0.0941 -0.21428,0.24722 -0.34148,0.34147 -0.503,0.37289 -1.01504,0.70259 -1.55372,1.04151 -0.23938,0.15059 -0.46151,0.34438 -0.70003,0.49514 -0.23664,0.14956 -0.48216,0.26174 -0.73417,0.39269 -0.35838,0.18628 -0.75706,0.31536 -1.14395,0.47807 -0.15469,0.065 -0.33072,0.17706 -0.49514,0.22196 -0.16254,0.0444 -0.48729,-0.12532 -0.59758,-0.17074 -0.27268,-0.11251 -0.57829,-0.14632 -0.81955,-0.29025 -0.15127,-0.0903 -0.25713,-0.23426 -0.37562,-0.35855 0,-0.28565 0.18012,-0.51546 0.27318,-0.73418 0.21325,-0.50111 0.40909,-1.01709 0.59758,-1.51957 0.10842,-0.28889 0.13779,-0.66178 0.40977,-0.78539 0.29026,-0.13181 0.63618,-0.15623 0.93907,-0.25611 0.4837,-0.15947 0.97491,-0.37443 1.45127,-0.52929 0.39987,-0.1301 1.06592,-0.20062 1.28054,-0.49514 0.17381,-0.23852 0.28616,-0.51751 0.44392,-0.76833 0.0905,-0.14376 0.24979,-0.29622 0.30733,-0.46099 0.10944,-0.31331 -0.10671,-1.15795 -0.18782,-1.38298 -0.0625,-0.17364 -0.0743,-0.34353 -0.17073,-0.47807 -0.13744,-0.19174 -0.32133,-0.28359 -0.52929,-0.40977 -0.25048,-0.15213 -0.54329,-0.32731 -0.81955,-0.44392 q -0.44383,-0.1365 -0.88784,-0.27318 c -0.34438,-0.1272 -0.6838,-0.30699 -1.02443,-0.40977 -0.24193,-0.0731 -0.59109,-0.0285 -0.83661,-0.0854 -0.0767,-0.12558 -0.0823,-0.2769 -0.13659,-0.44393 q -0.22205,-0.60612 -0.44393,-1.21224 c -0.14068,-0.2082 -0.56565,-0.42357 -0.80246,-0.54636 -0.12038,-0.0624 -0.27916,-0.10328 -0.35855,-0.20488 -0.0881,-0.11269 -0.39475,-0.67634 -0.29026,-0.83662 0.0249,-0.0972 0.0763,-0.11334 0.13659,-0.17074 z m 20.11299,0.0683 c 0.4014,-0.003 0.9715,-0.0605 1.33176,0.0171 h 0.40977 c 0.29503,0 0.57897,0.0115 0.80247,0.0683 0.25081,0.42514 0.0971,1.31552 0.15366,1.92934 0.0284,0.3082 0.0181,0.66894 -0.15366,0.7854 -0.28206,0.19123 -1.14907,0.13659 -1.62202,0.13659 l -2.45863,0.0341 c -0.2334,0.0499 -0.54364,-0.0219 -0.80247,0.0171 -0.22418,0.0337 -0.54739,0.0369 -0.73418,0 -0.28837,-0.47187 -0.2725,-1.44823 -0.42684,-2.06593 -0.0357,-0.1431 -0.11645,-0.64951 -0.0171,-0.73418 0.1511,-0.1119 0.44767,-0.021 0.66588,-0.0683 0.34796,-0.0753 0.78539,0.009 1.14394,-0.0683 0.16562,-0.0357 0.38502,0.014 0.52929,-0.0171 0.16562,-0.0356 0.38502,0.014 0.52929,-0.0171 0.1844,-0.0397 0.50419,0.0728 0.64881,-0.0171 z m -90.13283,0.15367 c 0.1972,0.004 0.40926,0.0587 0.58051,0.10244 0.38911,0.0994 0.79086,0.11047 1.16102,0.20488 0.33652,0.0858 0.71027,0.0657 1.00736,0.18782 a 0.42814368,0.42814368 0 0 0 0.0683,0.0854 c 0.01,0.30916 -0.16033,0.50085 -0.25611,0.7171 -0.20284,0.45815 -0.40158,0.91573 -0.59759,1.36591 -0.68176,1.56533 -1.27815,3.17813 -1.96349,4.74653 -0.11952,0.27352 -0.24262,0.55131 -0.34148,0.81954 -0.10773,0.29231 -0.14359,0.50812 -0.30733,0.73418 -0.0843,0.11644 -0.1791,0.30852 -0.35854,0.3244 -0.19328,-0.18252 -0.41712,-0.33499 -0.63174,-0.49514 -0.24467,-0.18269 -0.46987,-0.41421 -0.7171,-0.59758 -0.16049,-0.11918 -0.4878,-0.32799 -0.56344,-0.51222 -0.0768,-0.18747 0,-0.50658 0,-0.73417 0,-0.47517 0.0241,-0.96877 0.11952,-1.38298 q 0.0172,-0.21334 0.0341,-0.42685 c 0.0587,-0.22145 0.19925,-0.40329 0.30733,-0.58051 0.17705,-0.29026 0.32372,-0.5911 0.49514,-0.87077 0.1622,-0.26464 0.26447,-0.55705 0.40977,-0.83662 0.26653,-0.51262 0.54175,-1.03795 0.83662,-1.51957 0.0927,-0.15146 0.13574,-0.31916 0.22196,-0.47807 0.061,-0.11237 0.15213,-0.23824 0.20488,-0.35855 0.0902,-0.2054 0.13233,-0.36206 0.29026,-0.49514 z m 83.61061,0.0512 c 0.45161,-0.003 1.10161,-0.062 1.48543,0.0341 0.20813,0.37391 0.36811,0.79079 0.54637,1.19516 0.203,0.46056 0.4784,0.91146 0.61465,1.43421 0.0577,0.2215 0.003,0.54107 -0.0171,0.76832 v 1.86105 q 0.0256,0.41822 0.0512,0.83662 v 0.52929 c 0.0372,0.17347 0.0601,0.47072 -0.0171,0.59758 -0.13027,0.21411 -0.31723,0.41063 -0.46099,0.61466 -0.34011,0.48251 -0.68295,0.96091 -1.02443,1.4342 -0.11047,0.15315 -0.24723,0.30204 -0.34148,0.46099 -0.0577,0.0973 -0.0463,0.21172 -0.13658,0.27319 -0.28207,0.19208 -0.7236,-0.003 -0.99029,-0.0854 -0.13796,-0.0425 -0.2556,-0.008 -0.27318,-0.17074 -0.0502,-0.0818 -0.0171,-0.31006 -0.0171,-0.42685 v -1.21224 c -0.0306,-0.12583 -0.0901,-0.27352 -0.11952,-0.39269 v -6.71003 c 0,-0.14871 -0.0427,-0.47646 0,-0.56343 0.10244,-0.20875 0.28804,-0.33703 0.51222,-0.42685 0.0644,-0.0258 0.1371,-0.0158 0.18781,-0.0512 z m -72.49554,0.11951 c 0.28308,-0.006 0.49053,0.0806 0.7171,0.13659 0.23152,0.3511 0.13812,0.97238 0.0341,1.41713 -0.0519,0.22154 -0.0388,0.45246 -0.0854,0.66588 -0.05,0.22907 0.0125,0.76918 -0.0854,0.92199 -0.11935,0.18645 -0.34592,0.0516 -0.58051,0.10245 -0.59434,0.12873 -1.29608,0.0442 -1.86105,0.18781 -0.37972,0.0965 -0.68193,0.31979 -0.97321,0.51222 -0.22094,0.14598 -0.45741,0.25286 -0.66588,0.40977 -0.32526,0.24483 -0.42497,0.67288 -0.59758,1.07565 -0.0596,0.13898 -0.16425,0.29247 -0.20489,0.44392 -0.0478,0.17825 0.0326,0.40533 0.0683,0.52929 0.07,0.24364 0.1231,0.49565 0.25611,0.68295 0.1441,0.20301 0.38092,0.32987 0.52929,0.52929 0.34079,0.45792 0.95545,0.87401 1.45127,1.17809 0.14752,0.0905 0.31109,0.13096 0.461,0.22197 0.96757,0.5875 2.01386,1.09135 2.66352,1.99763 0.1219,0.16989 0.40858,0.4907 0.46099,0.68296 0.0464,0.17057 -0.14274,0.59058 -0.20489,0.68295 -0.0837,0.12447 -0.20352,0.20881 -0.29025,0.3244 -0.10552,0.14052 -0.26703,0.42736 -0.3927,0.52929 -0.12652,0.10279 -0.30152,0.13659 -0.46099,0.20489 -0.11371,0.0487 -0.17825,0.10227 -0.35855,0.10244 -0.21462,-0.19874 -0.47346,-0.26328 -0.76833,-0.3927 -0.46304,-0.20317 -0.94162,-0.44733 -1.40005,-0.6488 -0.15469,-0.068 -0.32509,-0.0891 -0.47807,-0.17074 -0.1564,-0.0835 -0.25389,-0.28753 -0.35855,-0.42685 -0.16408,-0.21889 -0.46663,-0.41591 -0.70003,-0.56343 -0.45689,-0.2889 -0.89706,-0.56429 -1.33176,-0.87077 -0.20796,-0.14666 -0.39184,-0.34745 -0.59758,-0.49514 -0.19465,-0.13966 -0.40773,-0.23528 -0.59758,-0.37563 -0.26721,-0.19754 -0.4552,-0.50214 -0.71711,-0.70002 -0.37187,-0.28104 -0.61534,-0.5602 -0.88784,-0.93906 -0.15725,-0.21855 -0.3466,-0.4347 -0.42684,-0.73418 -0.0411,-0.15384 0.13147,-0.80879 0.17073,-0.95614 0.12618,-0.47345 0.11713,-0.95647 0.23904,-1.4342 0.0837,-0.32782 0.17535,-0.65358 0.27318,-0.95613 0.072,-0.22282 0.0661,-0.5199 0.18781,-0.70003 0.0582,-0.0862 0.17193,-0.15862 0.25611,-0.22196 0.16237,-0.12226 0.29555,-0.28479 0.46099,-0.40977 q 0.32449,-0.33294 0.64881,-0.66588 c 0.23203,-0.15763 0.49429,-0.22929 0.73417,-0.37563 a 10.990604,10.990604 0 0 1 1.5708,-0.80247 c 0.15127,-0.0618 0.30852,-0.0516 0.47807,-0.10244 0.34028,-0.10214 0.70788,-0.19266 1.05857,-0.29026 0.31229,-0.0869 0.62252,-0.0804 0.95614,-0.15366 h 0.34148 c 0.0861,-0.0191 0.22434,-0.0325 0.30732,-0.0512 h 0.15367 c 0.11423,-0.0264 0.2544,-0.0604 0.35855,-0.0854 0.0661,-0.0159 0.14308,0.0114 0.18781,-0.0171 z m 30.93782,0.0683 h 1.09272 c 0.18661,0 0.42258,-0.0174 0.58051,0.0171 0.20745,0.0453 0.43573,-0.005 0.61466,0.0341 h 0.18781 c 0.29504,0.0673 0.61637,0.0669 0.81954,0.22196 0.16067,0.12256 0.16204,0.52075 0.10245,0.76832 -0.13351,0.55462 -0.1704,1.16671 -0.30733,1.70739 -0.0543,0.21444 -0.0463,0.55968 -0.15367,0.7171 -0.0335,0.0492 -0.10637,0.0654 -0.15366,0.10244 -0.0171,0.0285 -0.0341,0.0568 -0.0512,0.0854 -0.10722,0.11935 -0.29026,0.27796 -0.461,0.3244 q -0.42667,0.008 -0.85369,0.0171 c -0.77652,-1.9e-4 -1.80983,-0.0777 -2.37326,0.15367 -0.14103,0.0579 -0.28957,0.14598 -0.42685,0.20489 l -0.30732,0.10244 c -0.1716,0.10227 -0.27233,0.29298 -0.42685,0.40977 -0.36094,0.27284 -0.63634,0.65854 -0.90491,1.02443 -0.19226,0.26174 -0.41831,0.503 -0.61466,0.76832 -0.20079,0.27114 -0.44409,0.51358 -0.64881,0.7854 -0.10159,0.13506 -0.23374,0.2404 -0.30733,0.40977 -0.0673,0.15486 -0.0808,0.30904 -0.13659,0.47807 -0.17415,0.52775 -0.2935,1.14958 -0.42685,1.70738 -0.2392,0.17518 -0.47755,0.1436 -0.81954,0.22197 -0.14308,0.0328 -0.71659,0.16168 -0.87077,0.11951 -0.51221,-0.14018 -1.03006,-0.41387 -1.4342,-0.68295 -0.15213,-0.10125 -0.64847,-0.28667 -0.68295,-0.461 -0.11645,-0.16732 0.0797,-0.75534 0.13658,-0.90491 0.1687,-0.44341 0.30545,-0.92984 0.49515,-1.36591 0.13727,-0.31569 0.30733,-0.62797 0.46099,-0.92199 0.17962,-0.34352 0.2976,-0.75346 0.51222,-1.07565 0.0756,-0.11371 0.19498,-0.21291 0.27318,-0.3244 0.0784,-0.11183 0.11371,-0.24177 0.18781,-0.35855 0.12874,-0.20301 0.2976,-0.40004 0.44392,-0.59759 0.28462,-0.3845 0.66912,-0.74442 0.95614,-1.12687 0.18405,-0.24533 0.37852,-0.47159 0.56343,-0.7171 q 0.0597,-0.0512 0.11952,-0.10244 c 0.11439,-0.15152 0.27267,-0.3547 0.44392,-0.44392 0.24809,-0.12932 0.53065,-0.19526 0.7854,-0.30733 0.46201,-0.20318 0.93513,-0.47423 1.45128,-0.61466 l 0.54636,-0.0683 1.0415,-0.25611 c 0.13847,-0.0347 0.44392,0.0131 0.54637,-0.0512 z m -49.01902,0.0683 0.11952,0.0171 c 0.043,0.0593 0.11371,0.1067 0.15366,0.17074 l 0.15366,0.35855 c 0.26533,0.42833 0.56771,0.86063 0.83662,1.29762 0.34233,0.5565 0.59878,1.14855 0.93906,1.70738 0.24655,0.40499 0.46031,0.83918 0.7171,1.24639 0.075,0.11884 0.22948,0.20335 0.29026,0.3244 0.0671,0.13386 -0.0193,0.36607 0.0171,0.52929 0.0888,0.39919 0.0681,0.84652 0.15366,1.22932 0.0377,0.16886 -0.0214,0.34523 0.0341,0.47806 0.11662,0.27916 0.37751,0.51205 0.54637,0.75126 0.35531,0.50316 0.72478,0.97542 1.09273,1.46835 0.1289,0.17261 0.29452,0.31962 0.42684,0.49514 0.0437,0.0579 0.1284,0.0937 0.15366,0.17074 0.0558,0.16988 -0.0698,0.51016 -0.10244,0.63173 -0.0751,0.28052 -0.10876,0.55558 -0.17074,0.81954 -0.0476,0.20284 -0.009,0.42497 -0.0512,0.61466 q -0.0172,0.69149 -0.0341,1.38298 c -0.0372,0.16954 -0.013,0.41626 -0.0171,0.61466 -0.005,0.25252 -0.0165,0.55797 -0.0171,0.83662 -0.002,0.90064 0.0109,1.901 -0.0512,2.78303 -0.21991,0.13847 -0.53509,0.13028 -0.83662,0.20489 -0.34557,0.0855 -0.75091,0.0712 -1.12687,0.15367 q -0.27327,0.008 -0.54636,0.0171 c -0.22879,0.0504 -0.51512,0.0931 -0.75125,0.0683 -0.33943,-0.5257 -0.40704,-1.21207 -0.23904,-1.96349 0.0492,-0.21974 0.006,-0.46355 0.0512,-0.66588 v -0.40977 c 0.10535,-0.47704 0.0296,-1.11134 0.13659,-1.58787 v -0.46099 c 0,-0.2824 -0.001,-0.55149 0.0512,-0.7854 v -0.56343 c 0.0695,-0.3268 -0.003,-0.68091 0.0683,-1.02444 0.0242,-0.11678 0.0536,-0.38689 0.0171,-0.52928 -0.0744,-0.28992 -0.25115,-0.53749 -0.39269,-0.76833 -0.13096,-0.21359 -0.20557,-0.43692 -0.3244,-0.66587 -0.0779,-0.15009 -0.18714,-0.30443 -0.25611,-0.461 a 26.128648,26.128648 0 0 0 -1.62202,-3.10744 c -0.10654,-0.17466 -0.1552,-0.37324 -0.23903,-0.56344 -0.0698,-0.15827 -0.17603,-0.3244 -0.25611,-0.47806 -0.13676,-0.26209 -0.2392,-0.52298 -0.37562,-0.7854 -0.31945,-0.61466 -0.63174,-1.23388 -0.88784,-1.91227 -0.0891,-0.23615 -0.27728,-0.51526 -0.22196,-0.81954 0.22554,-0.12174 0.50026,-0.16631 0.76832,-0.25611 0.35104,-0.11766 0.74049,-0.24107 1.09272,-0.35856 0.17621,-0.0588 0.57061,-0.1151 0.70003,-0.20488 z m 37.64783,0.13659 0.18781,0.0171 c 0.18884,0.29129 0.29009,0.82296 0.18781,1.29762 -0.0229,0.10585 10e-4,0.25694 -0.0171,0.34148 q -0.008,0.49513 -0.0171,0.99028 c -0.0679,0.31399 0.0152,0.71642 -0.0512,1.02443 v 0.34148 c -0.0587,0.27079 0.01,0.57265 -0.0512,0.85369 q -0.094,0.98166 -0.18781,1.96349 c -0.0463,0.21377 -0.009,0.4364 -0.0512,0.63173 v 1.74153 c 0,0.2054 0.0173,0.45451 -0.0171,0.63174 -0.0171,0.006 -0.0341,0.0114 -0.0512,0.0171 v 0.0171 h -0.0171 v -0.0171 c -0.11508,-0.0427 -0.16067,-0.15913 -0.23904,-0.23904 -0.0804,-0.0821 -0.19652,-0.15588 -0.25611,-0.25611 -0.0708,-0.11934 -0.057,-0.28564 -0.10244,-0.42684 -0.13369,-0.41592 -0.23511,-0.90526 -0.35855,-1.34884 -0.0574,-0.20625 -0.0449,-0.4697 -0.15366,-0.63173 -0.0948,-0.1412 -0.32168,-0.24142 -0.46101,-0.34148 -0.2462,-0.17688 -0.4919,-0.38279 -0.75124,-0.54636 -0.26516,-0.16715 -0.53373,-0.30067 -0.75126,-0.51221 -0.0181,-0.86445 -0.14905,-1.75929 -0.11952,-2.62938 0.0121,-0.35879 -0.0179,-0.71058 0.0512,-1.02443 0.0572,-0.25911 -0.005,-0.91466 0.13659,-1.05858 0.0907,-0.0922 0.42736,-0.16231 0.56344,-0.22195 0.21206,-0.0929 0.43248,-0.2311 0.66588,-0.30733 0.30648,-0.10009 0.66812,-0.11056 0.97323,-0.18782 z m -14.52985,0.10245 c 0.80179,-0.004 1.89366,-0.0826 2.57815,0.0683 l 1.12687,-0.0171 c 0.0951,0.0208 0.25953,-0.009 0.37563,0.0171 0.38416,0.0865 0.84635,0.0655 1.24639,0.15367 l 1.75861,0.11951 0.76832,0.0171 c 0.15503,0.0341 0.3874,-0.0218 0.56343,0.0171 0.0622,0.0137 0.19055,-0.003 0.27319,0.0171 0.13095,0.0313 0.28854,0.0804 0.40977,0.11952 0.13096,0.0422 0.28257,0.0252 0.35855,0.11952 0.055,0.0702 -0.0328,0.55285 -0.0683,0.68295 -0.13215,0.4834 -0.26396,0.93773 -0.42684,1.38298 -0.0901,0.24655 -0.0722,0.40824 -0.23904,0.58051 -0.26071,8.7e-4 -0.52023,-0.006 -0.7171,-0.0512 q -0.29888,0.008 -0.59758,0.0171 c -0.10193,-0.0236 -0.23494,-0.0613 -0.34148,-0.0854 -0.14205,-0.0321 -0.39646,-0.008 -0.51222,0.0171 q -0.47789,0.008 -0.95613,0.0171 c -0.35548,-0.0773 -0.68603,-0.10125 -1.0415,-0.18781 -0.15128,-0.0369 -0.42122,-0.11149 -0.61466,-0.0683 -0.13027,0.0292 -0.28684,0.0726 -0.40977,0.10244 -0.18987,0.0461 -0.37341,0.003 -0.54637,0.0512 -0.37118,0.1021 -0.76781,0.19908 -1.17809,0.29025 -0.12396,0.0275 -0.62934,-0.0418 -0.75125,-0.0683 q -0.17083,-0.008 -0.34148,-0.0171 c -0.43555,-0.0973 -0.94435,-0.0931 -1.36591,-0.18781 -0.11712,-0.0263 -0.24927,0.0169 -0.3244,0.0341 q -0.28172,0.008 -0.56344,0.0171 c -0.0615,0.0133 -0.23783,0.0454 -0.3244,0.0171 -0.15691,-0.0514 -0.33089,-0.27882 -0.37562,-0.44392 q -0.008,-0.29026 -0.0171,-0.58051 c -0.0845,-0.39794 -0.0345,-0.8567 -0.11952,-1.22932 -0.0587,-0.25781 -0.10415,-0.63624 0.11952,-0.7171 0.1062,-0.079 0.26857,-0.0333 0.42684,-0.0683 0.42958,-0.0951 0.95153,-0.0227 1.40006,-0.11952 0.12737,-0.0275 0.33089,0.0431 0.42685,-0.0171 z m 52.5533,0.10244 c 0.37802,-0.006 0.42633,0.20373 0.64881,0.34148 0.0683,0.0422 0.15298,0.0427 0.22196,0.0854 0.15588,0.0965 0.28854,0.25476 0.44392,0.35855 0.39457,0.26342 0.82432,0.49719 1.16102,0.81955 0.0359,0.65173 0.14667,1.1979 0.27318,1.74153 v 0.75125 c 0.0942,0.43146 0.008,0.94418 0.10244,1.36591 v 0.23903 c 0.0618,0.28752 0.003,0.61227 0.0683,0.92199 0.03,0.14205 0.0678,0.41404 0.0512,0.56344 -0.0242,0.21957 -0.14683,0.40294 -0.22196,0.58051 -0.15929,0.37613 -0.29264,0.75825 -0.44392,1.12687 q -0.14521,0.43538 -0.29025,0.87077 c -0.0828,0.12224 -0.23869,0.21871 -0.35855,0.30732 -0.23255,0.17194 -0.44939,0.37051 -0.68296,0.54637 -0.28069,0.21137 -0.51767,0.48524 -0.80247,0.70002 -0.12259,0.0925 -0.20045,0.27097 -0.3927,0.29026 a 0.30420465,0.30420465 0 0 0 -0.0512,-0.0683 c -8.6e-4,-0.34353 -0.0307,-0.82586 0.0342,-1.12687 0.0452,-0.21035 -0.0116,-0.40004 0.0341,-0.59759 0.0712,-0.30732 0.0842,-0.67271 0.0854,-1.07565 q 0.008,-0.12805 0.0171,-0.25611 c -0.0478,-0.2421 -0.0273,-0.47363 -0.0854,-0.7171 -0.0379,-0.15896 -0.1173,-0.4038 -0.0683,-0.63173 0.0404,-0.18816 0.0838,-0.70754 0.0341,-0.92199 -0.15178,-0.65444 -0.0755,-1.54467 -0.10244,-2.33911 -0.0244,-0.72001 -0.0553,-1.59687 0.0854,-2.2196 v -0.73418 c 0.0265,-0.10415 0.10962,-0.17586 0.1366,-0.27318 0.0253,-0.0911 -0.003,-0.25913 -0.0171,-0.3244 -0.0229,-0.10808 0.0178,-0.20129 0.0341,-0.27319 a 0.29537748,0.29537748 0 0 0 0.0854,-0.0512 z m -14.63228,1.21224 c -0.12618,0.0776 -0.43009,-0.0106 -0.59758,0.0341 l -0.71711,0.29026 c -0.13112,0.0818 -0.2013,0.24927 -0.29026,0.37562 -0.18951,0.26927 -0.40208,0.53031 -0.59758,0.80247 -0.45792,0.63737 -0.96382,1.24776 -1.4342,1.87812 -0.15673,0.21002 -0.3915,0.37136 -0.54636,0.58052 -0.17057,0.23015 -0.20676,0.58529 -0.13659,0.92198 0.38655,0.17108 1.06506,-0.0116 1.45127,0.15367 0.23067,0.0987 0.41848,0.2783 0.61467,0.40977 q 0.21333,0.1196 0.42684,0.23903 c 0.10449,0.0733 0.20676,0.20079 0.34147,0.23904 q 0.72556,-0.008 1.45128,-0.0171 c 0.13574,-0.0292 0.42736,-0.0447 0.56344,0 q 0.22204,0.11089 0.44392,0.22196 c 0.3268,0.1342 0.67646,0.1622 1.02443,0.27318 0.10944,0.035 0.42019,0.17228 0.58051,0.11952 0.077,-0.0253 0.15503,-0.11201 0.22196,-0.15367 0.22452,-0.13983 0.44802,-0.27403 0.66588,-0.40977 0.13385,-0.0833 0.32372,-0.14444 0.40977,-0.27318 0.0524,-0.0784 0.0797,-0.22845 0.10245,-0.3244 0.0357,-0.15128 -0.0495,-0.37341 0.0171,-0.49515 0.0551,-0.1009 0.21444,-0.17074 0.30732,-0.23903 0.14633,-0.10739 0.26636,-0.26721 0.40978,-0.37562 0.34181,-0.2585 0.61738,-0.59947 0.95613,-0.8537 0.18542,-0.13915 0.67169,-0.36572 0.7854,-0.52928 0.0884,-0.1272 0.12378,-0.27609 0.20488,-0.40978 0.10142,-0.16715 0.21684,-0.35684 0.30733,-0.52929 0.0271,-0.0517 0.0551,-0.15929 0.0171,-0.22196 -0.0425,-0.1231 -0.13967,-0.15844 -0.22197,-0.23903 -0.10381,-0.10176 -0.22093,-0.26403 -0.35855,-0.3244 -0.0777,-0.0341 -0.14427,-0.0113 -0.23903,-0.0341 -0.28052,-0.0676 -0.58819,-0.0645 -0.88785,-0.13659 -0.84156,-0.20234 -1.75877,-0.23849 -2.59521,-0.44392 -0.27558,-0.0677 -0.5281,-0.0498 -0.80248,-0.11952 -0.42155,-0.10712 -0.87947,-0.12199 -1.31469,-0.23903 -0.20932,-0.0564 -0.29007,-0.16528 -0.56343,-0.17074 z m -33.8233,2.23668 c 0.36248,-0.007 0.66503,0.0765 0.95614,0.15366 q 0.29017,0.0428 0.58051,0.0854 c 0.0164,0.0302 0.0215,0.0287 0.0341,0.0683 0.0487,0.084 -0.12003,0.65445 -0.15366,0.76833 -0.15964,0.54124 -0.22691,1.06711 -0.37563,1.62201 -0.0454,0.16938 -0.16083,0.43078 -0.10244,0.66588 0.0632,0.25457 0.16783,0.49429 0.22196,0.73418 q -0.008,0.10244 -0.0171,0.20489 v 4.81482 c -0.0551,0.19071 -0.34404,0.41421 -0.46099,0.58051 -0.1144,0.16288 -0.17159,0.36521 -0.29026,0.52929 -0.13147,0.18183 -0.36435,0.29743 -0.49514,0.47807 -0.12788,0.17654 -0.20591,0.4615 -0.29026,0.66588 q -0.1196,0.35855 -0.23903,0.7171 c -0.21206,0.5117 -0.41814,1.05004 -0.63173,1.57079 -0.0787,0.19208 -0.15657,0.73008 -0.29026,0.83662 -0.0744,0.0543 -0.16254,0.002 -0.27318,0.0341 -0.26345,0.0765 -0.76166,0.14564 -1.07565,0.0854 -0.0907,-0.15913 -0.0816,-0.48421 -0.0341,-0.70003 q 0.0172,-0.19643 0.0341,-0.3927 c 0.0564,-0.23766 0.11354,-0.63105 0.0512,-0.92198 v -0.3927 c -0.0652,-0.30562 -0.0341,-0.68159 -0.0341,-1.02443 v -1.77568 c 0,-1.61638 -0.11798,-3.48955 0.18781,-4.8319 v -0.18781 c 0.0463,-0.20523 0.0546,-0.4738 0.10244,-0.68295 q 0.008,-0.17928 0.0171,-0.35855 c 0.0878,-0.38348 0.10159,-0.83884 0.18781,-1.22932 0.0526,-0.23818 -0.10961,-0.74066 0.0171,-0.93906 0.0652,-0.1704 0.33004,-0.23238 0.47807,-0.32441 0.34967,-0.21718 0.66144,-0.42838 1.07565,-0.59758 0.18952,-0.0773 0.68808,-0.15162 0.81955,-0.25611 z m -32.26956,1.51957 h 0.18781 c 0.12549,0.20762 0.0284,0.28548 0.0854,0.54636 l 0.10245,1.84398 c 0.0866,0.37375 0.10398,0.79888 0.18781,1.1781 0.0727,0.32935 -0.002,0.73741 0.0683,1.05857 q 0.0256,0.52912 0.0512,1.05858 c 0.175,0.79291 0.15623,1.70517 0.34147,2.50985 0.0647,0.28087 0.0432,0.5742 0.10245,0.83662 q 0.008,0.17083 0.0171,0.34148 c 0.0492,0.21855 0.0536,0.51341 0.10244,0.73417 v 0.23904 c 0.0924,0.42736 0.0406,0.94162 0.13659,1.38298 0.057,0.26226 -0.0174,0.54773 0.0341,0.7854 0.0475,0.21888 -0.0263,0.87657 -0.10244,0.99028 -0.0533,0.0796 -0.14189,0.0965 -0.23904,0.13659 -0.35974,0.14872 -0.54124,-0.0934 -0.78539,-0.25611 -0.24655,-0.16425 -0.482,-0.32952 -0.71711,-0.49514 -0.0712,-0.0502 -0.15708,-0.083 -0.20488,-0.15366 -0.12242,-0.18098 -0.16596,-0.40431 -0.25611,-0.61466 -0.089,-0.20762 -0.20727,-0.40431 -0.3244,-0.58051 -0.0587,-0.0884 -0.10347,-0.19533 -0.18782,-0.25611 -0.14751,-0.1062 -0.713,-0.21786 -0.92198,-0.27318 -0.18662,-0.0493 -0.36743,0.004 -0.42685,-0.17074 -0.14103,-0.18781 -0.0418,-0.41045 -0.10244,-0.68295 -0.0953,-0.42805 -0.0505,-0.90987 -0.15367,-1.31469 -0.11183,-0.43948 -0.0995,-0.96484 -0.20488,-1.4342 -0.0581,-0.25884 0.004,-0.54073 -0.0512,-0.7854 -0.0628,-0.28154 0.0266,-0.64846 -0.0341,-0.92198 -0.0736,-0.33158 -0.0442,-0.70345 -0.11952,-1.05858 -0.0246,-0.11628 -0.0717,-0.33107 -0.0341,-0.47807 0.0632,-0.24672 0.18559,-0.48131 0.27318,-0.7171 0.15024,-0.40482 0.23698,-0.83269 0.39269,-1.21224 0.19584,-0.47756 0.2795,-0.98943 0.52929,-1.40006 0.0372,-0.0613 0.0408,-0.13454 0.0854,-0.18781 0.0755,-0.0901 0.40943,-0.14291 0.54636,-0.18782 0.36658,-0.12003 0.79445,-0.20437 1.16103,-0.3244 0.14786,-0.0483 0.34267,-0.0517 0.46099,-0.13659 z m 74.51027,0.17074 c -0.19431,0.15059 -0.55132,0.29179 -0.7854,0.3927 -0.0838,0.0362 -0.16784,0.0369 -0.23903,0.0854 -0.19004,0.12925 -0.17741,0.47363 -0.30734,0.66588 -0.0852,0.126 -0.26054,0.15673 -0.3927,0.23903 -0.13949,0.0869 -0.26771,0.21786 -0.40977,0.30733 -0.22213,0.13983 -0.46799,0.25491 -0.70003,0.37562 -0.10636,0.0553 -0.23066,0.0686 -0.27318,0.18781 -0.0944,0.14087 -0.0529,0.42326 -0.11951,0.58052 -0.1581,0.3734 -0.5491,0.75722 -0.64881,1.14394 q 0.008,0.75962 0.0171,1.51957 -0.008,0.55473 -0.0171,1.1098 c 0.0719,0.29624 0.25098,0.49019 0.34148,0.76833 0.0833,0.25628 0.11935,0.52621 0.18781,0.76832 0.0364,0.12822 0.0193,0.27455 0.0854,0.37563 0.0743,0.11354 0.25713,0.14973 0.37562,0.22196 0.19567,0.11917 0.40688,0.24193 0.59759,0.37562 0.0971,0.0681 0.16152,0.16493 0.30733,0.18781 0.18098,-0.18115 0.25628,-0.3758 0.40977,-0.58051 0.11645,-0.1552 0.38502,-0.29281 0.51222,-0.46099 0.259,-0.34216 0.52245,-0.68466 0.75125,-1.05858 a 3.6578489,3.6578489 0 0 0 0.2561,-0.51222 c 0.0461,-0.11371 0.0439,-0.21273 0.10245,-0.30733 0.27249,-0.44016 0.776,-0.87759 0.88783,-1.45127 0.0222,-0.11406 -0.0439,-0.31228 -0.0683,-0.40977 -0.0803,-0.32065 -0.0801,-0.65393 -0.15366,-0.95614 -0.0724,-0.29726 -0.047,-0.573 -0.11952,-0.87076 -0.21052,-0.86394 -0.26123,-1.80812 -0.461,-2.66352 -0.0171,-0.006 -0.0341,-0.0114 -0.0512,-0.0171 -0.022,-0.015 -0.0422,-0.0152 -0.0854,-0.0171 z m -34.84773,1.1098 c 0.16442,0.0229 0.27181,0.12242 0.3927,0.18781 0.27779,0.15042 0.77362,0.31809 0.93907,0.56344 0.10517,0.15605 0.0398,0.4014 0.10244,0.59758 0.15418,0.48217 0.25594,1.0217 0.3927,1.51957 0.0782,0.28462 0.0642,0.62149 0.17074,0.88784 0.0418,0.10467 0.16425,0.17962 0.23903,0.25611 0.1967,0.20079 0.41063,0.40687 0.58051,0.63174 0.0456,0.0603 0.13489,0.10107 0.17075,0.17073 0.12549,0.24364 0.036,0.70225 0.10244,1.00736 0.12976,0.5957 0.27966,1.265 0.13658,1.92934 q -0.008,0.28172 -0.0171,0.56344 c -0.0393,0.17979 -0.0273,0.4248 -0.0683,0.61466 v 0.35855 c -0.026,0.11917 -0.0478,0.24996 -0.0171,0.3927 q 0.0428,0.58034 0.0854,1.16102 c -0.049,0.14939 -0.37801,0.39475 -0.49514,0.51221 -0.10944,0.10962 -0.18935,0.27762 -0.35855,0.32441 h -0.23903 c -0.35445,0.0753 -0.90288,0.0171 -1.29762,0.0171 -0.22572,0 -0.49464,0.0186 -0.64881,-0.0683 -0.0676,-0.0381 -0.35019,-0.38212 -0.37563,-0.461 v -0.15366 c -0.0796,-0.36043 -0.056,-0.97816 0.0171,-1.31469 q -0.008,-0.54628 -0.0171,-1.09272 0.0172,-0.86206 0.0341,-1.72446 c 0.0803,-0.37067 0.1004,-1.11441 0.0171,-1.5025 q 0.008,-0.45228 0.0171,-0.90491 c -0.0697,-0.32577 -0.0512,-0.72462 -0.0512,-1.1098 0,-0.1815 -0.0159,-0.41046 0.0171,-0.56344 0.0227,-0.10586 -10e-4,-0.25696 0.0171,-0.34148 0.0482,-0.22383 -0.008,-0.4709 0.0341,-0.66588 l 0.0512,-1.74153 a 0.30420465,0.30420465 0 0 0 0.0683,-0.0512 z m 63.34397,0.88784 c 0.28462,-0.004 0.65102,-0.0485 0.90491,0.0171 0.0763,0.0196 0.14564,0.0644 0.22196,0.0854 0.17142,0.29128 0.15435,0.54312 0.15367,0.97321 -8.7e-4,0.40516 0.0427,0.89706 -0.0342,1.24639 -0.0336,0.15298 0.0207,0.33619 -0.0854,0.40977 -0.0715,0.0497 -0.16749,0.0109 -0.27317,0.0341 -0.18543,0.0408 -0.42907,0.0278 -0.61466,0.0683 h -0.25611 c -0.19754,0.043 -0.43402,-0.0128 -0.6488,0.0341 -0.73555,0.16067 -1.66556,0.0116 -2.39034,0.17074 -0.47397,0.10398 -0.95256,-0.0751 -1.1781,0.29026 -0.0801,0.12976 -0.0512,0.39816 -0.0512,0.59758 0,0.4627 -0.004,1.02563 0.0854,1.4342 v 0.23904 a 3.4790686,3.4790686 0 0 1 0.0512,0.37562 v 0.30733 c 0.10022,0.45451 0.0862,0.99336 0.18781,1.43421 0.035,0.15161 0.0144,0.63207 0.10245,0.70002 0.0748,0.0577 0.26703,0.0341 0.39269,0.0341 h 4.52457 c 0.30836,0 0.6191,-0.0108 0.90492,-0.0171 0.11985,-0.003 0.28137,-0.0452 0.37562,0.0171 0.12993,0.0401 0.21923,0.21906 0.17074,0.42685 -0.10603,0.45468 -0.14462,0.98089 -0.25611,1.4342 -0.19976,0.0884 -0.41524,0.0118 -0.66588,0.0683 -0.52366,0.11816 -1.174,-0.009 -1.65616,0.13659 -0.3676,0.11116 -0.96109,0.25936 -1.26347,0.44392 -0.23886,0.14581 -0.48729,0.27267 -0.75125,0.40978 -0.10432,0.0541 -0.21973,0.1371 -0.34147,0.17074 h -0.27319 c -0.21751,0.0473 -0.59621,0 -0.87076,0 -0.57624,0 -0.9826,0.0854 -1.53665,0.0854 -0.74647,0 -1.45196,-0.0343 -2.21959,-0.0341 -0.18458,0 -0.6734,0.0587 -0.73418,-0.0683 v -2.06593 c 0.0625,-0.0975 0.0343,-0.32782 0.0341,-0.47807 l -0.0512,-1.12687 c 0,-0.29317 0.048,-0.56054 0.10245,-0.80248 q 0.008,-0.45228 0.0171,-0.90491 c 0,-0.66622 -0.11781,-1.41355 0.0171,-2.01472 0.3903,-0.27488 0.97354,-0.42155 1.45126,-0.59758 0.21207,-0.0782 0.51496,-0.10074 0.63174,-0.27318 0.13233,-0.19533 0.22367,-0.5549 0.3244,-0.7854 0.22196,-0.50794 0.49771,-1.02033 0.71711,-1.51957 0.0835,-0.19003 0.30596,-0.80093 0.49513,-0.83662 0.0575,-0.035 0.20301,-0.0171 0.29026,-0.0171 h 0.73418 c 0.77242,0 1.45435,-0.0517 2.20253,-0.0512 0.23681,2e-4 0.90286,0.0461 1.05857,-0.0512 z m -39.25276,0.88784 c -0.0925,0.0565 -0.23819,0.023 -0.35856,0.0512 -0.31655,0.0739 -0.69815,0.0656 -1.02443,0.13659 -0.2795,0.061 -0.61636,-0.11217 -0.75125,0.0854 -0.0801,0.10159 -0.0304,0.67117 0,0.80247 0.0558,0.24108 -4.3e-4,0.46561 0.0683,0.68296 0.13249,0.4183 0.41779,0.78863 0.61466,1.16102 0.3524,0.6669 0.68892,1.34268 1.02443,2.01471 0.10313,0.20642 0.23869,0.67015 0.40977,0.7854 0.078,0.0526 0.18047,0.0473 0.27318,0.0854 0.26669,0.10944 0.55182,0.18439 0.83662,0.29025 0.73827,0.27455 1.4885,0.50676 2.23667,0.7854 0.4948,0.18423 1.02273,0.36231 1.51957,0.54636 0.0941,0.0348 0.45895,0.14855 0.56344,0.0854 0.1733,-0.0531 0.34574,-0.22008 0.46099,-0.34147 0.002,-0.22162 -0.0726,-0.51922 0,-0.70003 0.0296,-0.0736 0.1284,-0.10927 0.17075,-0.17074 0.1236,-0.17944 0.26549,-0.3232 0.32439,-0.56344 0.089,-0.36299 -0.0837,-0.72546 -0.15366,-0.93906 -0.12993,-0.39662 -0.19396,-0.832 -0.29025,-1.24639 -0.0944,-0.062 -0.48422,-0.25798 -0.52929,-0.3244 -0.0773,-0.11422 -0.0866,-0.27318 -0.1366,-0.40977 -0.10927,-0.29811 -0.22434,-0.61739 -0.34147,-0.90492 -0.0625,-0.15315 -0.0801,-0.31928 -0.17074,-0.44392 -0.11132,-0.15315 -0.31603,-0.14495 -0.52929,-0.20488 -0.12413,-0.0348 -0.22145,-0.11474 -0.3244,-0.15367 -0.21769,-0.0823 -0.42446,-0.0562 -0.66588,-0.11951 -0.58717,-0.15401 -1.14327,-0.38707 -1.65617,-0.59759 -0.26276,-0.1079 -0.51375,-0.14086 -0.80247,-0.22196 -0.25628,-0.0721 -0.44579,-0.1663 -0.76831,-0.17074 z m -18.16658,2.64644 c 0.16664,-10e-4 0.25509,0.04 0.37563,0.0683 h 0.56344 c 0.10073,0.022 0.27079,-0.01 0.3927,0.0171 0.17193,0.0377 0.3763,0.0495 0.52928,0.0854 0.0282,0.0481 0.0446,0.0584 0.0512,0.13659 -0.0748,0.0845 -0.0929,0.20728 -0.15366,0.30734 a 4.7984838,4.7984838 0 0 0 -0.30733,0.59758 c -0.0415,0.0984 -0.0464,0.20454 -0.10244,0.29025 -0.0649,0.0994 -0.17484,0.12003 -0.27319,0.18782 -0.0627,0.0432 -0.0908,0.12566 -0.13658,0.18781 -0.0604,0.0823 -0.14992,0.14991 -0.22196,0.22196 -0.11371,0.11371 -0.32816,0.43453 -0.51222,0.44392 -0.0208,-0.0389 -0.028,-0.0384 -0.0341,-0.10244 -0.0816,-0.13301 -0.043,-0.43812 -0.0854,-0.61466 -0.0768,-0.32082 -0.0872,-0.6611 -0.17074,-0.99028 -0.0533,-0.21018 -0.14154,-0.52707 -0.10244,-0.75125 a 0.42621433,0.42621433 0 0 0 0.0854,-0.0683 c 0.0464,1.9e-4 0.0785,-8.7e-4 0.10244,-0.0171 z m 43.19682,0.20489 h 0.0683 c 0.27165,0.27523 0.4277,0.60697 0.6488,0.93906 0.0937,0.14069 0.22726,0.27182 0.32441,0.40977 0.1214,0.17245 0.20386,0.35736 0.3244,0.52929 0.62354,0.88972 1.29438,1.726 1.92934,2.6123 0.10672,0.14889 0.2539,0.27865 0.35856,0.42685 0.15229,0.21564 0.26755,0.43709 0.40977,0.66588 0.1453,0.23374 0.33977,0.40038 0.35855,0.76832 -0.0227,0.0398 -0.0456,0.0797 -0.0683,0.11952 -0.25424,0.21854 -0.59264,0.31552 -0.88785,0.49514 -0.36521,0.22213 -0.75209,0.41096 -1.14394,0.61466 -0.21992,0.11422 -0.54517,0.35137 -0.81954,0.37562 -0.09,-0.0746 -0.20011,-0.11644 -0.29026,-0.18781 -0.10398,-0.0823 -0.20745,-0.25355 -0.3244,-0.34148 -0.068,-0.0511 -0.15794,-0.10159 -0.20489,-0.17074 -0.1033,-0.15229 -0.10944,-0.37614 -0.20488,-0.52929 -0.15692,-0.25201 -0.35309,-0.50726 -0.51222,-0.76832 -0.0652,-0.10688 -0.0884,-0.21701 -0.15367,-0.3244 -0.40414,-0.66554 -0.70737,-1.39135 -1.07565,-2.10008 -0.17893,-0.34421 -0.35958,-0.70772 -0.56344,-1.04151 -0.10347,-0.16937 -0.28411,-0.32628 -0.30733,-0.56344 0.28958,-0.2952 0.59025,-0.60305 0.92199,-0.85369 0.21701,-0.16408 0.39645,-0.43299 0.61466,-0.59758 0.20045,-0.15111 0.41763,-0.30375 0.59758,-0.47807 z m -40.07231,0.18781 h 0.1366 c 0.0165,0.0266 0.056,0.0454 0.0683,0.0683 q 0.0428,0.40132 0.0854,0.80247 c 0.0415,0.10108 0.13249,0.18577 0.18781,0.27319 0.2025,0.3203 0.39936,0.64231 0.59759,0.95613 0.12925,0.20454 0.24586,0.51631 0.44392,0.64881 0.17637,0.11797 0.52793,0.13334 0.75125,0.20488 0.24347,0.078 0.51307,0.15743 0.76832,0.22196 0.16852,0.0425 0.35292,0.0334 0.51222,0.0683 q 0.2305,-0.008 0.46099,-0.0171 c 0.60715,0.13095 1.34405,-0.11166 1.92934,0 0.006,0.0171 0.0115,0.0341 0.0171,0.0512 0.0403,0.0673 -0.0217,0.18883 -0.0512,0.25611 -0.0891,0.20335 -0.17193,0.44016 -0.27318,0.6488 -0.11081,0.22862 -0.23578,0.49429 -0.3244,0.73418 q -0.034,0.17927 -0.0683,0.35855 c -0.0534,0.12225 -0.17774,0.21547 -0.22196,0.35855 -0.0888,0.28684 -0.0234,0.87999 -0.0512,1.21224 a 0.42621433,0.42621433 0 0 0 -0.0854,0.0683 q -0.93044,0.008 -1.86104,0.0171 c -0.22863,0.0343 -0.62645,0.049 -0.8537,0 h -0.58051 c -0.0697,-0.0152 -0.17842,-0.0538 -0.27318,-0.0341 -0.0712,0.0147 -0.19515,0.029 -0.27318,0 -0.3939,-0.14615 -0.80076,-0.73247 -1.09273,-1.02442 -0.40721,-0.40722 -0.81766,-0.80914 -1.22932,-1.21225 -0.27523,-0.26959 -0.52656,-0.56822 -0.83662,-0.80247 -0.1499,-0.11337 -0.2421,-0.29623 -0.37562,-0.42685 -0.0285,-0.36657 0.36983,-0.66041 0.54636,-0.90491 0.34507,-0.47772 0.70174,-0.9505 1.04151,-1.4342 0.18372,-0.26157 0.36504,-0.51631 0.54636,-0.76832 0.0642,-0.0893 0.1132,-0.21394 0.20489,-0.27319 z m 33.73792,1.22932 c 0.28924,0.0232 0.57368,0.39048 0.7171,0.58051 0.0842,0.11149 0.20882,0.20762 0.29025,0.3244 0.0999,0.14342 0.15931,0.29794 0.25612,0.44392 0.0574,0.0864 0.16834,0.16971 0.20488,0.27318 0.0645,0.18287 0,0.42873 0,0.63174 0,0.38928 0.0401,0.8694 -0.0341,1.21224 -0.0205,0.0949 -8.6e-4,0.23357 -0.0171,0.30733 v 0.27318 c -0.0644,0.29418 -0.0203,0.69354 -0.0854,0.97321 -0.026,0.11132 0.0185,0.23118 -0.0171,0.3244 -0.0314,0.0823 -0.49821,0.58188 -0.58051,0.63173 -0.16169,0.098 -0.42514,0.005 -0.6488,0.0512 -0.18884,0.0393 -0.50846,0.008 -0.70003,-0.0341 -0.34575,-0.0753 -0.72854,-0.0109 -1.05858,-0.0854 -0.0627,-0.006 -0.12515,-0.0115 -0.18781,-0.0171 -0.0604,-0.0306 -0.0901,-0.10774 -0.13659,-0.15366 -0.0521,-0.75262 -0.13659,-1.55065 -0.13659,-2.39034 0,-0.26089 -0.0584,-0.76149 0.0171,-0.97321 0.0744,-0.20881 0.48797,-0.51 0.63173,-0.70003 0.20284,-0.26823 0.46628,-0.48678 0.66588,-0.75125 a 7.9352903,7.9352903 0 0 1 0.81954,-0.92199 z m -57.53886,0.49514 c 0.0285,0.006 0.0569,0.0115 0.0854,0.0171 0.006,0.0171 0.0114,0.0341 0.0171,0.0512 0.0567,0.0845 0.0108,0.3273 -0.0171,0.40977 -0.097,0.28718 -0.25577,0.59844 -0.3927,0.87077 -0.0512,0.10193 -0.0586,0.24979 -0.17074,0.29025 -0.0242,0.0164 -0.0558,0.0167 -0.10244,0.0171 -0.17211,-0.18388 -0.35292,-0.36538 -0.52929,-0.54636 0.002,-0.21871 0.10432,-0.23493 0.18781,-0.35855 0.23375,-0.34608 0.601,-0.49343 0.92199,-0.75125 z m -3.67088,0.47807 c 0.26157,-0.002 0.99711,0.11986 1.16102,0.22196 0.14001,0.0872 0.21172,0.2684 0.34148,0.35855 0.0623,0.0434 0.14205,0.0427 0.20489,0.0854 0.13283,0.0902 0.26105,0.28086 0.35855,0.40977 0.13454,0.17774 0.40294,0.27711 0.47806,0.51222 0.0936,0.29281 -0.18542,0.81749 -0.25611,0.99028 -0.0439,0.10722 -0.0398,0.23664 -0.10244,0.3244 -0.047,0.0657 -0.13625,0.0907 -0.20488,0.13659 -0.21599,0.14462 -0.43573,0.28394 -0.66589,0.42685 -0.18388,0.11405 -0.36657,0.28581 -0.56343,0.37562 -0.25747,0.11747 -0.53082,0.14616 -0.81955,0.23904 -0.62763,0.20198 -1.28036,0.31125 -1.96349,0.47806 q -0.5035,0.0597 -1.00735,0.11952 c -0.20779,0.0451 -0.43061,-0.006 -0.61466,0.0341 h -0.83662 c -0.56224,0.007 -1.21771,0.0524 -1.65616,-0.11952 -0.12259,-0.19959 -0.10347,-0.38194 -0.17074,-0.6488 -0.11798,-0.46868 -0.12959,-0.99985 -0.23903,-1.5025 -0.0623,-0.28633 -0.03,-0.67254 0.13659,-0.7854 0.20812,-0.14086 1.07718,-0.13078 1.3659,-0.0683 0.23955,0.0519 0.412,-0.0958 0.63174,-0.0512 0.3565,0.0724 0.76952,0.005 1.14394,0 0.1786,-0.002 0.48524,0.0635 0.61466,0.0341 0.5689,-0.12942 1.02955,-0.39884 1.46835,-0.66588 0.22589,-0.13744 0.49531,-0.2153 0.70003,-0.37562 0.0761,-0.0598 0.0953,-0.17706 0.15366,-0.25611 0.0796,-0.10756 0.24518,-0.17808 0.34148,-0.27318 z m 54.92656,0.49514 h 0.11952 c 0.0108,0.0299 0.003,0.0165 0.0171,0.0341 -0.0707,0.28069 -0.40226,0.58358 -0.56343,0.80247 -0.42685,0.57983 -0.87811,1.14172 -1.29762,1.72445 -0.13727,0.19055 -0.27574,0.37717 -0.40977,0.56344 -0.0654,0.0908 -0.0861,0.19977 -0.22196,0.22196 -0.006,-0.0171 -0.0114,-0.0341 -0.0171,-0.0512 -0.0192,-0.0296 -0.0297,-0.13198 -0.0171,-0.18781 0.0458,-0.20267 -0.0364,-0.49446 0.0171,-0.7171 0.0589,-0.24535 0.20744,-0.42412 0.3244,-0.61466 0.161,-0.26242 0.28701,-0.54483 0.44392,-0.80247 0.0961,-0.15777 0.14137,-0.44426 0.29025,-0.54637 0.10347,-0.0708 0.25372,-0.0463 0.3927,-0.0854 0.22555,-0.0633 0.44973,-0.15486 0.64881,-0.23904 0.0937,-0.0396 0.19976,-0.044 0.27317,-0.10244 z m -42.8895,0.461 h 0.0854 c 0.0756,0.14273 0.0683,0.31125 0.11951,0.49514 0.0456,0.1639 0.10791,0.3495 0.1366,0.52928 -0.006,0.0456 -0.0115,0.091 -0.0171,0.13659 v 0.61466 c 0,0.49719 0.0359,1.05192 -0.0171,1.51957 -0.15811,0.10347 -0.31621,0.24091 -0.47807,0.34148 -0.12908,0.0801 -0.26345,0.1074 -0.40978,0.17074 -0.0944,0.0408 -0.20488,0.12413 -0.30732,0.15367 -0.17655,0.0509 -0.64591,-0.0476 -0.68296,-0.13659 -0.0404,-0.064 0.009,-0.22965 0.0341,-0.30734 0.0731,-0.22332 0.14428,-0.47738 0.22196,-0.70002 q 0.0684,-0.23895 0.13659,-0.47807 c 0.19704,-0.47653 0.41268,-0.96741 0.61466,-1.4342 0.0647,-0.14974 0.0849,-0.43539 0.17074,-0.56344 z m 23.80095,0 c 0.0592,-0.002 0.1371,-0.006 0.17074,0.0171 0.23084,0.0789 0.2725,0.84277 0.35855,1.10981 0.0611,0.18952 0.14462,0.39491 0.20489,0.58051 q 0.0428,0.23049 0.0854,0.46099 c 0.0304,0.10722 0.10995,0.31313 0.0683,0.461 -0.083,0.29452 -0.42975,0.44425 -0.59759,0.66587 -0.0814,0.10757 -0.2071,0.29624 -0.34147,0.34148 -0.11149,0.0376 -0.27164,0.0108 -0.37562,0.0341 l -1.41713,0.0512 c -0.18014,1.9e-4 -0.43676,0.0703 -0.49514,-0.0683 -0.068,-0.0889 -0.0215,-0.2433 -0.0512,-0.37562 -0.0261,-0.11645 -0.12532,-0.29948 -0.10244,-0.42685 0.0261,-0.14581 0.24108,-0.42395 0.3244,-0.54636 0.15503,-0.22794 0.29845,-0.44819 0.46099,-0.66588 0.0965,-0.12908 0.24485,-0.23084 0.34148,-0.35856 0.0785,-0.1038 0.17057,-0.24654 0.27318,-0.3244 0.26038,-0.19737 0.45963,-0.4714 0.7171,-0.66588 0.12311,-0.093 0.26397,-0.1832 0.37563,-0.29025 z m -76.1152,0.18781 a 1.6347863,1.6347863 0 0 1 0.35855,0.0341 c 0.26158,0.0581 0.46625,-0.0635 0.7171,0 0.28038,0.071 0.61143,0.15707 0.90491,0.23903 0.22495,0.0628 0.46405,0.0693 0.68296,0.11952 q 0.18781,0.008 0.37562,0.0171 c 0.37638,0.0847 0.69923,0.0922 0.87077,0.37562 0.0948,0.15657 0.0123,0.70344 0,0.92199 -0.0438,0.77618 -0.0771,1.61416 -0.17074,2.37326 -0.18466,0.14342 -0.40607,0.19003 -0.64881,0.29026 -0.0845,0.0348 -0.2082,0.12583 -0.35855,0.0854 -0.28855,-0.0775 -0.60984,-0.1984 -0.88784,-0.29026 -0.48736,-0.16118 -0.98379,-0.2783 -1.40005,-0.49514 -0.17522,-0.0913 -0.69305,-0.29435 -0.7854,-0.42685 -0.0512,-0.0666 -0.0302,-0.61346 0,-0.75125 0.0325,-0.14751 -0.003,-0.32645 0.0341,-0.49514 0.12932,-0.58921 0.0181,-1.31844 0.15366,-1.89519 a 1.4943198,1.4943198 0 0 0 0.15367,-0.10245 z m 80.50318,0.56343 c 0.2001,0.004 0.35599,0.0961 0.51221,0.15367 0.26464,0.0977 0.58905,0.22042 0.80247,0.37562 0.23067,0.16784 0.34387,0.48319 0.49514,0.73418 0.10808,0.17927 0.26994,0.41933 0.27319,0.68295 -0.0413,0.0222 -0.0483,0.0307 -0.11952,0.0341 -0.0563,-0.0429 -0.12993,-0.0406 -0.20489,-0.0683 -0.20506,-0.0755 -0.43333,-0.15759 -0.63173,-0.23903 -0.0498,-0.0205 -0.0934,-0.009 -0.13659,-0.0341 -0.3664,-0.21632 -0.55114,-0.65546 -0.75125,-1.0415 -0.076,-0.14684 -0.3203,-0.43146 -0.23903,-0.59759 z m -64.09522,1.94642 c 0.17808,8.6e-4 0.26601,0.0867 0.37562,0.15367 0.25765,0.15724 0.85148,0.33891 0.85369,0.71709 -0.22776,0.15162 -0.7649,0.25577 -1.0415,0.0683 -0.0831,-0.0563 -0.0999,-0.16749 -0.15367,-0.2561 -0.15707,-0.25867 -0.28683,-0.41216 -0.0341,-0.68295 z m 107.94084,1.51958 h 0.3927 c 0.0314,0.0499 0.0468,0.0495 0.0512,0.13659 -0.12857,0.12617 -0.23238,0.28137 -0.34148,0.42684 -0.0821,0.10962 -0.20796,0.19789 -0.29026,0.30733 -0.10398,0.1383 -0.21239,0.33601 -0.39269,0.3927 -0.17245,0.0543 -0.75808,-0.147 -0.90492,-0.18781 -0.45656,-0.12669 -0.93018,-0.16528 -1.38298,-0.27318 -0.24433,-0.0582 -0.51307,-0.0499 -0.73418,-0.10245 a 0.26647146,0.26647146 0 0 1 -0.0171,-0.0854 c 0.17313,-0.11183 0.43266,-0.37545 0.61466,-0.44391 0.16067,-0.0604 0.39492,0.0232 0.58051,-0.0171 0.22726,-0.0495 0.5042,-0.0386 0.71711,-0.0854 h 0.35854 c 0.25048,-0.004 0.58376,-3.3e-4 0.81955,-0.0512 0.15349,-0.0331 0.41114,0.057 0.52929,-0.0171 z m -107.63351,0.0854 c 0.23237,-0.004 0.35155,0.13334 0.51221,0.20488 0.46936,0.20882 0.90935,0.4639 1.36591,0.66588 0.18645,0.0825 0.61739,0.22674 0.7171,0.37563 0.0587,0.0727 0.0306,0.2322 0,0.3244 -0.0864,0.26106 -0.18542,0.54636 -0.29025,0.7854 -0.0476,0.10859 -0.0555,0.23357 -0.17074,0.27318 -0.0857,0.0555 -0.2346,-0.0145 -0.30733,-0.0341 l -0.29026,-0.0512 c -0.15059,-0.0575 -0.27011,-0.18645 -0.39269,-0.27318 -0.3396,-0.2404 -0.65735,-0.49856 -0.99029,-0.73417 -0.12942,-0.0917 -0.35581,-0.18082 -0.42685,-0.32441 -0.0417,-0.0843 -0.0234,-0.27591 0,-0.37562 0.0666,-0.28258 0.10006,-0.65547 0.27319,-0.83662 z m -17.00555,0.47806 c 0.40305,-0.003 0.82407,0.13301 1.14395,0.23903 0.18905,0.0627 0.4136,0.0101 0.40977,0.27319 -0.0398,0.0435 -0.0495,0.10415 -0.0854,0.15366 -0.10885,0.15042 -0.3886,0.33499 -0.58051,0.3927 -0.18498,0.0557 -0.37349,-0.0396 -0.49514,-0.10244 -0.13051,-0.0673 -0.33123,-0.10449 -0.40978,-0.22196 -0.0967,-0.14479 -0.0944,-0.53424 -0.0512,-0.70003 0.0383,-0.0101 0.0453,-0.0128 0.0683,-0.0341 z m 3.03914,1.14395 c 0.23117,-0.004 0.44372,0.0109 0.61466,0.0512 0.12321,0.19738 0.0756,0.34302 0.13659,0.61466 0.0805,0.35838 0.14727,0.86957 0.0512,1.24639 l -0.88783,0.51222 c -0.23095,0.16561 -0.52481,0.48694 -0.81955,0.56343 -0.0854,0.0222 -0.15025,-0.0254 -0.22196,-0.0341 -0.24313,-0.31843 -0.42214,-0.58836 -0.59759,-0.99028 -0.0363,-0.0832 -0.18219,-0.24279 -0.10244,-0.37562 0.0727,-0.20336 0.31809,-0.33568 0.461,-0.47807 0.24854,-0.24758 0.4684,-0.52058 0.75124,-0.73418 l 0.13659,-0.15366 c 0.1389,-0.1004 0.33417,-0.11969 0.47807,-0.22196 z m 121.42919,0.7171 c 0.0512,0.006 0.10244,0.0115 0.15366,0.0171 0.0942,0.15025 0.14239,0.33021 0.22196,0.51222 0.0925,0.21154 0.26379,0.39628 0.27318,0.68295 -0.0954,0.0589 -0.26139,0.054 -0.42685,0.0512 -0.0837,-0.0495 -0.30749,-0.0354 -0.40977,-0.0683 q -0.47789,-0.17082 -0.95613,-0.34147 c -0.1021,-0.07 -0.12208,-0.23306 -0.18781,-0.34148 -0.054,-0.089 -0.11661,-0.1231 -0.11952,-0.27318 0.22332,-0.19738 0.75142,-0.13045 1.09272,-0.20489 0.11969,-0.0262 0.2696,0.022 0.35856,-0.0341 z m -93.6159,1.67324 c 0.99558,-0.0125 1.53938,0.20984 2.13424,0.58051 0.0657,0.041 0.13898,0.0446 0.20488,0.0854 0.21394,0.1325 0.39594,0.3466 0.54636,0.54637 q 0.0768,0.0684 0.15367,0.13659 c 0.13317,0.17928 0.28479,0.38706 0.37562,0.59758 l 0.20489,0.61466 q 0.008,0.14521 0.0171,0.29026 c 0.14052,0.60219 0.0939,1.43864 -0.11952,1.92934 -0.0442,0.10176 -0.13147,0.19789 -0.18781,0.29026 -0.42702,0.69917 -0.9295,1.31417 -1.72446,1.63908 -0.3355,0.13711 -0.76149,0.13984 -1.14394,0.22196 h -0.32441 c -0.692,0 -1.08931,-0.24449 -1.48542,-0.52928 -0.79513,-0.57163 -1.18339,-1.13388 -1.5025,-2.18546 -0.0995,-0.32815 -0.17552,-0.96672 -0.0854,-1.3659 0.0403,-0.17825 0.0637,-0.35941 0.11951,-0.52929 0.044,-0.13403 0.12737,-0.24689 0.18781,-0.35855 0.09,-0.16613 0.14052,-0.34011 0.23904,-0.49514 0.20574,-0.32355 0.56207,-0.59451 0.87076,-0.81955 0.15025,-0.10961 0.25372,-0.2614 0.44392,-0.34147 0.14172,-0.0596 0.26635,-0.0528 0.42685,-0.10245 0.0917,-0.0283 0.18388,-0.10449 0.27318,-0.13659 0.11559,-0.0415 0.27967,-0.006 0.37562,-0.0683 z m 31.82566,0.0171 c 0.94572,-0.0104 1.35686,0.39867 1.55372,1.14394 0.0659,0.24928 0.0618,0.59196 -0.0171,0.83662 -0.0966,0.29948 -0.29418,0.60425 -0.461,0.8537 -0.0569,0.0849 -0.17244,0.1704 -0.20488,0.27318 -0.0423,0.13454 0.0618,0.26857 0.10244,0.34147 0.14018,0.25167 0.29231,0.50215 0.44393,0.73418 0.0623,0.0956 0.0941,0.24518 0.20488,0.29025 0.0242,0.0164 0.0558,0.0167 0.10244,0.0171 0.1202,-0.12549 0.28394,-0.22315 0.29026,-0.46099 -0.0943,-0.0495 -0.23562,-0.078 -0.27318,-0.18781 -0.0879,-0.12225 -0.0309,-0.77174 0,-0.92199 a 0.42621433,0.42621433 0 0 0 0.0854,-0.0683 q 0.38415,0.008 0.76832,0.0171 c 0.21308,0 0.48233,-0.0229 0.66588,0.0171 0.2713,0.0589 0.56753,-0.0698 0.59758,0.22196 0.0671,0.10466 0.0215,0.73742 0,0.83662 -0.16169,0.0925 -0.32542,0.0639 -0.51221,0.10245 -0.2083,0.32576 -0.41216,0.65051 -0.59758,1.00735 -0.069,0.13284 -0.19226,0.24979 -0.20489,0.42685 0.19157,0.17449 0.38023,0.3425 0.59758,0.49514 0.11969,0.084 0.25696,0.10005 0.27318,0.29025 -0.0248,0.0338 -0.0266,0.0843 -0.0512,0.11952 -0.17091,0.24535 -0.40106,0.46031 -0.61465,0.66588 -0.35992,0.005 -0.90833,-0.4639 -1.09273,-0.66588 -0.25082,0.01 -0.37699,0.23664 -0.54637,0.34148 -0.22298,0.13795 -0.49001,0.20369 -0.78539,0.27318 -0.37785,0.089 -0.70754,-0.0534 -0.93906,-0.15367 -0.12874,-0.0558 -0.23664,-0.0784 -0.34148,-0.15366 -0.0973,-0.0698 -0.1774,-0.18406 -0.27318,-0.25611 -0.0471,-0.0355 -0.10228,-0.0562 -0.13659,-0.10244 -0.28667,-0.38672 -0.43743,-1.18356 -0.20489,-1.74153 0.14684,-0.35241 0.35053,-0.66588 0.56344,-0.95614 0.10602,-0.14444 0.37921,-0.38911 0.40977,-0.58051 0.0185,-0.11576 -0.0989,-0.20284 -0.13659,-0.27318 q -0.0428,-0.1196 -0.0854,-0.23904 c -0.0799,-0.13795 -0.19379,-0.29554 -0.25611,-0.44391 -0.28428,-0.67596 -0.10517,-1.47945 0.37563,-1.82691 0.11781,-0.085 0.28069,-0.15725 0.42684,-0.20488 0.0914,-0.0299 0.19977,-0.0196 0.27318,-0.0683 z m 11.90047,0.0341 a 3.1706126,3.1706126 0 0 1 0.76832,0.0854 c 0.0285,0.0429 0.0859,0.0862 0.10244,0.13659 0.0461,0.14052 -0.0111,0.37682 -0.0341,0.47807 v 0.23903 c -0.0432,0.19311 -0.0589,0.41028 -0.10244,0.59759 q -0.0256,0.32448 -0.0512,0.6488 v 0.32441 c -0.0592,0.2713 -0.0871,0.99096 -0.0341,1.22931 v 0.3927 c 0,0.20216 -0.005,0.42104 0.0341,0.59758 0.0307,0.13813 -0.009,0.3268 0.0171,0.44393 q 0.008,0.17082 0.0171,0.34147 c 0.0502,0.21172 0.0662,0.51546 0.11951,0.73418 0.0294,0.1202 0.0541,0.32696 0,0.40977 -0.096,0.2795 -1.07837,0.20881 -1.40005,0.13659 -0.11969,-0.0268 -0.21513,-0.027 -0.30733,-0.0512 -0.15571,-0.24723 -0.0847,-0.55353 -0.0171,-0.85369 q 0.008,-0.30733 0.0171,-0.61466 c 0,-0.42565 0.0171,-0.88254 0.0171,-1.33175 v -0.56343 c -0.0386,-0.18116 0.0212,-0.34934 -0.0171,-0.5293 q -0.0341,-0.58033 -0.0683,-1.16102 c -0.005,-0.40669 0.005,-0.7649 -0.0683,-1.09272 -0.0463,-0.20728 0.007,-0.46492 0.13659,-0.51222 0.13881,-0.10398 0.4598,-0.0671 0.66588,-0.0683 0.0686,-3.2e-4 0.16289,0.009 0.20489,-0.0171 z m -36.07704,0.0171 a 2.0157378,2.0157378 0 0 1 0.47806,0.0512 q 0.18773,-0.008 0.37563,-0.0171 c 0.23476,-0.005 0.42599,0.0271 0.61466,0.0512 0.0377,0.0526 0.1091,0.0925 0.13659,0.15366 0.0435,0.0968 0.0225,0.19345 0.0512,0.30733 0.0577,0.22845 0.0656,0.45263 0.13659,0.68295 0.25338,0.82263 0.48899,1.69475 0.7171,2.56108 a 0.31181959,0.31181959 0 0 0 0.10244,0.0171 c 0.16084,-0.29588 0.18901,-0.63309 0.29026,-1.00735 0.0898,-0.33192 0.16988,-0.73691 0.25611,-1.05858 q 0.0172,-0.18773 0.0341,-0.37563 c 0.0379,-0.15776 0.075,-0.34813 0.11951,-0.49513 0.0799,-0.2638 0.003,-0.79923 0.29026,-0.8537 0.0618,-0.0398 0.23067,-0.0195 0.30733,0 0.28172,0.0717 0.75996,0.0347 1.0415,0.10244 0.21718,0.32441 -0.0516,0.76816 -0.15366,1.07566 -0.077,0.23169 -0.0925,0.43777 -0.17074,0.66588 -0.16357,0.47772 -0.31126,0.97884 -0.46099,1.46835 -0.065,0.21257 -0.0471,0.40123 -0.10245,0.61465 -0.10688,0.41217 -0.19686,0.87248 -0.30733,1.26347 -0.11149,0.39458 -0.18064,0.75108 -0.3244,1.09272 -0.0654,0.15538 -0.0582,0.32219 -0.18781,0.40978 -0.1091,0.0738 -0.76269,0.14103 -0.99028,0.0854 -0.36999,-0.0905 -0.37119,-0.38211 -0.49515,-0.7171 -0.24586,-0.66468 -0.42582,-1.37871 -0.6488,-2.04886 -0.0861,-0.25884 -0.15213,-0.49736 -0.23903,-0.73417 -0.0461,-0.12584 -0.0271,-0.2614 -0.17074,-0.29026 -0.18355,0.31757 -0.16152,0.7661 -0.27319,1.16102 -0.0772,0.27301 -0.14171,0.60458 -0.22196,0.87077 q -0.0341,0.20488 -0.0683,0.40977 c -0.0432,0.1383 -0.12429,0.30255 -0.17073,0.44392 -0.0876,0.26703 -0.14138,0.75142 -0.37563,0.85369 -0.10518,0.0459 -0.84959,0.0676 -0.97321,0.0341 -0.0862,-0.0234 -0.21035,-0.0866 -0.2561,-0.15367 -0.11235,-0.16493 -0.13028,-0.39611 -0.20489,-0.59758 -0.17466,-0.47209 -0.27967,-0.95187 -0.44392,-1.45128 -0.31399,-0.95494 -0.62166,-1.83987 -0.93906,-2.80011 -0.1202,-0.36367 -0.19123,-0.72854 -0.32441,-1.09272 -0.0604,-0.16494 -0.16134,-0.31467 -0.11951,-0.54637 0.27335,-0.15759 1.23307,-0.12054 1.55372,-0.0512 0.0307,0.0494 0.0939,0.0867 0.11951,0.13659 l 0.20489,0.97321 c 0.17637,0.5788 0.31962,1.1419 0.49514,1.72446 0.0608,0.20181 0.13062,0.85284 0.30733,0.88784 0.0763,-0.12942 0.0927,-0.27694 0.15366,-0.44392 0.24194,-0.66281 0.29351,-1.48338 0.49515,-2.20253 0.0546,-0.19498 0.0777,-0.36896 0.11951,-0.54636 q 0.0172,-0.19643 0.0341,-0.3927 c 0.0347,-0.0968 0.12276,-0.15434 0.18781,-0.22196 z m 11.01263,0 c 0.54619,0.002 1.03637,0.0698 1.58786,0.0683 0.58785,-0.002 0.96997,-0.16784 1.41713,0.13659 0.34404,0.23408 0.54261,0.79564 0.76832,1.16102 0.19721,0.31928 0.66179,0.78113 0.49514,1.38298 -0.092,0.33226 -0.65717,0.78335 -0.92198,0.97321 -0.15418,0.11047 -0.45007,0.19925 -0.461,0.44392 0.37836,0.3927 0.66059,0.89262 0.99029,1.33176 0.17654,0.23511 0.50043,0.3075 0.47806,0.70003 -0.14478,0.10927 -0.30015,0.22674 -0.46099,0.3244 q -0.13651,0.0597 -0.27318,0.11952 c -0.11286,0.0685 -0.22725,0.15145 -0.37563,0.18781 -0.10585,0.026 -0.20317,-0.0188 -0.27318,-0.0341 -0.43743,-0.6961 -0.69815,-1.61809 -1.26346,-2.18545 -0.19123,-0.003 -0.3256,0.0297 -0.49514,0.0512 a 0.86443159,0.86443159 0 0 1 -0.10244,0.13659 c -0.001,0.2947 -0.007,0.55371 0.0512,0.81955 v 0.18781 c 0.0635,0.28462 0.12344,0.50897 0.0512,0.80247 -0.25116,0.16186 -0.87879,0.20045 -1.2464,0.11952 -0.17825,-0.0393 -0.28923,0.0186 -0.37562,-0.10244 -0.0384,-0.0505 -0.056,-0.2247 -0.0341,-0.32441 0.0717,-0.32782 0.0541,-0.64659 0.13659,-0.97321 0.0345,-0.13659 0.10927,-0.33516 0.0683,-0.52929 -0.0312,-0.1482 -0.0545,-0.57846 -0.0171,-0.75125 0.048,-0.2223 -0.0169,-0.5479 -0.0171,-0.80247 -3.2e-4,-0.56497 0.0145,-1.09136 0.0171,-1.63909 0.002,-0.42889 -0.19191,-1.43317 0.15367,-1.55372 0.027,-0.0208 0.0758,-0.0299 0.10244,-0.0512 z m 46.50915,0 q 0.48661,0.0172 0.97321,0.0341 c 0.18816,0.041 0.51426,0.0698 0.75125,0.0341 0.38673,-0.0584 0.85711,-0.11439 1.16102,0.0683 0.45348,0.2725 0.62696,0.81391 0.90492,1.26346 0.2083,0.33687 0.47824,0.55234 0.47807,1.1098 q -0.008,0.14522 -0.0171,0.29026 c -0.11764,0.31928 -0.68313,0.7644 -0.95614,0.95613 -0.15332,0.10774 -0.40328,0.17604 -0.40977,0.42685 0.0724,0.0567 0.11508,0.14769 0.17074,0.22196 0.0452,0.0604 0.12651,0.10961 0.17074,0.17074 0.21871,0.3022 0.40994,0.6068 0.63173,0.90491 0.16015,0.2153 0.49958,0.3075 0.51222,0.66588 -0.0227,0.0398 -0.0456,0.0797 -0.0683,0.11952 -0.19549,0.16681 -0.45655,0.23852 -0.68296,0.37562 -0.11063,0.0669 -0.23271,0.15282 -0.37562,0.18782 -0.10586,0.026 -0.20335,-0.0186 -0.27318,-0.0341 -0.0476,-0.0758 -0.12328,-0.14428 -0.17074,-0.22196 -0.0896,-0.14649 -0.11679,-0.3157 -0.18781,-0.47807 -0.17689,-0.40414 -0.4277,-0.77276 -0.64881,-1.12687 -0.0568,-0.091 -0.0732,-0.19106 -0.13659,-0.27319 -0.0398,-0.0285 -0.0797,-0.0569 -0.11951,-0.0854 -0.19925,-0.003 -0.50983,0.008 -0.58052,0.13659 -0.0755,0.13762 -0.0321,0.4388 0,0.58051 q 0.0172,0.24766 0.0341,0.49514 c 0.0659,0.2848 0.11354,0.49122 0.0512,0.7854 -0.2836,0.18081 -1.22761,0.21326 -1.58786,0.0683 a 0.42621433,0.42621433 0 0 0 -0.0683,-0.0854 c -0.005,-0.58051 0.0949,-1.06899 0.20489,-1.55371 q -0.008,-0.35011 -0.0171,-0.70003 c 0,-0.12789 0.0273,-0.31109 0.0171,-0.40977 -0.0753,-0.72479 -0.0575,-1.54297 -0.0171,-2.27083 0.0104,-0.18678 -0.002,-0.38706 -0.0341,-0.52929 v -0.52929 c -0.0109,-0.0505 -0.0365,-0.17927 -0.0171,-0.2561 0.0193,-0.0763 0.065,-0.14547 0.0854,-0.22196 0.0611,-0.0343 0.1639,-0.0727 0.22196,-0.11952 z m -14.34202,0.0171 c 0.36367,-0.004 0.71608,-0.004 0.99028,0.0683 q 0.0597,0.0768 0.11951,0.15366 c 0.0695,0.15025 0.0949,0.3688 0.1366,0.52929 q 0.0256,0.19643 0.0512,0.3927 c 0.24603,0.67561 0.31109,1.54433 0.51222,2.23667 0.0908,0.31262 0.0481,0.64232 0.13658,0.95614 0.0987,0.34984 0.17552,0.69029 0.29026,1.0415 0.0756,0.23169 0.15315,0.475 0.11952,0.7854 -0.0424,0.027 -0.0642,0.0767 -0.10245,0.10244 -0.0995,0.0674 -0.22247,0.0707 -0.34147,0.11952 -0.12327,0.0504 -0.26601,0.12822 -0.3927,0.17074 -0.0929,0.0311 -0.16186,0.0198 -0.25611,0.0512 -0.13197,0.044 -0.20659,0.11354 -0.3927,0.11951 q -0.0684,-0.0428 -0.13659,-0.0854 c -0.15708,-0.21496 -0.0954,-0.58682 -0.17073,-0.88784 -0.14837,-0.594 -0.2107,-1.24587 -0.3927,-1.80982 -0.0639,-0.19772 -0.0698,-0.77225 -0.29026,-0.7854 -0.0316,0.0517 -0.0917,0.10074 -0.11951,0.15366 q -0.16212,0.48661 -0.32441,0.97321 c -0.0782,0.18884 -0.1721,0.41148 -0.23903,0.61466 q -0.0341,0.20489 -0.0683,0.40977 c -0.0447,0.1453 -0.11576,0.32475 -0.17074,0.461 -0.0966,0.23971 -0.12958,0.77464 -0.35855,0.85369 -0.10244,0.0983 -0.2993,0.0314 -0.40977,0 -0.0451,-0.0729 -0.11764,-0.13727 -0.15367,-0.22196 q -0.0684,-0.24766 -0.13658,-0.49514 c -0.23238,-0.56583 -0.36589,-1.2049 -0.56345,-1.80983 -0.0662,-0.20301 -0.19241,-0.83457 -0.37562,-0.87077 -0.0953,0.16187 -0.11798,0.35412 -0.18781,0.56344 -0.20676,0.61995 -0.28411,1.30308 -0.44392,1.99764 -0.0721,0.31348 0.021,0.92114 -0.20489,1.05858 -0.0787,0.0478 -0.217,-0.007 -0.29025,-0.0341 -0.26601,-0.099 -0.57146,-0.20147 -0.81955,-0.32441 -0.168,-0.0833 -0.32303,-0.13027 -0.46099,-0.23903 l -0.10244,-0.15366 c -0.0234,-0.29145 0.105,-0.6512 0.18781,-0.90492 q 0.0172,-0.1365 0.0341,-0.27318 c 0.10074,-0.32713 0.19259,-0.72222 0.29026,-1.0415 0.0604,-0.19772 0.0334,-0.37546 0.0854,-0.58052 0.14803,-0.58426 0.21222,-1.24912 0.37563,-1.82689 0.1149,-0.40619 0.0623,-1.1069 0.34147,-1.33176 0.11337,-0.0913 0.34489,-0.0659 0.54636,-0.0683 0.34592,-0.004 0.85028,-0.0309 1.16102,0.0512 0.28753,0.52126 0.38912,1.23665 0.58051,1.86104 0.0528,0.17194 0.0835,0.60254 0.27319,0.61467 0.17996,-0.30546 0.2626,-0.67664 0.40977,-1.02444 0.0736,-0.17381 0.17603,-0.35787 0.23903,-0.54636 0.09,-0.26925 0.19021,-0.80383 0.3927,-0.93906 0.14069,-0.10483 0.47722,0.0123 0.63173,-0.0854 z m -58.15352,0.0171 c 0.59929,0.0144 1.25988,0.0512 1.89519,0.0512 q 0.36701,0.008 0.73418,0.0171 c 0.14239,-0.0304 0.33447,0.0307 0.47807,0 0.22383,-0.0478 0.51067,-0.0451 0.76832,-0.0341 0.0283,0.0375 0.0485,0.0347 0.0683,0.0854 0.0425,0.048 0.0582,0.25815 0.0341,0.35855 -0.0618,0.25747 -0.0896,1.00514 -0.30733,1.07565 -0.13078,0.0423 -0.28923,-0.0307 -0.37562,-0.0512 -0.19055,-0.0453 -0.53954,-0.0531 -0.68296,0 -0.11115,0.24825 -0.0174,1.01316 -0.0171,1.34884 3.3e-4,0.35667 -0.0149,0.66468 0.0512,0.9732 0.0273,0.12755 -0.0237,0.24791 0,0.35855 q 0.008,0.60596 0.0171,1.21225 c 0.0483,0.22366 -4.3e-4,0.46492 0.0512,0.70002 0.0352,0.15947 0.0676,0.36589 0.0341,0.54637 -0.0302,0.0164 -0.0287,0.0215 -0.0683,0.0341 -0.0859,0.0666 -0.33447,0.0341 -0.47806,0.0341 -0.32151,0 -1.13354,0.15246 -1.22932,-0.11952 -0.044,-0.0584 -0.0582,-0.28189 -0.0341,-0.3927 0.0604,-0.27881 0.0418,-0.62831 0.10245,-0.90491 v -0.23904 c 0.0309,-0.14256 0.0171,-0.35837 0.0171,-0.52928 v -0.97321 c 0,-0.6372 0.12617,-1.40979 -0.0171,-1.99765 -0.40875,-0.10295 -0.95614,0.19926 -1.36591,0.10245 -0.0258,-0.043 -0.0722,-0.10227 -0.0854,-0.15367 -0.0253,-0.0994 0.0333,-0.24484 0.0512,-0.3244 q 0.009,-0.15366 0.0171,-0.30733 c 0.0572,-0.22332 0.0828,-0.52997 0.13659,-0.76832 0.0341,-0.0285 0.0683,-0.0569 0.10244,-0.0854 0.0464,1.9e-4 0.0785,-8.7e-4 0.10245,-0.0171 z m 23.8863,0 a 0.96388667,0.96388667 0 0 1 0.20489,0.0171 c 0.22947,0.37238 0.40516,0.92711 0.34147,1.48543 -0.0586,0.0398 -0.0587,0.0751 -0.15366,0.0854 -0.16971,0.10841 -0.48012,-0.0447 -0.63173,-0.0854 -0.19567,-0.0524 -0.4236,0.0154 -0.64881,-0.0341 -0.27591,-0.0606 -0.61175,-0.0162 -0.87077,0 -0.0334,0.043 -0.0635,0.043 -0.0854,0.10244 -0.0388,0.0497 -0.056,0.22538 -0.0341,0.3244 0.0531,0.24057 0.0116,0.56873 0.0683,0.7854 0.3227,0.19823 1.1238,0.10245 1.62202,0.10245 0.24501,0 0.58102,-0.0456 0.68295,0.10244 0.0411,0.0512 0.0582,0.25628 0.0341,0.35855 -0.0637,0.27011 -0.0994,0.57317 -0.17073,0.83662 -0.0304,0.11217 -0.002,0.2153 -0.10245,0.2561 -0.0931,0.0541 -0.26925,-0.0516 -0.35855,-0.0854 -0.12259,-0.0464 -0.26566,-0.11968 -0.39269,-0.15366 -0.12157,-0.0325 -0.74972,-0.0193 -0.83662,0 -0.18286,0.0404 -0.4178,-0.0273 -0.44392,0.17074 -0.0447,0.068 0.002,0.21154 -0.0171,0.30733 -0.0405,0.20762 -0.0731,0.6249 0.0854,0.68295 0.13642,0.10432 0.37869,0.042 0.58051,0.0854 0.24535,0.0528 0.47243,0.007 0.68295,-0.0341 q 0.17082,0.008 0.34148,0.0171 c 0.24808,-0.0543 0.50112,-0.0273 0.76832,-0.0171 0.0171,0.0227 0.0341,0.0456 0.0512,0.0683 0.0603,0.0744 0.0319,0.28582 0,0.3927 -0.0642,0.21496 -0.17654,0.45792 -0.25611,0.66588 -0.0471,0.1231 -0.0442,0.24757 -0.17073,0.29026 -0.0668,0.0471 -0.32407,0.0604 -0.44392,0.0341 -0.34507,-0.0756 -0.78523,-0.0543 -1.19517,-0.0512 -0.44512,0.004 -0.95136,0.0941 -1.38298,0 -0.28394,-0.0618 -0.5199,0.049 -0.66588,-0.15367 -0.0963,-0.13368 -0.0222,-0.33465 -0.0171,-0.51221 0.0109,-0.38024 0.11678,-0.82672 0.0512,-1.26347 -0.043,-0.28735 -0.0147,-0.65666 -0.0171,-0.9732 -0.003,-0.33499 -0.0353,-0.70276 0.0341,-1.02443 0.0251,-0.11594 -0.0162,-0.24365 -0.0341,-0.32441 -0.0536,-0.24177 0.0142,-0.55865 0.0512,-0.75125 0.0847,-0.44119 -0.12072,-1.0415 -0.0683,-1.50249 0.0663,-0.0432 0.11849,-0.11269 0.20488,-0.13659 q 0.367,0.009 0.73418,0.0171 c 0.14939,-0.0323 0.34267,0.0332 0.49514,0 0.2923,-0.0635 0.68312,-0.0171 1.00736,-0.0171 0.29367,0 0.76747,0.0574 0.95613,-0.0683 z m 21.6155,0 c 0.78147,0.01 1.65343,0.069 2.45864,0.0683 q 0.24765,-0.008 0.49513,-0.0171 c 0.0365,0.005 0.10945,0.0302 0.17074,0.0171 0.22384,-0.0481 0.54893,-0.0671 0.7854,-0.0171 0.1313,0.19925 0.0541,0.48199 0,0.7171 -0.0264,0.11508 -0.013,0.23869 -0.0341,0.3244 -0.0452,0.18235 -0.0207,0.33823 -0.15367,0.42685 -0.0678,0.0516 -0.24381,0.0427 -0.34147,0.0171 -0.21376,-0.0562 -0.55644,-0.0796 -0.76832,-0.0341 -0.0229,0.092 -0.0639,0.27096 -0.0341,0.40977 0.008,0.0359 0.03,0.12533 0.0171,0.18781 -0.0229,0.1103 0,0.28855 0,0.44393 0,0.39935 -0.0207,0.85266 0.0512,1.17809 v 0.44392 c 0,0.40038 -0.0242,0.7743 0.0341,1.16102 0.0499,0.33072 0.0198,0.66383 0.0854,0.95614 0.036,0.16032 0.0275,0.32525 -0.0683,0.3927 -0.0893,0.068 -0.34762,0.0341 -0.49514,0.0341 -0.39048,0 -0.81852,0.0717 -1.16102,-0.0171 -0.0345,-0.0582 -0.0838,-0.11354 -0.10244,-0.18781 -0.0152,-0.0606 0.01,-0.15367 0.0171,-0.18781 0.0582,-0.27045 0.0135,-0.53373 0.0683,-0.7854 0.0845,-0.38826 0.0336,-0.77908 0.0341,-1.19517 q 0.008,-0.24766 0.0171,-0.49514 c -0.0305,-0.14257 -0.0536,-0.44546 -0.0171,-0.61466 a 1.5153377,1.5153377 0 0 0 0.0341,-0.30733 c 0.002,-0.30853 0.0219,-0.63839 0,-0.90491 -0.0142,-0.17279 0.0319,-0.37631 -0.0683,-0.461 -0.0529,-0.0391 -0.1593,-0.0388 -0.25611,-0.0171 -0.23084,0.0519 -0.49668,0.0634 -0.73418,0.11952 -0.16629,0.0393 -0.33755,0.0628 -0.3927,-0.0854 -0.0712,-0.0907 -0.0208,-0.31484 0,-0.44392 0.0551,-0.34284 0.0912,-0.71676 0.17075,-1.0415 0.049,-0.027 0.13692,-0.0495 0.18781,-0.0854 z m 18.52512,0 c 0.25099,-0.001 0.46629,-0.001 0.64881,0.0683 0.16647,0.0637 0.25867,0.2252 0.35854,0.35855 0.24092,0.32167 0.52913,0.60646 0.76833,0.93906 0.15076,0.2095 0.52792,0.48831 0.3927,0.90491 -0.15981,0.49241 -0.86855,0.87555 -1.22932,1.21224 v 0.11952 c 0.39611,0.36743 0.96945,0.72274 1.12688,1.31469 0.075,0.28189 -0.16033,0.57215 -0.25611,0.70003 -0.33977,0.45348 -0.9097,0.95477 -1.53665,1.1098 -0.12395,0.0305 -0.46048,0.0662 -0.59758,0.0341 -0.16682,-0.0389 -0.4289,-0.11866 -0.66588,-0.0683 -0.25372,0.054 -0.77959,0.12481 -1.0415,0.0683 -0.2667,-0.0575 -0.59759,0.0618 -0.64882,-0.20489 -0.0321,-0.0521 -0.056,-0.43077 -0.0341,-0.52929 0.0833,-0.37699 0.10245,-0.80998 0.10245,-1.28054 0,-0.48984 0.0244,-1.02647 -0.0683,-1.45127 q -0.008,-0.39261 -0.0171,-0.7854 c -0.064,-0.29008 -0.10824,-0.7912 -0.0512,-1.07565 0.0176,-0.0876 -0.02,-0.19106 -0.0342,-0.25611 v -0.30733 c -0.0452,-0.21069 -0.0461,-0.52946 0,-0.7171 0.42036,-0.26003 1.51975,-0.0147 2.08301,-0.13659 0.1786,-0.0386 0.57147,0.0627 0.70003,-0.0171 z m 6.36855,0 a 0.96388667,0.96388667 0 0 1 0.20488,0.0171 c 0.17637,0.27933 0.28855,0.70037 0.37562,1.05858 0.0483,0.19874 -0.0154,0.45024 -0.13659,0.49514 -0.14427,0.1103 -0.45895,0.013 -0.61466,-0.0341 -0.38996,-0.11798 -1.21531,-0.13454 -1.62201,-0.0512 -0.15349,0.23904 -0.0758,0.84362 -0.0341,1.1781 0.45552,0.29332 1.65958,0.0118 2.28789,0.17074 0.16305,0.26583 -0.0145,0.86649 -0.0854,1.14394 -0.036,0.14086 -0.003,0.30221 -0.11952,0.35855 -0.11149,0.0654 -0.31552,-0.0847 -0.40977,-0.11951 -0.11678,-0.043 -0.23442,-0.0908 -0.34147,-0.11952 -0.1214,-0.0326 -0.74988,-0.0191 -0.83662,0 -0.16084,0.0355 -0.34404,-0.007 -0.42685,0.10244 -0.0686,0.0912 -0.0511,0.38912 -0.0512,0.52929 -8.7e-4,0.16271 -0.0495,0.37597 0.0171,0.47807 0.0809,0.1243 0.28667,0.0816 0.461,0.11952 0.30135,0.0656 0.6249,0.0347 0.88783,-0.0171 0.0948,-0.0186 0.31946,0.0131 0.44393,0 0.20215,-0.0214 0.60151,-0.0881 0.71709,0.0683 0.0584,0.0726 0.03,0.27113 0,0.37562 -0.0683,0.23767 -0.18166,0.49634 -0.27318,0.7171 -0.0442,0.10672 -0.0306,0.1803 -0.11951,0.23904 -0.0734,0.0574 -0.33243,0.0835 -0.47807,0.0512 -0.34814,-0.0773 -0.7982,-0.0563 -1.21224,-0.0512 -0.42668,0.005 -0.95494,0.0915 -1.36591,0 -0.2836,-0.0632 -0.52024,0.0511 -0.66588,-0.15367 -0.0785,-0.1103 -0.0374,-0.27745 -0.0171,-0.40977 0.0507,-0.33021 0.0512,-0.61927 0.0512,-0.97321 0,-0.37084 0.009,-0.77447 -0.0341,-1.12687 -0.0102,-0.0823 0.041,-0.23118 0.0171,-0.34148 -0.0446,-0.20471 -0.0109,-0.73417 0.0341,-0.93906 0.0244,-0.11149 -0.0214,-0.22452 -0.0341,-0.30733 -0.0415,-0.26925 0.0237,-0.54909 0.0512,-0.76832 0.006,-0.0451 -0.0106,-0.14001 0,-0.18781 0.0376,-0.17057 -0.0195,-0.50641 -0.0512,-0.64881 v -0.23903 c -0.0185,-0.0844 -0.0714,-0.28736 -0.0171,-0.37563 a 0.2120742,0.2120742 0 0 1 0.13659,-0.13659 c 0.18098,-0.13403 0.55951,0.0352 0.80247,-0.0171 0.1494,-0.0321 0.34268,0.0332 0.49515,0 0.35206,-0.0765 0.80024,-0.0174 1.19516,-0.0171 0.23323,1.9e-4 0.60646,0.0393 0.76833,-0.0683 z m -37.44296,0.0341 c 0.31484,-0.005 0.85455,0.0109 1.0415,0.13659 0.22794,0.15315 0.2177,0.55763 0.29026,0.87077 0.0162,0.0702 0.0587,0.19293 0.0341,0.29025 -0.0273,0.10791 -0.0891,0.15418 -0.15366,0.22196 -0.30819,-0.004 -0.50249,-0.15742 -0.7854,-0.22196 -0.55439,-0.12652 -1.00343,0.55849 -0.7171,1.02443 0.10551,0.1716 0.2672,0.29128 0.40977,0.42685 0.4277,0.40687 0.88562,0.82671 1.1098,1.4342 0.084,0.22759 0.19669,0.68005 0.10244,1.00736 -0.0446,0.15452 -0.1062,0.36111 -0.18781,0.49514 -0.37579,0.61739 -0.85813,0.86974 -1.63909,1.07565 -0.15349,0.0404 -0.35838,0.0135 -0.49514,-0.0171 q -0.18773,-0.0172 -0.37563,-0.0341 c -0.33857,-0.1091 -0.37477,-0.33653 -0.49514,-0.66588 -0.0763,-0.20881 -0.15264,-0.46646 -0.0854,-0.73417 a 0.42621433,0.42621433 0 0 0 0.0854,-0.0683 c 0.34831,-0.0186 0.64078,0.2199 1.05858,0.10244 0.55695,-0.1564 0.5397,-0.82535 0.29026,-1.29761 -0.0562,-0.10637 -0.15367,-0.18133 -0.22196,-0.27318 -0.29128,-0.39117 -0.71318,-0.6722 -0.97321,-1.09273 -0.0919,-0.14837 -0.14342,-0.33926 -0.18781,-0.52929 v -0.29026 c -0.029,-0.13505 -0.021,-0.34079 0.0171,-0.47806 0.15298,-0.55234 0.71317,-1.05739 1.21224,-1.26347 q 0.33294,-0.0597 0.66588,-0.11951 z m -5.34411,0.7854 c -0.0172,0.0118 -0.0683,0.022 -0.0854,0.0341 -0.17381,0.064 -0.14069,0.31843 -0.18781,0.51221 -0.10518,0.43266 -0.0854,1.0188 -0.18781,1.46836 -0.0277,0.12105 -0.0449,0.44204 0,0.51221 0.11507,0.35257 0.75995,-0.12584 0.88783,-0.22196 0.18082,-0.13591 0.51837,-0.63241 0.58052,-0.88784 0.0463,-0.18986 -0.027,-0.39679 -0.0683,-0.51221 -0.14684,-0.40978 -0.4417,-0.8537 -0.93907,-0.90492 z m 35.46238,0 c -0.0183,0.0128 -0.0162,0.0102 -0.0512,0.0171 -0.24739,0.38808 -0.13727,1.05055 -0.13659,1.62201 0,0.17586 -0.05,0.54653 0.0512,0.63173 0.1383,0.10518 0.37666,-0.0832 0.47807,-0.13659 0.3034,-0.15998 0.559,-0.31569 0.81955,-0.51222 0.0997,-0.0751 0.154,-0.19959 0.23903,-0.29025 -0.002,-0.27164 -0.17415,-0.38843 -0.29026,-0.54636 -0.25696,-0.34933 -0.54209,-0.75074 -1.1098,-0.7854 z m 11.02971,0 c -0.0147,0.0111 -0.0536,0.0229 -0.0683,0.0341 -0.19873,0.0733 -0.15093,0.3927 -0.20488,0.61466 -0.0307,0.12685 -0.057,0.30067 -0.0854,0.42684 v 0.37563 c -0.0768,0.34267 -0.14889,0.82296 -0.0683,1.14394 0.0808,0.0406 0.12225,0.0681 0.25611,0.0683 q 0.26456,-0.14521 0.52929,-0.29025 c 0.20454,-0.14666 0.50931,-0.54449 0.61466,-0.7854 0.0756,-0.17261 0.0538,-0.44972 0,-0.61465 -0.14308,-0.43915 -0.43641,-0.94043 -0.97321,-0.97321 z m -34.7965,0.15366 c -0.0273,0.0268 -0.0792,0.0383 -0.10244,0.0683 -0.03,0.0389 -0.0353,0.0854 -0.0683,0.11952 -0.0156,0.22725 0.0575,0.70737 0.29025,0.7171 0.0917,-0.13574 0.29726,-0.3804 0.18781,-0.64881 -0.0451,-0.11046 -0.12907,-0.17722 -0.20488,-0.2561 z m -31.60369,0.22196 c -0.1185,0.0724 -0.4656,0.0746 -0.61466,0.13659 -0.31006,0.12874 -0.61551,0.42941 -0.7854,0.70003 -0.25628,0.40806 -0.4253,1.20302 -0.27318,1.84398 0.0363,0.15315 0.0145,0.28018 0.0683,0.40977 0.22759,0.54875 0.65171,0.94708 1.26347,1.1098 h 0.22196 c 0.31979,1.9e-4 0.52263,-0.0393 0.73417,-0.11952 0.39765,-0.15093 0.57078,-0.19294 0.80247,-0.51222 0.0591,-0.0813 0.14889,-0.15332 0.18782,-0.2561 0.05,-0.13199 0.0543,-0.24348 0.10244,-0.37563 0.0724,-0.19908 0.19378,-0.63037 0.11951,-0.95613 -0.2281,-1.00002 -0.35291,-1.45009 -1.22931,-1.8269 -0.17689,-0.076 -0.32577,-0.15486 -0.59759,-0.15367 z m 55.25097,2.66352 a 0.42621433,0.42621433 0 0 1 -0.0683,0.0854 c -0.003,0.2293 0.007,0.46031 0.0512,0.66588 v 0.52929 c 0.0384,0.17552 0.0452,0.42684 0.0854,0.58051 0.34302,0.1634 0.93463,-0.13471 1.09273,-0.3244 0.056,-0.0671 0.0715,-0.14445 0.11952,-0.22196 0.0623,-0.10057 0.21376,-0.21223 0.15366,-0.42685 -0.044,-0.15708 -0.17381,-0.23681 -0.29026,-0.3244 -0.31022,-0.2334 -0.59451,-0.56634 -1.14394,-0.56344 z m -23.71557,0.35855 c -0.19908,0.22247 -0.34814,0.55337 -0.44392,0.87077 -0.0389,0.12891 -0.0246,0.34011 0.0341,0.42684 0.19976,0.29453 0.95426,0.14837 1.05858,-0.11951 0.0321,-0.0348 0.0341,-0.0656 0.0341,-0.13659 -0.19549,-0.21718 -0.30528,-0.55183 -0.46099,-0.80248 -0.0494,-0.0796 -0.0674,-0.18081 -0.15367,-0.22195 -0.0201,-0.0137 -0.0287,-0.0131 -0.0683,-0.0171 z"
       id="path1"
       style="fill:#ffffff;fill-opacity:1;fill-rule:evenodd;stroke:none;stroke-width:0.017;stroke-dasharray:none" />
  </g>
</svg>
